/* XPM */
static char *result[] = {
/* columns rows colors chars-per-pixel */
"60 61 221 2 ",
"   c #181818",
".  c #191919",
"X  c gray10",
"o  c gray11",
"O  c #1D1D1D",
"+  c #1E1E1E",
"@  c gray13",
"#  c #222222",
"$  c #232323",
"%  c gray14",
"&  c gray15",
"*  c #272727",
"=  c #282828",
"-  c gray16",
";  c #2A2A2A",
":  c gray17",
">  c #2C2C2C",
",  c #2D2D2D",
"<  c gray18",
"1  c #2F2F2F",
"2  c gray19",
"3  c #313131",
"4  c #323232",
"5  c #353535",
"6  c gray21",
"7  c #373737",
"8  c gray22",
"9  c gray23",
"0  c #3C3C3C",
"q  c gray24",
"w  c #3E3E3E",
"e  c #3F3F3F",
"r  c gray25",
"t  c #414141",
"y  c gray26",
"u  c #434343",
"i  c #444444",
"p  c gray27",
"a  c #464646",
"s  c gray28",
"d  c #484848",
"f  c #494949",
"g  c gray29",
"h  c #4B4B4B",
"j  c #4C4C4C",
"k  c gray30",
"l  c #4E4E4E",
"z  c gray31",
"x  c #505050",
"c  c #515151",
"v  c gray32",
"b  c #535353",
"n  c gray33",
"m  c #555555",
"M  c #565656",
"N  c gray34",
"B  c #585858",
"V  c gray35",
"C  c #5A5A5A",
"Z  c #5B5B5B",
"A  c gray36",
"S  c #5D5D5D",
"D  c gray37",
"F  c #5F5F5F",
"G  c #606060",
"H  c gray38",
"J  c #626262",
"K  c gray39",
"L  c #646464",
"P  c #656565",
"I  c gray40",
"U  c #686868",
"Y  c DimGray",
"T  c #6A6A6A",
"R  c gray42",
"E  c #6C6C6C",
"W  c #6D6D6D",
"Q  c gray43",
"!  c #6F6F6F",
"~  c gray44",
"^  c #717171",
"/  c #727272",
"(  c gray45",
")  c #747474",
"_  c gray46",
"`  c #767676",
"'  c #777777",
"]  c gray47",
"[  c #797979",
"{  c gray48",
"}  c #7B7B7B",
"|  c #7C7C7C",
" . c gray49",
".. c #7E7E7E",
"X. c #808080",
"o. c #818181",
"O. c gray51",
"+. c #838383",
"@. c #848484",
"#. c gray52",
"$. c #868686",
"%. c gray53",
"&. c #888888",
"*. c #898989",
"=. c gray54",
"-. c #8B8B8B",
";. c gray55",
":. c #8D8D8D",
">. c #8E8E8E",
",. c gray56",
"<. c #909090",
"1. c gray57",
"2. c #929292",
"3. c #939393",
"4. c gray58",
"5. c #959595",
"6. c gray59",
"7. c #979797",
"8. c #989898",
"9. c gray60",
"0. c #9A9A9A",
"q. c #9B9B9B",
"w. c gray61",
"e. c #9D9D9D",
"r. c gray62",
"t. c #9F9F9F",
"y. c #A0A0A0",
"u. c gray63",
"i. c #A2A2A2",
"p. c gray64",
"a. c #A4A4A4",
"s. c #A5A5A5",
"d. c gray65",
"f. c #A7A7A7",
"g. c gray66",
"h. c #A9A9A9",
"j. c #AAAAAA",
"k. c gray67",
"l. c #ACACAC",
"z. c gray68",
"x. c #AEAEAE",
"c. c #AFAFAF",
"v. c gray69",
"b. c #B1B1B1",
"n. c #B2B2B2",
"m. c gray70",
"M. c #B4B4B4",
"N. c gray71",
"B. c #B6B6B6",
"V. c #B7B7B7",
"C. c gray72",
"Z. c #B9B9B9",
"A. c gray73",
"S. c #BBBBBB",
"D. c #BCBCBC",
"F. c gray74",
"G. c gray",
"H. c gray75",
"J. c #C0C0C0",
"K. c #C1C1C1",
"L. c gray76",
"P. c #C3C3C3",
"I. c gray77",
"U. c #C5C5C5",
"Y. c #C6C6C6",
"T. c gray78",
"R. c #C8C8C8",
"E. c gray79",
"W. c #CACACA",
"Q. c #CBCBCB",
"!. c gray80",
"~. c #CDCDCD",
"^. c #CECECE",
"/. c gray81",
"(. c #D0D0D0",
"). c gray82",
"_. c #D2D2D2",
"`. c LightGray",
"'. c gray83",
"]. c #D5D5D5",
"[. c gray84",
"{. c #D7D7D7",
"}. c #D8D8D8",
"|. c gray85",
" X c #DADADA",
".X c gray86",
"XX c gainsboro",
"oX c #DDDDDD",
"OX c gray87",
"+X c gray88",
"@X c #E1E1E1",
"#X c #E2E2E2",
"$X c gray89",
"%X c #E4E4E4",
"&X c gray90",
"*X c #E6E6E6",
"=X c #E7E7E7",
"-X c gray91",
";X c #E9E9E9",
":X c #EAEAEA",
">X c gray92",
",X c #ECECEC",
"<X c gray93",
"1X c #EEEEEE",
"2X c #EFEFEF",
"3X c gray94",
"4X c #F1F1F1",
"5X c gray95",
"6X c #F3F3F3",
"7X c #F4F4F4",
"8X c gray96",
"9X c #F6F6F6",
"0X c gray97",
"qX c #F8F8F8",
"wX c #F9F9F9",
"eX c gray98",
"rX c #FBFBFB",
"tX c gray99",
"yX c #FDFDFD",
"uX c #FEFEFE",
"iX c white",
/* pixels */
"E ;.u.L.J.) i.M.L.G t.g.L.x.*.E ;.u.L.J.( i.M.L.F t.g.L.x.*.E ;.u.L.J.) i.M.L.G t.g.L.x.*.W ;.u.L.J.( i.M.L.F t.g.L.x.*.",
"0X4.e.L.J.) r.b.S.G t.g.A.8.8X0X3.e.L.J.( r.b.S.F t.g.A.8.8X0X4.e.L.J.) r.b.D.G t.g.A.8.8X0X3.e.L.J.( r.b.D.F t.g.A.8.7X",
"J.| 5.L.J.F 3.g.j.x t.f.g.~ r.J.| 5.L.J.D 3.g.k.z t.f.g.~ e.J.| 5.L.J.S 3.g.k.z t.f.g.~ e.J.| 5.L.J.D 3.g.k.l t.f.g.~ e.",
"Y.'.F.N.> v ..4.=.b : w.6.e.c.Y.'.F.N.> v ..4.=.v : w.6.e.c.Y.'.F.M.; v ..4.=.b : w.6.r.c.Y.'.G.N.> b ..4.=.b ; w.6.r.c.",
"yXiX{.$ _ C.'.*.[.Z.[ = V.5XeXyXiX{.% ` Z.].*.[.Z.] = V.5XeXuXiX{.# _ Z.].*.[.A.[ = V.5XeXuXiX{.$ _ Z.].*.[.A.] * B.5XeX",
"=XY.I.# C 6.qXiXwXc.W = i.a. X=XY.I.# Z 7.qXiXwXc.E & i.a.|.=XY.I.@ C 5.0XiXwXc.W * i.a.|.=XY.I.# C 6.qXiXwXc.E & i.a.}.",
"U.G.a.X &.;.y.J.K.f.>.+ &.r.p.U.G.a.X &.;.y.J.K.f.,.O &.r.p.U.G.a.. *.;.y.J.K.f.,.+ &.r.p.U.G.a.. &.;.y.J.K.f.<.O %.r.p.",
"x.[ H 5X$Xj.8.n.V.f.$X5XB P <.x.[ H 5X$Xj.8.n.V.d.$X5XD L <.x.[ Y 6X$Xj.8.n.V.d.$X5XC L <.x.[ H 5X$Xj.8.n.V.s.$X5XZ K <.",
"h :XiX4Xv.=...u.8. .8.<XiX=Xe h :XiX5Xv.=...u.7. .7.,XiX>Xy z <XiX4Xv.=...y.8. .7.<XiX-Xr h :XiX4Xv.=...y.7. .7.>XiX;Xr ",
"iXtXQ.H.8.* j _ Z < $.y.v.rXiXiXtX!.H.9.* k _ Z , #.y.c.rXiXiXtXQ.H.9.& j _ Z , #.y.c.rXiXiXtXQ.H.8.* j ) Z > +.y.x.rXiX",
"|.Y.H.x j.,Xt 4 s <Xk.c y.a.U. XY.H.x h.,Xt 3 s <Xk.x y.a.I.|.Y.J.b j.<Xu 4 d 1Xl.c y.a.I.|.Y.H.x j.<Xi 3 s 1Xl.k t.a.P.",
"Y./ ;.$XuXiXrX4.qXiXuX%X:.T a.Y./ -.$XuXiXrX4.qXiXuX%X:.Y a.Y.` ;.%XuXiXeX4.qXiXuX%X>.Y a.Y.( ;.$XuXiXrX5.qXiXuX%X>.P a.",
"Y.l 2.5XiX].v.W $.F.iX9Xx.v a.Y.k 1.5XiX].b.W $.F.iX9Xx.v a.Y.v 1.4XiX].v.E $.D.iX9Xx.c a.Y.x 1.4XiX].b.W $.D.iX9Xx.z a.",
"I.k >.a.I.D.7.>._ 0.d.U.l.c i.I.j >.p.I.D.7.>._ 0.s.U.l.v i.P.c >.a.I.D.7.,._ 0.s.U.l.x i.P.z >.p.I.D.7.,.) 0.s.U.l.l i.",
"G.g >.p.J.k.L.iX}.1.a.U.l.x t.H.g >.a.J.k.K.iX}.<.a.U.l.x t.G.l >.a.J.k.K.iX}.<.a.U.l.z y.H.k >.a.J.k.J.iX}.<.a.U.l.k y.",
"b.t :.a.V.>.@.N.v.O.u.U.j.t 7.b.t :.a.V.>.@.N.v.O.u.U.k.y 7.b.y :.a.V.>.@.N.v.O.u.U.j.r 7.b.u ;.p.V.>.@.N.v.O.u.U.k.r 7.",
"5.^ 8 S s.5.h.A.^.}.s.E 7 Q #.5.^ 8 S s.5.h.A.~.}.s.E 7 Q #.4.^ 8 A s.6.j.S.^.}.s.R 7 Q #.5.^ 8 A s.5.j.A.^.}.s.R 8 Q @.",
"A.^.i.p e.oX0XtXiX5XS.w u.^.N.Z.^.u.p e.oX0XtXiX5XD.q u.^.V.A./.i.p e.XX0XtXiX5XS.q u.^.V.Z./.i.p e.XX0XtXiX5XD.q u.^.Z.",
"iX{.<.t 8.a.x.0X!.U.B.7 ] W.iXiX{.<.t 8.a.x.0X!.U.B.6 ] E.iXiX[.<.t 8.a.z.0X!.Y.N.6 ] E.iXiX[.1.t 8.a.z.0X!.Y.B.6 ' R.iX",
"U.C.e.h E 5.u.N.L.M.o.i >.9.a.U.C.w.h E 5.u.N.L.M.O.u ,.9.a.U.C.e.h E 5.u.N.L.M.o.p ,.9.a.U.C.w.j R 5.u.N.L.M.O.i <.8.a.",
"G.%.`.<XT.y  .g.8.x !.<X'.O.r.G.&._.,XU.t  .h.8.z U.<X'.O.r.G.&.`.<XE.t  .g.7.x ~.<X'.O.r.G.&._.<XT.t  .g.8.z Y.<X'.O.r.",
"d.' ;.Z.iXiX<.x 8.iXiXQ.t.( *.d.' -.C.uXiX:.x 2.iXiX!.y.( *.d.' ;.C.uXiX2.x 0.iXiXQ.y.( *.s.' -.V.uXiX,.x 3.iXiX!.y.( *.",
"~ y i w.u.}.iXiXiX&XL.Z.s 7 S ! y y w.u.{.iXiXiX*XL.Z.f 7 S ! y u w.u.{.iXiXiX&XL.Z.s 7 S ! y t w.u.[.iXiXiX*XL.Z.f 7 S ",
"% C.}._ ` a.d.;XT.Y.&.( {.M.+ % Z.{.( ) a.d.-XT.Y.=.( {.B.+ % A.}._ _ a.d.-XT.Y.%.) }.V.+ % A.}._ ( a.d.-XT.Y.*.) {.C.+ ",
"H.iXiXqXI.B a.B.Y.N P.qXiXiX{.J.iXiXqXP.M a.M.Y.N P.qXiXiX}.H.iXiXqXI.N a.B.Y.N P.qXiXiX{.H.iXiXqXI.N a.M.Y.N P.qXiXiX{.",
"E 8.:XiX].( a.B.U.G K.iX4XG.0.E 9.>XiX].( a.M.U.F J.iX5XG.q.E 8.:XiX].( a.N.U.G J.iX4XG.0.E 9.:XiX'.( a.M.U.F J.iX4XG.q.",
"/ ;.u.L.J.( i.M.L.G t.g.L.z.;./ ;.u.L.J.( u.m.L.F t.g.L.z.:./ ;.u.L.J.) u.M.L.G t.g.L.z.:.( ;.u.L.J.( u.m.L.F t.g.L.z.:.",
"8X2.e.L.J.( r.b.S.G t.g.A.6.5X8X2.e.L.J.( r.x.S.F t.g.A.6.5X8X2.e.L.J.) r.b.S.G t.g.A.6.5X8X2.e.L.J.( r.x.D.F t.g.A.5.4X",
"J.} 5.L.J.V 3.f.j.j t.f.f.Q e.J.} 5.L.J.B 2.s.j.h t.f.f.Q e.J.} 4.L.J.N 2.f.j.h t.f.f.Q e.J.} 5.L.J.B 2.s.j.h t.f.f.Q e.",
"E.{.I.v.- M  .3.&.N - 8.7.u.n.R.{.P.v.; M | 2.&.M - 8.7.u.m.E.{.I.x.= M | 3.&.N - 8.7.i.m.E.{.I.c.; N | 2.&.N = 7.8.i.m.",
"uXuX'.$ _ D.|.1. XD.[ - M.6XrXuXuX'.$ ` D. X1. XD.[ = M.6XrXuXuX'.# _ D. X2..XF.{ = M.7XrXuXuX'.$ _ D..X2. XD.[ * m.6XrX",
"%XY.I.# C 3.8XiX0Xx.E = i.a.'.$XY.I.@ Z 4.9XiX0Xz.E & i.a.`.%XY.I.@ C 3.8XiX0Xx.E * i.a.`.$XY.P.# C 3.8XiX0Xz.E & i.a._.",
"U.F.i.. <.;.y.F.K.f.3.+ $.e.p.U.F.u.. ,.;.y.G.K.f.5.o $.e.p.U.F.u.. <.;.y.F.K.f.4.+ $.e.p.U.F.u.. <.;.y.F.K.f.6.o #.e.p.",
"l.) T 7X%Xd.8.n.V.p.%X7XJ H ,.l.) T 7X%Xf.8.n.B.i.%X7XU G ,.l.) / 8X&Xd.8.n.V.i.%X7XL G >.l.) R 7X&Xf.8.n.B.u.%X7XP G >.",
"l 3XiX1Xc.=.| t.6. .7.;XiX1Xy l 3XiX1Xc.=. .y.6. .6.=XiX4Xa v 6XiX<Xc.=.| t.6. .7.-XiX2Xy l 4XiX1Xc.=.| t.6. .6.=XiX3Xu ",
"iXrXE.H.1.$ g ( V ; o.y.l.wXiXiXrXW.H.2.$ h ( B - X.y.l.wXiXiXrXE.H.3.# g ( V - X.y.l.wXiXiXrXE.H.2.$ g / B =  .y.k.qXiX",
"[.Y.D.z v.3Xj 2 b 4Xb.c r.a.J.[.Y.D.z c.3Xk 1 v 4Xb.z e.a.H.].Y.F.c v.4Xl 1 n 4Xn.c r.a.H.[.Y.D.z v.3Xl < b 4Xn.l w.a.G.",
"Y.R 3.*XuXiXwX2.8XiXuX=X4.I a.Y.E 2.*XuXiXwX2.8XiXuX=X4.P a.Y.~ 4.=XuXiXqX1.7XiXiX=X5.P a.Y.E 3.=XuXiXwX2.7XiXiX=X5.H a.",
"Y.l <.1XuX).v.E $.C.uX6Xz.v a.Y.k <.1XuX_.v.R $.C.uX7Xz.v a.Y.v <.<XuX).v.R $.V.uX6Xz.c a.Y.z <.<XuX).v.E $.V.uX6Xz.z a.",
"P.k >.p.I.S.7.7._ 0.s.U.l.c i.P.j >.p.P.S.7.7.) 0.s.U.l.c i.P.c >.p.I.S.7.9._ 0.d.U.l.x i.P.l >.a.I.S.7.8.) 0.s.U.l.l i.",
"G.g >.a.J.j.D.iX'.<.a.U.l.z t.G.g >.p.J.j.D.iX'.<.a.U.l.x t.G.l >.a.J.j.S.iX'.<.a.U.l.z t.G.j >.p.J.j.A.iX'.<.a.U.l.k t.",
"v.t ;.p.B.:.+.N.c.O.u.U.h.r 7.v.t ;.p.B.:.+.N.c.O.u.U.h.t 6.v.t ;.a.B.:.+.N.c.O.u.U.h.e 7.v.t ;.p.B.:.+.N.c.o.u.U.h.e 6.",
"3.( 0 m s.9.z.F.).XXg.G 9 ~ @.4.( 9 m s.9.z.F.).XXg.H 9 ~ @.3.( 0 n s.0.x.F.).XXh.F 9 ~ @.4.( 0 b s.9.x.F.).XXh.G 0 ~ @.",
"L.).a.p e. XqXyXiX2XS.q a.(.G.K.).a.i w. XqXyXiX2XS.0 a.(.H.P.).a.i e.|.qXyXiX2XS.0 a.).H.L.).a.p w.|.qXyXiX2XD.0 a.).K.",
"iX`.<.t 8.p.k.7XW.U.N.6 ] I.iXiX`.<.t 8.p.k.7XW.U.N.6 ] P.iXiX`.<.t 8.p.k.7XW.U.N.6 ] P.iXiX`.<.t 7.p.k.7XW.U.B.6 ] L.iX",
"U.C.t.x Y 4.u.N.L.m...h 2.9.a.U.C.t.c Y 4.u.N.L.m...f 3.8.a.U.C.t.c U 4.u.N.L.n. .h 3.8.p.U.C.t.v U 4.u.N.L.m...g 4.8.p.",
"G.#._.1X_.r } f.4.l [.1X`.X.r.G.$.).<X`.t } f.5.k ].1X'.o.r.G.#._.1X'.r { f.4.l {.1X`.X.r.G.$.).1X].r { f.4.k ].1X'.X.r.",
"a.` ;.M.uXiXe.h d.iXuXR.t./ &.a.' ;.m.uXiXt.h p.iXuXR.y.( &.a.` ;.m.uXiXt.h f.iXuXT.y./ &.a.` -.n.uXiXi.h a.iXuXR.y.( &.",
"W e e w.i.`.iXiXiX@XL.C.t 5 Z W e q w.u.).iXiXiX#XL.Z.y 5 Z W e w w.u._.iXiXiX@XL.C.r 5 Z W e 0 w.u.(.iXiXiX#XL.Z.y 5 Z ",
"% W..X} ! a.s.%XY.Y.X.{ .XU.+ % Q..X{ Q a.s.$XY.Y.o.{ .XT.+ % Q..X} Q a.s.$XY.Y...{ .XT.+ % !..X| W a.s.$XY.Y.X.{ .XE.+ ",
"C.iXiXwXR.Z a.B.U.V T.wXiXiX`.Z.iXiXwXT.V a.M.Y.V T.wXiXiX`.C.iXiXwXR.C a.B.U.V R.wXiXiX_.C.iXiXwXR.C a.M.Y.V R.wXiXiX`.",
"R 7.*XiX_.) a.N.U.G D.iX2XF.9.E 8.*XiX_.( a.M.U.F S.iX2XF.0.R 7.*XiX_.) a.B.U.G S.iX1XF.0.R 7.*XiX).( a.M.U.F S.iX2XF.0.",
"[ -.u.L.J.) i.M.L.G t.g.L.z.<.] -.u.L.J.( u.m.L.F t.g.L.z.<.[ -.u.L.J.) u.M.L.G t.g.L.z.1.[ -.u.L.J.( u.m.L.F t.g.L.z.1.",
"6X2.e.L.J.) r.b.S.G t.g.Z.4.2X6X1.e.L.J.( e.x.S.F t.g.Z.4.1X5X2.e.L.J.) r.v.S.G t.g.Z.4.1X5X1.e.L.J.( e.x.S.F t.g.A.4.1X",
"J.} 4.L.J.m 2.f.h.d t.f.d.W e.J.{ 4.L.J.n 2.s.h.s t.f.d.W e.J.} 4.L.J.v 2.f.h.s t.f.d.W e.H.{ 4.L.J.n 2.s.h.s t.f.d.W e.",
"Q.|.W.j.= V | 2.%.C - 4.9.s.B.Q.|.E.j.= C } 1.%.C = 3.9.s.B.Q.|.W.g.* V } 2.$.Z - 3.9.s.B.Q.|.W.h.= C } 1.%.C = 3.9.d.V.",
"uXuX_.$ ) G.oX8.OXH.{ = n.7XrXuXuX_.% _ G.oX9.oXG.[ = b.7XrXuXuX_.# ) G.oX9.OXH.{ = b.7XrXuXuX).$ _ H.OX0.OXH.[ * b.7XrX",
"+XY.P.# C 1.5XiX8Xz.E = i.a./.+XY.P.# C 2.6XiX8Xl.E & i.a.^.+XY.P.@ C 1.5XiX8Xz.W * i.a.^.+XY.P.# C 1.5XiX8Xl.E & i.a.~.",
"I.D.t.. 6.:.y.S.K.f.9.O @.w.p.I.D.t.. 5.:.y.D.K.f.0.o @.w.p.I.D.t.  7.:.y.S.K.f.0.O +.w.p.I.D.t.. 6.:.y.S.K.f.q.o +.w.p.",
"j.~ ( 8X&Xp.7.n.B.t.&X8XE S :.j.~ ( 8X&Xa.7.n.B.r.&X8X( S :.j.~ | 9X*Xp.7.n.B.t.&X8XQ S :.j.~ ) 8X&Xa.7.b.B.e.&X8X~ A :.",
"c 8XiX>Xc.=.} t.5. .6.%XiX6Xa c 8XiX>Xc.=.} t.4. .6.$XiX9Xg M 0XiX:Xc.=.} r.4. .6.$XiX7Xs v 8XiX>Xc.=.} r.4. .6.#XiX8Xd "
};
