/* XPM */
static char *result[] = {
/* columns rows colors chars-per-pixel */
"60 60 143 2 ",
"   c #05060C",
".  c #06080F",
"X  c #070710",
"o  c #070912",
"O  c #080B15",
"+  c #0A0E1A",
"@  c #0C101E",
"#  c #0D1323",
"$  c #0F1629",
"%  c #0F182C",
"&  c #101525",
"*  c #111827",
"=  c #11162A",
"-  c #11192D",
";  c #141C33",
":  c #181E37",
">  c #151E39",
",  c #181F3A",
"<  c #162036",
"1  c #182137",
"2  c #15213C",
"3  c #19223C",
"4  c #162443",
"5  c #1A2544",
"6  c #1A2846",
"7  c #172749",
"8  c #1B2749",
"9  c #1C2A4C",
"0  c #1C2D51",
"q  c #1F2F59",
"w  c #1D3155",
"e  c #1E335A",
"r  c #202B4D",
"t  c #212E53",
"y  c #213056",
"u  c #23335B",
"i  c #1F3761",
"p  c #233662",
"a  c #283561",
"s  c #233965",
"d  c #253C6B",
"f  c #283C6B",
"g  c #2B3F72",
"h  c #25416F",
"j  c #264173",
"k  c #2A4375",
"l  c #264779",
"z  c #2A467A",
"x  c #25497B",
"c  c #2C497D",
"v  c #2C4B83",
"b  c #2F4E89",
"n  c #314E87",
"m  c #295187",
"M  c #2E518C",
"N  c #31528B",
"B  c #2E5691",
"V  c #2F5898",
"C  c #325693",
"Z  c #355A94",
"A  c #385A93",
"S  c #355798",
"D  c #345C9C",
"F  c #395E9C",
"G  c #32609E",
"H  c #396398",
"J  c #355EA1",
"K  c #385DA0",
"L  c #3461A3",
"P  c #3B64A4",
"I  c #3768A7",
"U  c #3E6CA7",
"Y  c #3663AA",
"T  c #3A66AB",
"R  c #3468AB",
"E  c #3967B2",
"W  c #366EB3",
"Q  c #3D6BB3",
"!  c #3D6EBA",
"~  c #3E72BB",
"^  c #406FAE",
"/  c #4273B2",
"(  c #4475BB",
")  c #447ABC",
"_  c #3F76C5",
"`  c #4177C1",
"'  c #437BC3",
"]  c #457DCB",
"[  c #4E85B9",
"{  c #5188B4",
"}  c #4B84C6",
"|  c #4983CC",
" . c #4C8ACB",
".. c #528DCD",
"X. c #5292CF",
"o. c #4D8BD6",
"O. c #4788DD",
"+. c #498ADA",
"@. c #4D93DC",
"#. c #5590D1",
"$. c #5294DB",
"%. c #5599DF",
"&. c #5BA2DC",
"*. c #65A8DE",
"=. c #498EE2",
"-. c #4D94E2",
";. c #4E97E9",
":. c #5599E6",
">. c #5299E8",
",. c #529FF0",
"<. c #56A1E5",
"1. c #5DA4E8",
"2. c #5BAAE8",
"3. c #5DB5EF",
"4. c #5AACF6",
"5. c #5FB2F5",
"6. c #5FB3FB",
"7. c #6FAAE4",
"8. c #67B2E1",
"9. c #71BFE2",
"0. c #6DB7F4",
"q. c #6DC0E5",
"w. c #67C8F9",
"e. c #69CAFB",
"r. c #71C4F7",
"t. c #75CFF0",
"y. c #73CFFA",
"u. c #6ED6FF",
"i. c #79D2F5",
"p. c #7ED2FC",
"a. c #80B2DF",
"s. c #83CEEE",
"d. c #89C8EB",
"f. c #8EDEF6",
"g. c #A5D9F4",
"h. c #82E4F5",
"j. c #85E7FB",
"k. c #92E6FC",
"l. c #9BECFA",
"z. c #89F0FC",
"x. c #A7E2F4",
"c. c #A6E8F8",
"v. c #B1E1F5",
/* pixels */
"                .   . O . O O . + 1 @ @ * & & @ @ * * @ & & & @ + + O o o o o o .   + .                                 ",
"                    . + . . O . @ ; @ @ & & @ & @ & * @ & & & * + + + o O o O O . . @ .                                 ",
"                  . . O O O . + & * @ @ & @ @ * * * * * @ & * @ + + + O O O O . .   &                                   ",
"                  O . O . + + @ * * @ @ & @ * * * * * @ * * * & + + + O O O + . O . &                                   ",
"                . O . . . + + @ @ @ + @ & & * * 1 * * * * * & @ + + O + O + O o O O @                                   ",
"              X + + O . O + + @ @ @ @ @ & & * * * * * * * * * @ @ @ + + + O O o O + +   .                               ",
"        o o o o + O O . + @ @ + @ + @ @ & * * * 1 * * * * * * @ @ @ + + + + O O O + O   . X                             ",
"        o + o + + + . O # @ @ + @ @ @ * & * * * 1 1 * * * * * & @ @ # + + + O O + + O O o o X                           ",
"        o + + + O O O + - # @ + + @ @ - * * - - 1 1 * * 1 * * * @ # $ @ O + + O + @ O + O o X X                         ",
"    o X + + O + O O # # # @ + + + @ & - * * - ; 1 * 1 * 1 * 1 * # $ $ @ + + + + + + O O O o O X                         ",
"  o O O + O O O O + % $ # + + + @ & * - * = - 1 1 1 * 1 - 1 1 * $ $ $ # + @ @ + @ + O O + o # o . .                     ",
"o O + + + O O O + # % $ @ + @ # @ & - - : - ; 1 1 1 1 1 1 - 1 1 % % % # @ @ # # # # O O O O @ o o .     o   .           ",
"o + + @ + O O O $ % % # @ + + # & - - ; 6 < < < < 1 3 3 1 1 1 1 > % % # # $ $ % % % O O O O + O o o o o . X o   .     X ",
"O + + + O O + @ % ; % @ @ @ # * - - ; : 9 1 3 < 1 1 3 3 1 - 1 1 > % > % $ % % % ; % O + O O O O o o o o o o o o . . X   ",
"+ + + + O + @ % % % $ @ @ @ # - - - 3 3 9 4 3 3 3 < 3 3 < ; 1 3 > > 4 > % 7 > $ # # + O O + + + O o o o o o o o o o   X ",
"+ + O O O @ # % $ $ # # @ # # < ; < 6 4 5 6 < 3 3 1 3 1 : : < 3 4 > 7 7 7 7 2 + + O + + + + # $ + o o O o o o + O o o X ",
"@ + O O + # % - $ $ $ # # # % ; < 4 6 4 5 5 1 3 5 3 3 3 1 3 3 3 7 , 7 7 7 0 > + + O + + + + # 4 O O O @ @ O O O O o o o ",
"# O O + # # % % % = % # # # % - 2 w 2 6 5 5 1 5 r 6 3 3 3 3 3 6 8 4 2 7 q 7 % + + + + + + + $ 7 @ O @ # $ + O O + o o o ",
"@ O + @ $ $ % % # = = # # * ; ; 2 i 6 6 6 5 1 6 r 6 3 3 3 6 6 3 7 8 2 7 i 4 $ # # + + + + + % 7 @ @ @ % $ @ O @ + o o o ",
"O + + + $ % % $ $ = $ $ $ ; - 2 6 e 9 0 5 5 5 9 r 6 6 3 6 3 6 5 9 5 2 7 v 7 % # # + # + + # % 7 @ @ @ % # @ + @ # O o O ",
"O + # @ $ % ; % # $ # = % 2 2 2 9 e w w 6 6 5 r r 9 6 6 r 6 6 6 q 2 4 7 m 7 % $ $ # # # # # $ > $ @ + % @ # @ # @ + o O ",
"+ $ # + $ ; % % ; % $ ; 2 4 9 2 6 w w e e 6 9 9 y t r 9 r 0 r 6 i 4 7 0 m e > % $ # $ $ # # % % $ + @ * # # # @ @ O O o ",
"# $ + $ % % % ; > - - ; 4 w e > 6 w w e h 9 9 r u y y y u u y 9 d 0 7 e x i 2 ; $ $ % % $ # $ $ % @ + @ $ # # @ + O o O ",
"# $ # # % $ $ % > - > > 9 w e 3 6 6 w e d s r y u y u u u s s y i 0 q i s i 9 2 ; % > > > $ $ # % @ @ @ % # # # + o O O ",
"$ # # # % $ $ # % % 4 7 q q 9 8 8 8 0 p d M y a u u u f u a c a i i e i i q i 7 4 > > 2 4 % # # # @ @ # % # % % @ O O O ",
"$ # # $ % # # # $ % > 7 e 0 4 9 0 8 0 i d J d f u h a k h k m h d i i j 0 7 s 7 4 4 ; 4 7 ; # # # @ # # % # % % # O + + ",
"$ # # # % # % % $ % > 7 0 w 4 4 0 0 9 s g Y M g h c n N z z n f i d x i 0 4 q 7 7 7 ; > > > % $ # # # # % % # % @ + @ @ ",
"$ # @ @ # # % ; $ ; > 4 7 e 4 5 0 t q g b J Y g k N ^ ^ N n c h j x m i e 7 2 > 7 w % % $ 4 % % # # # # # % % # + + # # ",
"$ # @ # # % % ; % ; > 2 5 y 8 4 y s p g v J E S n S Q / H M Z z v B B i q 7 4 > 7 7 % # # > > % % # # # # % % # @ @ # @ ",
"# # # # % % % ; % - ; 2 5 0 0 8 p g g z z E E ! S K Q ( U C ^ M B R G i e 7 7 4 4 2 ; % $ % 4 % % # # $ % # @ @ @ @ @ + ",
"# # @ $ ; ; ; ; - - > 2 5 0 i q p v v v v ! ( +.( ^ ( X.) I ) G G W L d i q 7 7 > ; ; % $ $ 4 ; > % $ # # # # @ @ @ # + ",
"# @ @ % ; ; ; ; > ; > , 5 0 d i g v v b M ] +.>.<.] ..q...] ( ~ Y R L v l q 7 4 4 > > ; % $ ; 2 4 ; $ # # % % $ # @ @ + ",
"@ # @ % > > > > > > 4 3 6 y j f x z C D J O.,.5.w.-.*.h.*.:.' ] Q L D M m i q 7 4 2 2 > % % $ > 7 2 % # # % % % $ @ @ + ",
"# # # % ; 2 7 4 7 4 7 3 6 e j v z z S ' ' =.5.y.u.4.d.z.s.0.a.#.~ D D V V d q 7 7 2 4 > ; % $ ; 4 4 % $ # % % $ $ # @ # ",
"# # # = % > 0 7 7 9 0 4 6 w h M z z D -.-.=.3.j.u.6.x.j.l.p.v.:.~ D L D V v i 0 7 2 4 > > % $ % > > ; $ # $ $ $ # # # # ",
"@ # = = $ > 7 4 7 0 0 4 6 0 s v c k C @.;.-.%.j.e.5.c.t.k.p.g.$._ S V B M v i q 7 2 > 4 > % $ $ % % ; $ # $ # # @ # # @ ",
"@ @ ; $ $ % > > 3 9 7 4 6 8 0 j n z Z ~ +.@.) i.5.1.f.&.r.r.7.| ) m b x z g q 7 7 4 > > ; % $ $ $ % % $ # # $ + + + + + ",
"+ @ % $ $ % ; = > 9 6 4 8 6 8 p c z N H ' } H 8.>.#.9. .:.2.o.) / N v d d i 9 8 7 4 ; ; ; % $ $ $ $ # $ + # $ + + O + + ",
"+ @ $ $ # $ $ ; ; 4 4 7 8 5 4 y k v M C G H b [ | / { ] }  .] ! I T D p q 0 8 5 2 2 ; % $ $ # $ $ + # # # # # O O O O O ",
"@ + @ $ $ $ $ , ; : , 6 6 3 5 0 h v v n c k k A Q A N ( P U ` Q G ' I u q 4 2 2 2 2 % $ $ $ # # $ + + + + + + O O O O O ",
"+ + @ # $ - : 2 ; % ; 5 2 5 , 8 y f g k s f f k ^ n g K S A P P V _ V d d , > > 4 > ; # # # # # # @ @ + + + O + + O O O ",
"+ + + @ - > 4 8 ; - = ; > 3 , 2 8 r 0 y y f a f F n f k A z n F J V b g M 4 > ; 7 % % # # # # + @ @ + + + O O O O O O o ",
"+ + + + $ > 5 5 > - % = ; > > > , 5 r 8 t f u a A k a a n n f N S z g g V 8 > > 4 ; $ # # # + @ @ + + + + O O O O O O o ",
"@ @ O + @ $ = ; > % % = ; : ; : 3 3 t 8 9 s u a k a u u g S g g g d p d z d 7 > ; - $ # # @ # + + + + + + O O O + O o o ",
"@ @ + + + + + # > = - = : ; ; ; 3 , a 5 r a t a a r a a a F g a p y q q p j q 4 % $ $ # # # + + @ + + + O + O O O o O o ",
"@ @ @ O O + + + $ $ ; = > ; : ; , , y 9 r r r a t a r r t c a u q q q 9 7 q 7 7 ; $ $ # # # # + + + + O + + O o O O o . ",
"+ @ @ + O + + + @ # ; = 5 ; : : : : r r r , r r r t r r r r a r y r 5 , > 4 7 q % $ % # # + + + @ + O + + + O O o O o . ",
"O + @ O + + + + + # = # , = ; ; : : 3 3 r : 3 r r a r r r 5 a r t 8 , ; ; ; 4 q $ $ $ + # # + + + + O O O O o o o o o . ",
"O + @ + + + + O + + & @ & & = : - - : : : , , , r r r r 3 : a 5 9 5 , : = > , , $ @ @ + + + + O + O o O + o o o o o o o ",
"O O + + + O + + X + + + + & & = = = = : = , : : , r r r r : r 3 8 , = ; = = = ; $ + + + + + + O O O o O O o X X . . . . ",
"X O O O + + O + + O O + + @ @ = = & & = & : : = , r r , r , 3 3 5 , = = = = = ; % $ + O + + + O O + o o o X X X   .     ",
"X X O O O + O + O O + O + @ @ & & @ & & & = = : : , : : r , : , 5 , = = = = = = > ; + + + + O O O O O o X X X X . .     ",
"X o O O O + O + + + + + + @ @ & & @ = = & & = = = : : : 8 , : : > > = = # = = = > % @ O + O o o o O o o o X X X         ",
"  o o O + O + o + + O + + + @ @ @ & = = & & = = : : : : : : 5 = = ; = # # = = ; ; % # O + + X o o o   o o X   o         ",
"  o   o + + + o + + + + + + @ @ @ & & & & & & & = : = : = : , : = > = = = = = = $ $ $ + o O o X o o X X o X   X         ",
"  o   o O o o O X + O + + + + & & + & & & = & & & : : : = = : : = = ; = = = = = @ # # # O o o X X     X X               ",
"    X   o O o o O o + + + + + + + @ @ & & & & & & : : = & & : = = = ; ; % ; % # + @ # $ o o o o   o                     ",
"        . o o o o + + @ + + + + + + + + @ & & & & = = & : & & : = = = = ; > 2 % @ @ # % o o o o X     X   o X           ",
"      X   . o o . O + + @ @ @ @ + + + + + & & & & & & & & : = & = # @ # % 2 4 ; # + # ; o o o o o         o             ",
"        .   . o . O + + + @ @ @ + + + + & & & & & & & & : : : & = # @ @ ; , 5 ; # # # > o o o o         o o             "
};
