/* XPM */
static char *result[] = {
/* columns rows colors chars-per-pixel */
"60 60 137 2 ",
"   c #090907",
".  c #0C0D0B",
"X  c #100F0E",
"o  c #0F100E",
"O  c #11100F",
"+  c #0E0F10",
"@  c #100F10",
"#  c #0F1011",
"$  c #131313",
"%  c #191616",
"&  c #1B1917",
"*  c #16161A",
"=  c #19171A",
"-  c #17181D",
";  c #1B1A1C",
":  c #211D1E",
">  c #24201F",
",  c #1D1C23",
"<  c #1E1F28",
"1  c #211F23",
"2  c #1F2024",
"3  c #1F2029",
"4  c #232225",
"5  c #292324",
"6  c #23232B",
"7  c #29262C",
"8  c #2D292C",
"9  c #322A2F",
"0  c #252631",
"q  c #282731",
"w  c #272835",
"e  c #2C2B34",
"r  c #2D2D3B",
"t  c #322D34",
"y  c #302F3C",
"u  c #3B3237",
"i  c #34323C",
"p  c #39353C",
"a  c #3B3A3E",
"s  c #2F3040",
"d  c #343443",
"f  c #393743",
"g  c #3B3945",
"h  c #363748",
"j  c #383749",
"k  c #36384A",
"l  c #3A3A4B",
"z  c #3C3E52",
"x  c #403D45",
"c  c #423E4B",
"v  c #3F4156",
"b  c #44434B",
"n  c #4C464C",
"m  c #534C4F",
"M  c #434253",
"N  c #494654",
"B  c #4D4C55",
"V  c #43455B",
"C  c #484758",
"Z  c #46485F",
"A  c #4B4A5B",
"S  c #504A56",
"D  c #514B59",
"F  c #55555D",
"G  c #58535E",
"H  c #4A4C64",
"J  c #4D4F69",
"K  c #4D5067",
"L  c #4E5069",
"P  c #535265",
"I  c #595766",
"U  c #5A5867",
"Y  c #53556C",
"T  c #5A5A6D",
"R  c #545670",
"E  c #565974",
"W  c #5D5D72",
"Q  c #575C78",
"!  c #5A5E7A",
"~  c #605760",
"^  c #655D61",
"/  c #5E627E",
"(  c #636169",
")  c #68666F",
"_  c #636274",
"`  c #656479",
"'  c #6A6B7E",
"]  c #726E7F",
"[  c #5E6382",
"{  c #626682",
"}  c #676B86",
"|  c #6B6C82",
" . c #636989",
".. c #6C718D",
"X. c #727283",
"o. c #7C7887",
"O. c #74748C",
"+. c #787789",
"@. c #76788C",
"#. c #6D7492",
"$. c #777790",
"%. c #7B7D96",
"&. c #737EA1",
"*. c #7E8095",
"=. c #7D839D",
"-. c #7A83A6",
";. c #828295",
":. c #898595",
">. c #86879B",
",. c #898B9F",
"<. c #8287A1",
"1. c #8D8FA6",
"2. c #848BAA",
"3. c #918FA1",
"4. c #9494A6",
"5. c #9294AA",
"6. c #9B9BAE",
"7. c #8891B2",
"8. c #8894B8",
"9. c #969AB3",
"0. c #9FA0B6",
"q. c #9CA0B9",
"w. c #ACADBC",
"e. c #9CA5C3",
"r. c #9DAACB",
"t. c #A2AAC4",
"y. c #ADAFC1",
"u. c #A8AFC9",
"i. c #AEB5CE",
"p. c #B3B6C9",
"a. c #BEC2D5",
"s. c #B7C1DA",
"d. c #BBC4DE",
"f. c #C3C6D5",
"g. c #C9CFE1",
"h. c #CED4E5",
"j. c #D3DAEC",
/* pixels */
"  .       +           . .     . X =         .       .   + = % @ $   . @ = $ X X X .     . X @ = 1 1 1 1 @ X   .   . X = ",
"  . .   + @   . .   . . X .     @ = .         .   +   . . % % @ $     @ % $ X X X . .   X @ * 1 1 1 1 = @ @ . . . . . $ ",
". . . . . @ +   .     X $ .     @ * .   . . .   . . .   . X X . . . . . $ $ X X X X .   @ @ ; 7 j j 1 % @ . . @ . . . @ ",
". . X . . $ . + X   . X X . . . $ * . $ $ . . . . . . . . X .   . .   $ @ @ X X . . . . @ = t l ~ Y t 1 @ . . @ . . . . ",
"+ . . . . . + . . .   . X     . X . . 1 1 . . . X . . .   X O . . . . . X O X O . . . . $ 1 A I :.+.f = @ . . X + . . . ",
"X .   .   + . . . . X . X . . . X . X ; 1 . . . . . . . . O O X . . . . . . X . X . . . % q T ` <.O.f 1 @ X . . . . . . ",
". . .   . . + . . . . . . . . . . . X * $ . . . . . . . . X % $ . o . . X . O O X .   . = q W / ` I r 1 @ X . X . + + . ",
". . . . . $ X X . . . X X . . .   . . . .   . . . X . . . X $ $ . . . . o O . O . . . X = 1 D P C j 7 = @ . . X . . . . ",
".   . . $ $ o o . . . O X . . . . . . o o . o o X X . . . . . O . . . . o o . . . . . . $ 2 f g f t 1 , @ X X X . . X . ",
". . . + ; e 6 O . . O o . . . . . . . . o . $ o X X . . . . . . . o o   . o . . O $ . + $ = q e t 1 , * @ X X X . . . . ",
". . . # 8 I C * . o O o . . . . . . . . . . o . O O . . . . . . . O O . . . . . % $ . + $ ; 3 q 1 1 = @ X @ X X @ . X . ",
"$ # . # e X.T ;   o O . O $ . . . . . . . o . . O O O O . . . . o O O . . o o . $ $ # $ * ; 2 3 1 1 * @ X @ @ @ + . X . ",
"% # # . t | U ; . . X . $ ; O X . . . . . o . $ & o ; ;     . . o o . . . . . + $ . $ - - - 2 2 1 , $ $ X X $ % $ @ X X ",
"% $ . . 8 U M = . . . . $ > O X .   . . . . . $ & o e 8 . . . . O O   . . . . $ $ * , , 2 2 2 , ; * $ $ X $ * = * $ $ @ ",
"# o . # 1 p 7 @ . o O . O % o . . . . . . . . o . $ n b . . . o : ; . . . . . # $ , 3 6 3 3 2 - = * % @ $ % : 1 ; = @ X ",
"o . o ; 8 5 % . . . O . o O . . . . . . . .   . . $ a v o . . . ; = . . o . . . * 6 w w w 0 3 2 , , 1 1 : 1 9 9 1 ; * . ",
". . % u m 9 $ . . . o . o o . O o . . . +   . . . . 2 2 . . . . $ o . o & o . o & 0 e r w s r 0 7 6 c t 1 u S x q 1 * @ ",
"@ $ 5 ~ ] b ; o   . . . . o . o o o . . . .   . . . . . . # * . o o o o $ $ o . $ 0 r r v v v s d y N y t G o.I y 1 - $ ",
"$ , x :.w.) 2 o . . . . . o o o . . . . . . . # o . . . o 4 2 o . o & $ o $ O o * 0 s v v K v v C d y t c +.y.+.p 1 ; $ ",
"@ : b 6.f.X.8 o . . . . . . o . . . . . . + # # # # . . . 4 4 o . o $ $ . O $ o * 3 r v R  ./ Q Y z r r c %.f.;.g 6 ; % ",
". $ f 3.a.' e * . . .   . . . . $ & . o o o # - - # o o o $ & o . . o o . o o o * 3 s v  .-.=.#.Q V s e l | t.X.g 7 1 = ",
"  $ 7 X.6.U 7 * o . o O . . . . o & o # # # - 3 2 - # o . o o o . . . . . o o o - 3 s v *.u.q.-.[ H h r d R =.T i 6 ; * ",
". . ; n ) a : o o . o > & . . . o $ o # - - 3 0 6 - # o . . o o . o o . . . . . * 2 r Z -.d.s.8. .J h r d c Y c e 1 ; * ",
"  . $ 6 v 2 & . . . o & $ . .   . . o * - 3 w r w 2 $ o . . . . . o o . . . . . o , r v #.s.d.-. .J l s s g l s t 1 * X ",
"o . . * 2 - % o . . . o o o . . . . # * 2 r v i r 3 - * . . . . . . o . . . . . . , r z { t.r.-. .J j s y y t r g 6 $ # ",
"o . o o # # $ . . . . . o O .   . # * 2 0 i v v k 0 , - o . . . . . . o 4 2 . . . , r z Q 2.8.&.[ H j y r q 1 0 p 1 $ . ",
"o o . o o . # . . . . o & & o . # 2 2 2 w v K K v r 3 - . . . . . . . o F b o o . - w k J #.-.&.! V y 0 0 1 1 1 1 ; $ + ",
"o     o . o   .   . o o & & . . - 3 2 3 w v / ' R v w - . . . . . . . o F v o . . * 1 s H [ #.#.R z w 1 < , * , - $ + . ",
". .   o .   o     . . . o o . # ; ; 2 3 r Y -.2...Y r , o . . .   .   . e 6 . . . # 3 r c R [ { H h 1 , , , + $ $ + . . ",
".   o o   . o o .     . .   . # ; * - 3 v ..i.s.-.} v 2 # . . o . . . . * # .     # , w l Y R L z r < $ $ @ + @ $ O $ + ",
". .   o . .   o . . . . . . . o # + * 3 v =.g.h.t.=.B 3 - o # $ . . . . o . . . . + , 6 g E J V s 1 , + @ @ @ + . $ ; # ",
". . o o     o o . . . .   . .   . . * 0 Z =.h.j.r.*.B w - * $ $   . . . .     . . . ; 2 d I Z k w , $ . + + @ @ o $ : % ",
"o . . . . . o . . . . . . . .     . # 3 v =.s.d.7.[ v r 2 * # # # . . . . o . . o o > 4 r b l r 3 * o . # o $ $ # $ % $ ",
"8 $ . . . . . . . . . . . . .   . . # 2 v [ 8.e.*.L v w 2 - * # # .   . o 8 5 o O o & : q r r 6 , # . . o # $ $ $ $ $ # ",
"( : . . . . . . . . . . . O $ . . . o ; w K *.=.[ v i 3 - - - # . . . . * ^ m $ o o $ $ 2 6 6 - # o   o # # - - $ # . . ",
") > o . . . . . . o . . . O O . . . . $ 3 v R / K v w 2 - - - # + # . . % ^ m o . o . & ; , - $ o . o o # * ; , * # . . ",
"a & & o . . . . . o . . . o O o . . . o - r v v v r 3 3 , , , # + # o . # 8 6 o . . o 5 , $ % # o   . o # - 4 6 - # . . ",
": & 8 $ . . . o o o o . . . O O .   o o # 2 y s s w 3 3 , - - * # + . o . . . . . . o 5 ; o $ o o   o ; - 2 f g 1 * + . ",
"o > b : . $ o O & o . o . . o . .   & : # * 2 w 0 3 < , * # # 2 2 o   .     . . . o . $ O . . .   o : i 6 8 U T r ; $ . ",
". 4 F > o & . $ & o . . . . . . . . & 2 . # - 2 2 , , * # . + 2 ; .   . . . . . . o . . . . . . o o : i 6 e ` ' i , # . ",
". 4 F > . O . O $ o o . . . . . . . $ O . O * - 2 - * o . . . o o . . . . . . . o . .   o o   . . $ % , , q / / y ; $ . ",
"  : n & . . O O o o o . . . o o o O o . . o & $ * # o .   . .   . . .   . . . . o . . . .     . . # . # $ 6 A C 7 * . . ",
". $ 5 % . . O O . $ > o . . $ > O O . . . . $ o o o . . .   .   . . . . . . .   o o . . . . . . . o . + # , r q ; # . . ",
". o % . . . O . . o > o . . $ & $ O . . . . o . ; -   . . . .   . . . . . . . . o . .   . . o o $ . . @ # * , - $ . . . ",
". . . . o o . . . o $ . . . . o o $ o . . . . . a a o . . .   . . . . . o . . . . o . .     o $ $ . . . # # - $ . . . . ",
". . . . O & o . o o o O . . . . o o . .   . . . a a o o . . .       . . o . . . . . . . . . o & $ . . # . # % $ . . o $ ",
"o . . . & > O . . . & & O o o o . o   . . . . . 2 4 o o . . . .   . . . . . . . . o .     . o & # . . # + # $ o . . $ 4 ",
"o o . . & > O . . . O & O . o o . . . ; ; . . . o $ o o . . . o o o o o . . . . . o o . .   o o # # # # # . o . . . $ 4 ",
". o o O $ % . . . . . O . . . . X . $ p a . . . . . . . . . . # - - * # o o o .   o o o     . . O $ * @ * + . . $ $ X $ ",
". . O O o . . . X . . . . . . . . . O u v O . . . .   . . . # 2 2 2 - * # o . . o o O o o o O O % = 1 ; % @ + . $ $ X X ",
". . . . . . . O O X . . . .   . . . . > 9 > . . . .   . . o 4 r s 2 - # $ o . . O O % & o o O & = : 6 1 1 - # . @ + . . ",
". . . . . . . O O . . . . . . . . . . O > > . . . . . . o : i v v 2 - # $ o 2 2 o o & O o $ % ; : t x y 6 ; $ . . . . . ",
". X . . o . . . .   . X X . . . . . . . O O . . o .   o & r v V v 0 2 # $ * B a o o O o . $ = ; 5 c _ S t , @ . . . X . ",
". . . O . . . . . . . . .   . . . .   . . . . .   o . $ 6 f A T B v 3 - # * B a   o   o . O * 4 p _ 4.] a 1 * . . . . @ ",
". . X . . . . . . . . . . . . . . . . .   . . .   o o - e d P *.@.C r - o o 4 2 o   . . . . O 5 S ,.f.4.N 6 *   . X X X ",
". X O O . .   . . . . . . . .   . . . . . . . . o o o - r i T q.9.T a 2 $ . . .   o ; = . . o 4 D 5.h.0.H q - + @ . X X ",
". . . . . . . . . . . . .   . . . . . .   . o O o . o & 6 f | a.i.` a 2 $ # .   . o i 8 o o o ; x *.p.5.A e , @ $ . . X ",
". . . . . . . . . . . . . . . . . . O . . . o O . . o * 2 i | p.w./ f 3 * $ . . . o p e o . . % y _ 1.$.V w - * % X . . ",
"O X . . . X X X O X . . .   . . o & 5 $ . . . . . . . * 7 v W =.>.I i 3 - # o o o . ; ; o . o $ 7 C _ Y h 1 * @ * X . . ",
"O . . . . . X O % O . . . . . . . 2 8 % . .   . . . . $ 5 v P *.O.A i 2 - # o $ o . o o . o o o 7 l D c s 1 @ @ % @ + . "
};
