/* XPM */
static char *result[] = {
/* columns rows colors chars-per-pixel */
"122 60 179 2 ",
"   c #070A06",
".  c #080A07",
"X  c #0C0D0B",
"o  c #100F0E",
"O  c #0F100E",
"+  c #11100F",
"@  c #0E0F10",
"#  c #100F10",
"$  c #0F1011",
"%  c #131313",
"&  c #181616",
"*  c #171817",
"=  c #191817",
"-  c #16161A",
";  c #191719",
":  c #17181C",
">  c #1B1A1C",
",  c #211D1D",
"<  c #171921",
"1  c #1C1C23",
"2  c #1E1F29",
"3  c #211E23",
"4  c #211F28",
"5  c #1F2027",
"6  c #1F2029",
"7  c #232225",
"8  c #2B2526",
"9  c #24232B",
"0  c #2A262C",
"q  c #2B2A2D",
"w  c #31292B",
"e  c #262632",
"r  c #282731",
"t  c #272834",
"y  c #2C2A34",
"u  c #2D2D3A",
"i  c #322D35",
"p  c #302F3B",
"a  c #2F303D",
"s  c #333235",
"d  c #393334",
"f  c #33323C",
"g  c #3A353C",
"h  c #3C383A",
"j  c #41373D",
"k  c #433D3F",
"l  c #2E2F40",
"z  c #2F3041",
"x  c #343443",
"c  c #393643",
"v  c #3B3944",
"b  c #363749",
"n  c #383748",
"m  c #37384B",
"M  c #3B3B4B",
"N  c #3C3D51",
"B  c #413B44",
"V  c #413E4B",
"C  c #3E4055",
"Z  c #3F4259",
"A  c #43424C",
"S  c #4B454C",
"D  c #444354",
"F  c #4A4553",
"G  c #4C4A54",
"H  c #44455B",
"J  c #494759",
"K  c #46485F",
"L  c #4B4A5B",
"P  c #524D55",
"I  c #534E5B",
"U  c #53525C",
"Y  c #59555D",
"T  c #5A585F",
"R  c #474961",
"E  c #4A4C64",
"W  c #4C4F68",
"Q  c #504E61",
"!  c #4E516A",
"~  c #545364",
"^  c #595865",
"/  c #54556B",
"(  c #5A5A6C",
")  c #535671",
"_  c #555973",
"`  c #5C5C72",
"'  c #565A78",
"]  c #595D79",
"[  c #605F66",
"{  c #5F606E",
"}  c #5D617D",
"|  c #64626C",
" . c #6A606B",
".. c #636274",
"X. c #686870",
"o. c #65657B",
"O. c #69677C",
"+. c #67687D",
"@. c #6B6A7D",
"#. c #726C7C",
"$. c #70717C",
"%. c #5D6282",
"&. c #616683",
"*. c #646986",
"=. c #6A6C84",
"-. c #656B8A",
";. c #6A6E8A",
":. c #716F84",
">. c #6F7086",
",. c #6C718D",
"<. c #737283",
"1. c #7E7A85",
"2. c #74748D",
"3. c #6D7594",
"4. c #6E7698",
"5. c #737591",
"6. c #737996",
"7. c #7B7C94",
"8. c #747B9B",
"9. c #7B7E98",
"0. c #767FA2",
"q. c #857B81",
"w. c #887C82",
"e. c #827D8C",
"r. c #7D8095",
"t. c #7E829B",
"y. c #7C84A3",
"u. c #7A85A8",
"i. c #7C89AE",
"p. c #838294",
"a. c #86879D",
"s. c #8186A2",
"d. c #848AA5",
"f. c #8A8DA6",
"g. c #858EAE",
"h. c #8C8FAA",
"j. c #9293A6",
"k. c #9996A7",
"l. c #9395AC",
"z. c #9A9AAE",
"x. c #848FB3",
"c. c #8690B2",
"v. c #8C93B2",
"b. c #8794B9",
"n. c #8B96B9",
"m. c #9197B7",
"M. c #949AB7",
"N. c #9B9DB3",
"B. c #949CBB",
"V. c #9DA0B5",
"C. c #97A1BF",
"Z. c #9CA2BC",
"A. c #A3A6BB",
"S. c #A6A7BB",
"D. c #939DC0",
"F. c #9FA7C0",
"G. c #9CA9CA",
"H. c #A0A7C1",
"J. c #A3A9C4",
"K. c #AAACC1",
"L. c #A2ACCB",
"P. c #ACB2CD",
"I. c #B5B7C8",
"U. c #BCBDCB",
"Y. c #AAB4D2",
"T. c #B2BBD7",
"R. c #BBC2DA",
"E. c #BCC7E0",
"W. c #C4C8DB",
"Q. c #CACDDB",
"!. c #C5CCE0",
"~. c #CDD2E3",
"^. c #CDD4EA",
"/. c #D3D7E6",
"(. c #D6DBEA",
"). c #DADFED",
"_. c #DFE3EF",
"`. c #DAE0F0",
"'. c #E5E9F4",
/* pixels */
". . X X . . . . . . # % X . . . . . . . . X . X o o X . . . . . . # < , # . . . . X . . X . X . . . . X X X . . . X # # 3 , o o = = X . . X . o & & ; & # X o o o o o o . . . . . . X o o o # ; ; < 3 3 3 3 4 3 , # # # # X . X . # . . # . X # & , ",
". X X X X . . X . # # # X X . X X . X . . . . o o o X . . . X . . # > < # . . . . . . X X X . X X . . X . X . # X X # # , ; o . % * o . . . . X # & & & % o o X o o o o o . . X . X . # # # # & 3 3 4 4 r 8 4 3 ; & # # # X X X X X X X X X . # # ; ",
"X X X X X X X X . X # % X X X X X X . X X . o o & # o . . o . . . o , ; @ . . X X .   X X X X . . X X X X . X X . . # # # o X X X X X X X X X X # & # # # X o o o o X X o X o . X X o # & ; , 3 4 u c B n p 4 3 ; & # o X X X X X o # X X . # . # # ",
"@ X X o X X X X # X # # X X X @ X X X X . X . o & # o X . X X X X # & & @ X X # * % O X @ X X X # X X X X . X X X X # . o o . . . X X X X . . o # # - # o o # o o o X X X o X X X X # % ; 3 y c c V ( o.( V p 3 , & # o X X X # # # X X X X . # . . ",
"# X X X X X o X X X X X @ X X X X X X X X X X X o o X X . X X X o # # # X X # 1 q 9 * . X X X X X # X X X # X X X . X o # o o . X X X X X X O . o o # # X % o o # X X o X X X X X # - > 4 f Q ( Q ` j.N.e.` v 0 3 ; # X X # X X X # X X X X X X # # ",
"# X X . X X . X . X X X @ X X X X X X X X . X X o X X . X X . o o o X X X X # < q 8 % X X X X X # X X X X X X X X X . X & & o o X X X X X O . O X o X @ @ X o o o o o X X X X . X # - > 4 v o.;.( O.l.V.9.` v 4 3 3 # # X X X X @ X X X X @ X X # . ",
"o X X X X . X . . X # # # # @ X X X X X X X X X o o X X X X . X . X X X X o # # + % O X . X X X . . # X X X X . . X X X o o , , + X X O X X O X o o X X X % X o # # . o X . . X X % ; : 7 v o.2.` ` =.:./ V p 3 3 & # # o X X X X # X X @ X X @ # X ",
"X X X X X X X X X # # # X X # X X X X X X X O O o o X X X X X X X X X X X # X # X X X . X X o + X # # # X X X X X X X o . o & & O X X X X X . X o # @ @ # X X X o o o X X o . X X # - > 3 x ^ ..Q V J V v p 0 1 3 # # # X X o X X @ X X X @ X o X # ",
"X X X . X X X O # # % # # + X X X X X X X O O + + X X X + X X X . X X X X X X X @ X X X X X % + X X % + O X X X o X X X . X o o X X X X X X X X X O X O X X X X X o X X X O X X X @ % > < 0 v V c c c c y r 4 3 ; # # # X X o o X X X X X # o X X @ ",
"X X X X X X X $ % 1 r y y 7 * X X X X X O O + O X X X X X X X X o X # X . X @ @ # # X X X $ + + X O % % X   X X o X X o o X X X X X X X + X X X X X $ $ X X X X . o # # O O X X X % % - > 1 y y 0 r p y 0 3 3 > ; # # X # # # o o o X X X o X o X X ",
"X X X $ @ $ @ $ ; y I ..` D 7 X   X X X % % O X X X X X X X X X X # X X X X X @ X X X X @ X # X X X % % X   X X . X X X X X X X X . X + & & + X X X X X X X O X o o , & % X X X @ % - - > > 9 r 4 0 w r 3 < > = # # # # # % o o # X @ X X @ X X X X ",
"$ $ $ X $ X X # ; g o.e.5.( 0 X X X X X % % O X X + & = X X X X X X X X X X X X X X X @ X @ X X + + % + X O % % X . X X X X X X X X . + & % + . X X O X X O X X o # & & $ X $ $ # % - > ; > 4 0 4 4 4 3 < > = % # # # # % % # # # # # X @ X o o X @ ",
"* * % $ # X X @ & g o.7.<.~ 0 O X X X X X X X X X + , , + X + + X . X . X X X X o X # X @ X X $ = = * O O % 7 5 + X X X X X X X X . X . O O X X X X X X X X X O o o % # % $ - - : : < < > < 4 4 3 3 3 3 ; % % % % % o o o o % % % % % # X X % o # o ",
"* * % $ # X X @ % w Y ..^ C 7 $ X X X X X X X X X & 7 8 & X + + X X X . X X X X X o # X X X X # = = O X % 7 C h , . . . X X X + O + + * O X . X . X X X X X X $ # # # % - : : 1 1 1 1 1 1 1 4 4 3 > < > = % # % % % # # o % & = ; > ; - % % % % % # ",
"% $ O O X X X o & 3 g g y 2 * X X X X O & + X X X + = * O X X X X X X X X X X @ X X X @ X X X X O O O O % f | { q X . X X X X X X % 8 7 % X X . . X X X X X X O # # - : 1 7 9 e 4 4 9 2 2 2 1 1 > > > - ; = & # % % # # & , , 3 4 3 1 ; ; % % o # # ",
"X X X X X o ; 3 0 w 8 8 ; % @ X X X X X & + O X X X + + X X X + # # X X . X X X @ X X . . . X X X X X O - s { ^ q + . X X X X X O * 8 8 % X X X X O O O X X X X @ % - 1 9 e y t t t t e e 9 4 4 1 1 < > ; 3 0 0 , & & , , 3 i i i 0 3 1 1 > % % @ X ",
"X X X X o = w j P P d 4 , & # X . . X @ # # X X   X + + X X X + % % X X X X X X O X X X . . . X X X X X $ : 0 9 * O X   X X X O O $ * * O X X X X + * * O X X O X % > 2 e u t u u l u l z a u t r e r 0 1 y P G y > 3 w i B I I V p y 0 3 > ; % % @ ",
"X $ + % > q S [ w.1.I j 3 & # X X X X X X @ X X X X O O X X X O * % O X X   X X O O X X X X X . X X X X . X O X O . X $ * > O X X X O X O X O O % % = % + O X X @ # - 1 e t l l z z m N C M b b b n n x e p I I i 9 i c I  .e.e.[ A p 0 4 3 > ; % # ",
"% % : 7 i S #.k.U.I.e.~ i ; o X . X X X . X X X X X X X X X + O O O   X   X X X X X O X X X X @ O O X X X . . . . X . * s s * X X $ X X O % = * + X o o % % O O X @ - 1 e u a x m N H E ! E Z Z R R K V x p c f y y f L @.l.U.I.a.( B y 3 3 > ; % # ",
"X % : 9 i I e.K./.~.l.` g 3 # # # X X . X X X X X X X X + + X X X . $ X X X X X X X X X O $ @ # % * + O X X X X O . X * h s > X X $ X X + + = * + X X X % % O O @ % - 1 e u x b N Z ) } -.&._ ) ] ] / E N x y y r p v ~ <.N.~.Q.j.` V u 0 4 3 > * % ",
"X X % - 8 V <.S./.W.a.( c 0 : * % X X X X X X . X X X X X O O X X % = = O . X $ $ $ X $ @ - - : > > * - $ O @ @ O O X $ > 1 * O O X X X . O O O X X . O O + O O # - ; 1 t a z m Z W %.y.g.g.8.3.4.-.] W R N u t y u x H ( t.P.P.7.~ V p r 3 3 3 ; - ",
"X . X @ ; i ^ e.S.S.$.G f 9 > * # X X X X o # # + O X X X X X X X % , , $ X @ $ $ $ $ $ - : < < 5 5 1 * - $ @ @ O X X X O O O O O O X X O   O O X . X X O O . O # % > < 6 u z m Z ) 3.b.P.Y.C.c.u.4.%.) W H b u u u f M K o.f.d...D c u 0 9 3 > - - ",
"X X X X # 1 f I @.@.G i 7 - - O # X X X X o , , , = X X X X X   . O * % $ X @ $ - - : - < 2 2 e e 9 5 < - $ @ @ X X   X X O O O . O O O O O O O X X X O O . O O X @ - : 5 6 z m Z _ 8.Z.~.`.R.G.x.0.-.] W H m x u u f b M L ` ( D x u 0 4 3 > ; % % ",
"X   X X @ % > 0 M M y 2 * % O X X @ X X . o & , = * O X X X X   .   O O @ @ $ $ - < < 2 e t t t a t 9 6 : - - @ O X X   X   O X O . X O $ % O O X . . X O O . . X X @ - 1 9 z m Z ) 6.Z.^.`.E.G.x.4.-.] ! H N x x u f x c b M n p i p i 4 > ; % % @ ",
"X . O O O O O - 5 5 : - = * + X X @ X X X X + + + + X X X X X X X   O O O $ $ < < 2 e u b v b x x l t 2 < : : : * O X X   X X X X X X O $ $ O O X X   X O     X X X $ - : 9 z m N W %.y.P.R.G.b.u.4.%.' ) R m x z l p p u p p p r i V B 0 - % % @ @ ",
"X X O O O . O O O $ O O * * O X X X X . X X X X + + + + O X X     O $ % $ % : < 2 e t z D H H N N m l t 6 1 1 : * O X   X X X X X X   X O $ O O X * s s * X O X X X X % > 0 a x N R ) -.c.D.b.i.0.3.%._ ! V m l l u u y y e 0 4 4 y v v 7 - - # @ X ",
"+ O . . . O O + O O X X O O O . . X X . X X + + & = , , + O X . X + , 7 1 1 5 5 6 e u b D E / ! E Z N x u 6 5 * % $ X X X X X X X X X X O O O   X s $.$.s O X X O O X $ : 6 t z b N W ] 4.y.u.u.y.3.%.W R N z t e 9 9 e 0 4 1 1 1 2 7 7 1 * % O X @ ",
"+ + O . X X + + O O X . . O . O X . X X X X + + & = , = + X X X % * , 7 6 1 1 6 e u z C W } ;.,.} _ ! K m u 5 : % $ X X O O X X X   X         O X s $.<.s O X X X X X O - 1 6 u x N R ) } -.4.6.4.-.) R V n t 2 4 1 4 3 1 1 : - - - * - % % % O X X ",
"O X X X X X O O . X . X . X . . X . . X X X X X X X + + O X X + > 3 < < < 1 1 6 e u N ! -.s.B.M.y.,.=.] K b e 5 : $ X X X   X X   X X O   O   O X < v v 5 X   X X X X $ $ : 6 e u b V R ) ] } %.%.} E C b a 0 1 < ; < < > - % % % % % # % @ + X @ X ",
"X X X X X X X O O . . X X O O . X X X . X X X X X X   X X   . + = > : $ : : 1 6 t b H } d.J.R.R.C.g.s.5.{ C a 5 < % $ X X X O O O X X   O O     X X * * X X X X . . X X $ : 5 9 t u N R / ] / / / E N x a y 2 : % % # - # # @ # % # # % @ X % % @ X ",
"X X X X X X X X . . X X X X O O X X X X X X X . X   X X X   X O + % @ @ @ - < 6 u C ( 5.F.!.'._.R.L.B.d.>.U C 6 5 : * $ X X * * O     O O   O   O     O X X . X . O X X @ % : 5 9 t x L O.o.E D H D a t 9 2 : % # @ @ # # % # @ X o X X X % 3 7 % X ",
"X X X X X X X X O . X X O O . O X X X X X X X X X X X   X X X .   O X X X $ < e a D _ 8.L.~.'.'.E.L.B.d.>.U C t 5 < < * O * * * $ X X   O O   O   O     . . X X   O @ X X % : 1 2 9 x G ` ` H b m b t 6 < : % $ @ X @ # # # # # # @ # # # % 7 , % X ",
"X O   O X X X X X X X X O + X X X X X X X X X X X X X X X X X   O . X X X $ < 6 f V ) ;.v.T.^.^.Y.n.0.;._ K M p r 4 3 < - # - % $ $ X   X X   X X     X O O . X X + + X O & 8 8 1 4 p M D D v x a t 9 1 - $ @ $ X X $ $ + X + % % # @ @ % % * * * % ",
"s q * X X X X X X X X X O + X X X X X X X   X X X X X + X X X X X . . X X $ - 6 t m R ] 6.m.P.Y.n.0.-._ R N n p 0 4 < < - % - # $ $ $ X X X X X X X X > d d , + + + + X O + 7 , - 1 y p p u u y 9 5 < : $ X X X X X O $ % % % % - % % % % % X $ + % ",
"1.[ 8   X X X X X X X X X O X X X X O X X X X X X X X + + + X X . . X X X $ $ : 2 t m E } 5.s.s.6.*._ R N x l e < < : : - ; - # $ X X X X X X X X $ % h q.w.k * + X O + O + + + % * 2 9 9 9 9 2 : - $ $ $ X X X o X X $ % - > > : - % # # # @ X X # ",
"r.X.8 X + * X X X X   X X X X X X X O O X X X     X + + + = O O O   X   X X $ $ : 9 t m R ) ] } ] ! R N x u e 2 1 > - - < < : - $ X $ O $ X $ X $ $ % h q.q.k * O X X + O + X + > > : 1 > 1 : - - $ $ X X O X X X @ @ % % - 1 > 1 < : % @ @ X X X X ",
"S h = O = = + X   X X X X X X X X X + + O X X X X X X X + * + + + X X .   X   $ $ : 2 e x N H H V V b l l e 2 2 6 1 : : 2 1 > - X   O % O X O O X X $ : s s > O X X X X X X X % q w > % % * = = O X X X X X X . X + % % : : 5 9 4 4 > - % X @ @ X X ",
", = + = s d = X X X O X X X X + + + + + O X X O X X X X O O + + O X X X X X % % # # - < e u l x z b l e e 2 2 2 9 1 - : 1 1 - % * * % O X O X X X X X     O X X X X X X X X X & q q = X X + % + X X X X . X O * 1 > - - 1 0 f M M f 9 > - * $ X @ X ",
"+ O O 8 P P 8 X X O * = + X o & , = * + O X O X X X X X X X X X X X .     * q 8 & . @ % < 4 e e e e e e 2 2 2 < 1 < : $ $ % @ - q q * X X X X X X X X   X X X X X X X X + + X + = * o X X X X X X X X X X + = q v g 7 : 7 x ^ =.O.~ p 4 > : % X X X ",
"O O O q | | w X X X = * X X o + = = * O X X X X X X X X X X X X X X X . X * 8 8 % . . X - > 1 < 2 2 1 1 < < < - - - $ @ X X . - q 7 * X   X X   X   X X O   O X X X X X + + X . . X X X X X X   X X X X + + > q v c 7 1 9 M *.9.5...v 7 2 1 $ @ X X ",
"O X X w { | q O X X + X X X o o + + X X X X X X X X X X O O X X X X   X + = = + X X   O % * - : : : 1 : : - - $ @ X O X . X   $ * * O   X X X X X . X O O O O . X O X O O X X X . . O X X X X X X X . O $ $ % > 5 4 > : 2 x { >.=./ c 7 1 * @ X o X ",
"  X X 7 P P 8 O X X X X X X o o O O X O * + X X   X X X O + % % X X X X + + X X X X X X % * * % - - - - $ $ X X X X . . X   X .   X X O X X X X O   O . X . O X X X + + O . X . X X X X . X . X X X X O $ $ O O $ $ % - : y D / Q D y 2 - % X X X X ",
"X X X * q s * X X X X X + + + + X   X * 8 8 + X X   X X X % , , = + O O + + X X X .   X % % + O $ X O O O X O X X X X X   X X X   X O O X X X X . O X O O . O   X X + % X X X . . X X X X X X X X X O O O O X X $ $ $ - * 1 u f y 0 1 - @ @ X X X X ",
"X X X X * * O   + + X X + + + + X X X + 7 8 + X X . X . X + , , = + % + + O X X X X X X + + O X . - 7 9 $ . . . X . . . X X X X X   X O X     X X O O O   O O . X X O O O X X X O . X X X X X O $ $ O O X O . O $ $ $ $ - - 1 2 ; % $ @ X X X X X X ",
"X X X X O O X X + + + X X X X X X X   O + + O   X . X X X X + + X + + = + X X X X   X X O X X   X 9 T Y 7 . O . O   O         X X   X X X   X   O O O X . O . O X X O X O O O X . X O . . O X % * * $ X O X X O X $ $ $ O - : : * + X X X X X X X o ",
"X X X O X X X X + + = % + X X X X O O O O O + + o o X X X o X X X X * + X X   X X X X X X X X X X 9 T T 9 X O O O O   X X X   X X         X   X O O O O O O O   . . X X O X X X O . . O . X X * = * % X X O X X $ X @ X O % - - % + X X X . X O % = ",
"X X O O X   X X + = 8 8 * X X X X X O   O + , , & + o o o o o o X X O X X   X X X X X X X X X X X * q q * O + O O O X     X X X X X     X   . X O O X . . O O . X X X O X X X X . X . . . O O % % % O X X O X O $ $ X X X $ $ % X X X X X X X - 7 8 ",
"X O O O X X X X + = 8 8 % X X O   O O O O + * , & + X o o + o o O X X X X X O = 8 , O   X X X   X O % + O O % O O O X X X X X X $ $ $ $ $ $ $ X O O X X O O . O X X X X O O O X O . X . O X O + o o $ $ $ O $ $ $ $ $ $ X O $ @ X X X + O X X - 7 8 ",
"X X + O X X + + + + = = + X X X X X X X X X + o + X X o X X o X . O O   O O * s U S , X . X X . X . O X O X X O O O O . X X X O - - : : < : $ - $ $ $ @ O O . . X X X X O O O O X X X . X . o o X X % % % % - ; - % % # @ @ @ X X # % % % % o o * * ",
"X X O O X X + & + X X X X X X X + + X X X X X o X X . X X X X X O O O O   O 5 s U P 8 + X X . X X X X X .   . . X . . O O + - : 2 9 6 4 1 1 - - $ $ $ $ O O O . . X X + O O $ % X X X X X . o o o % - - ; ; 1 1 < - ; & # @ @ X X # % % % % o X X X ",
"+ X X X X X X o + + X . X X o + % + X X X X X X X . X X X X X X . O . . O O % , q s d 8 & . X X X O X X O   . X X X . O % 5 t a u z p u 1 - - - @ @ - $ O . O . X X + + O O , 1 % X X % % % o % = = = = 3 3 0 4 4 4 3 3 : $ @ @ X X X o o X X X X X ",
"X X X X X X X X X X X X X X X + + + X . X X X X X X X X X X X X O . O O . . X + $ > w 8 & . X X X X X X . X . X X + + * 5 u m M M M n p 2 : - $ $ @ - % O * q s = X + + O % , > % X o % % % & ; , , , 3 w g V B i w w 4 1 - $ @ X X X X o o X o X X ",
"X X X X X X X o X X X X X X X X X o X X X X X X X o X X X X X X . X O X X X . . O + * * X X X X X X O X X . X X + % > e g C F J V V V p e 1 < < $ @ - @ @ u X.X.w O X O O O % $ o X X o % % > > , , 4 i B I #.O.I B i 0 2 > $ @ @ X X X o X X X X X ",
"X X o X X o + X + X X o X X X X X X X X . X o X + X X X X X X X O X X O X . X X   . X . X X X X X X X X X X X X = 5 t f C D ~ ( ` / L V p t 9 < - $ $ $ % q X.X.s . X . X X X . X . X X X % - > 3 4 i V [ e.N.z.<.I B y 9 : - @ X X X X X X # o O + ",
"o X X X o o + + o X . X . o X . X X X X o . X X . X X X X X X X X . X X X X X O O . . O X X X X X   X O X X X * 7 u u a x D ` ,.d.a.=./ V n t 2 : % # @ X > q 9 * X X X X . . X X X X X X X # = 3 i V  .e.K.~.Q.N.:.G f e 6 - @ X X X X o X X # % % ",
"X X X + o o + + X X o . o . X X . X X o . o . X X X X X X . . X X X X     X O O X X . . X X X X X X O X + X o * 9 u u f x L >.h.P.P.d.=.Q M u 0 < % % # X X       . X X O % > > * O X X X o X % 3 j P O.h.T.).(.K.e.Q b y 6 : $ X o # # @ o o # o + ",
"X X X X X X X X . X . X o o . X o o . o X X X X o X X X X . X O X X .   X X X X X X X X X X % % O X X X @ X @ - 1 9 e u V ( 9.H././.A.6.^ V p r 5 - * $ O X     . X X X X , C S y ; O X X X X % , 0 B ~ 5.N.R.R.B.5.! n p r 3 ; % % & % o o X # X X ",
"o X X X + X o X X X X X X X X o o X X + X X X o o X X X X O . . X X X o % % + X X X   X X + % % O O X X X . @ % : 5 9 f D ( 7.Z.Q.Q.V.5.^ M p r 5 : * $ O X X X O O X     , k A 0 - % X X X X + & 3 i V ` 7.k.m.e.o.V x y 4 1 % % % & & # . X X X X ",
"+ + X X o X X X o X o X o X X o o & + o X X X X X X X . X . . O . X X & 0 q , + + + . X . X X X X X X X . X @ @ : 9 y g V Q o.p.z.z.7.{ L v p 0 5 : : * O O X O % % X X X O 7 7 - @ # o X X . X # > 0 c V ^ ..../ J n l e 1 % # o % = & o X X X X X ",
"+ + o X X X X X X X X o + X X o o & & o X . . X X X X X X X O . . X X , a s 7 & + X O X X X X X X X X . . X X @ 1 9 u c B J ` ;.t.r.+.! F c y 9 5 < : * $ X O O % * O X   X O X X X X # X X X X # ; 4 p B V L L V N z t 2 < % @ o o & = # X o X o o "
};
