/* XPM */
static char *result[] = {
/* columns rows colors chars-per-pixel */
"60 60 232 2 ",
"   c #162A7F",
".  c #253E7B",
"X  c #17358F",
"o  c #0C549B",
"O  c #16559D",
"+  c #1F4E9C",
"@  c #295D98",
"#  c #175EA7",
"$  c #2254A6",
"%  c #1F68AD",
"&  c #1764A9",
"*  c #196DB1",
"=  c #157BBA",
"-  c #1B7EBD",
";  c #1A75B4",
":  c #0E6EB0",
">  c #2365A6",
",  c #366BA5",
"<  c #2B76A8",
"1  c #237BB5",
"2  c #247DBC",
"3  c #2678B6",
"4  c #337EB8",
"5  c #306DAD",
"6  c #537EAF",
"7  c #167CC5",
"8  c #337EC1",
"9  c #1C84BE",
"0  c #1585BE",
"q  c #2484BD",
"w  c #238CBF",
"e  c #3484B9",
"r  c #3B94BE",
"t  c #4A87BB",
"y  c #5887B9",
"u  c #41A0BF",
"i  c #1A8EC6",
"p  c #1E87CA",
"a  c #1B99CD",
"s  c #1C98D3",
"d  c #198DD2",
"f  c #258CC3",
"g  c #228ECA",
"h  c #2887C3",
"j  c #328BC4",
"k  c #3A8ACA",
"l  c #2C92C5",
"z  c #2394CA",
"x  c #2B94CB",
"c  c #2C9ACC",
"v  c #2194C9",
"b  c #3593C5",
"n  c #3294CA",
"m  c #3B94C9",
"M  c #339BCD",
"N  c #3B9CCD",
"B  c #3A98C5",
"V  c #2989D8",
"C  c #279AD4",
"Z  c #3192D2",
"A  c #339DD1",
"S  c #399AD5",
"D  c #19A5D8",
"F  c #35A1CD",
"G  c #38A2C7",
"H  c #23A3D6",
"J  c #23A4DB",
"K  c #2BA4DB",
"L  c #24A9DC",
"P  c #2CADDA",
"I  c #33A1D3",
"U  c #3CA4D4",
"Y  c #34AAD6",
"T  c #3EABD3",
"R  c #33A5DE",
"E  c #3DAADA",
"W  c #35A9D8",
"Q  c #3CB1DC",
"!  c #35B6DD",
"~  c #2EAAD6",
"^  c #1A94E2",
"/  c #2798E2",
"(  c #1FA5EA",
")  c #2BAEE2",
"_  c #27A9E4",
"`  c #34A9E9",
"'  c #2AB4E2",
"]  c #2BBBE5",
"[  c #2ABAE7",
"{  c #33B4E3",
"}  c #3CBCE4",
"|  c #37B8E3",
" . c #448CC4",
".. c #468DC9",
"X. c #429ACC",
"o. c #4898C9",
"O. c #559CCC",
"+. c #459FD1",
"@. c #549DD5",
"#. c #6198C4",
"$. c #45A4CC",
"%. c #4BA3CD",
"&. c #59A5CB",
"*. c #43A5D3",
"=. c #4BA2D2",
"-. c #45ABD4",
";. c #4AABD8",
":. c #53ABD5",
">. c #58A8D7",
",. c #43B3DD",
"<. c #4DB3DC",
"1. c #4BB7D7",
"2. c #52B3DC",
"3. c #5CB2DC",
"4. c #53BCDD",
"5. c #5AB6D9",
"6. c #6CA4C8",
"7. c #64ACD6",
"8. c #63BADE",
"9. c #66B5D9",
"0. c #77B9DD",
"q. c #78B4D7",
"w. c #79ADD0",
"e. c #4EAEE9",
"r. c #44BAE4",
"t. c #48B9E7",
"y. c #5BB5E3",
"u. c #53BDE3",
"i. c #54B8E7",
"p. c #69BCE5",
"a. c #74BBE5",
"s. c #69BBF1",
"d. c #3DC3EB",
"f. c #36C4EA",
"g. c #3ACEF5",
"h. c #5EC1DE",
"j. c #6DC3DC",
"k. c #4CC3EA",
"l. c #47C9EB",
"z. c #54C3E5",
"x. c #5AC3E4",
"c. c #52CBEE",
"v. c #5FC9EB",
"b. c #56C5ED",
"n. c #4BD3EE",
"m. c #57D4ED",
"M. c #5BCCF2",
"N. c #54CCF1",
"B. c #48D8F6",
"V. c #54D7F3",
"C. c #64C2E4",
"Z. c #64C5EB",
"A. c #6CC3EB",
"S. c #6ACAEC",
"D. c #69C8E7",
"F. c #73C5EA",
"G. c #79C4EA",
"H. c #74CBED",
"J. c #76C6E7",
"K. c #63D5EE",
"L. c #7AD2EC",
"P. c #68C8F0",
"I. c #74CDF0",
"U. c #62D5F2",
"Y. c #6AD6F4",
"T. c #74D3F3",
"R. c #7BD4F4",
"E. c #73DAF4",
"W. c #7CDAF6",
"Q. c #79DAF8",
"!. c #47E1FD",
"~. c #58E5FD",
"^. c #66E4FB",
"/. c #78E4F8",
"(. c #84BDDE",
"). c #8ABEDD",
"_. c #84B4D2",
"`. c #85BFE5",
"'. c #87C1DF",
"]. c #8BC4E3",
"[. c #82CDED",
"{. c #88C8E7",
"}. c #94CBE5",
"|. c #99CBE6",
" X c #92CCEB",
".X c #97CBE8",
"XX c #87D2EA",
"oX c #99D2ED",
"OX c #89CBF4",
"+X c #83D5F2",
"@X c #8DD4F1",
"#X c #8CDBF5",
"$X c #84DDF8",
"%X c #85DBF5",
"&X c #92D6F2",
"*X c #9CD5F1",
"=X c #94DCF4",
"-X c #9ADCF4",
";X c #91DAF8",
":X c #A3D3EE",
">X c #AAD6EE",
",X c #A2DBF3",
"<X c #A9DCF3",
"1X c #A4D5F0",
"2X c #B3DCF2",
"3X c #BADDF1",
"4X c #B0D7EF",
"5X c #8DE2F9",
"6X c #85E4F8",
"7X c #94E2F5",
"8X c #9CE5FA",
"9X c #9CEAFA",
"0X c #97E6F9",
"qX c #A3E2F6",
"wX c #ACE3F6",
"eX c #A6E6F9",
"rX c #B2E3F5",
"tX c #BAE3F4",
"yX c #B3E6F8",
"uX c #B1E8F9",
"iX c #BDEBFA",
"pX c #BCF0FC",
"aX c #C6E8F6",
"sX c #C3EBF9",
"dX c #C8E8F6",
"fX c #D5EEF9",
"gX c #C8F1FC",
"hX c #DBF4FC",
"jX c #D7F5FD",
"kX c #EBF9FD",
"lX c #FDFFFF",
"zX c None",
/* pixels */
"zXzXzXzXzXzXzXzXzXzXzXzXzXzXzXzXzXzXzXzXzXzXzXzXzXzXzXzXzXzXzXzXzXzXzXzXzXzXzXzXzXzXzXzXzXzXzXzXzXzXzXzXzXzXzXzXzXzXzXzX",
"zXzXzXzXzXzXzXzXzXzXzXzXzXzXzXzXzXzXzXzXzXzXzXzXzXzXzXzXzXzXzXzXzXzXzXzXzXzXzXzXzXzXzXzXzXzXzXzXzXzXzXzXzXzXzXzXzXzXzXzX",
"zXzXzXzXzXzXzXzXzXzXzXzXzXzXzXzXzXzXzXzXzXzXzXzXzXzXzXzXzXzXzXzXzXzXzXzXzXzXzXzXzXzXzXzXzXzXzXzXzXzXzXzXzXzXzXzXzXzXzXzX",
"zXzXzXzXzXzXzXzXzXzXzXzXzXzXzXzXzXzXzXzXzXzXzXzXzXzXzXzXzXzXzXzXzXzXzXzXzXzXzXzXzXzXzXzXzXzXzXzXzXzXzXzXzXzXzXzXzXzXzXzX",
"zXzXzXzXzXzXzXzXzXzXzXzXzXzXzXzXzXzXzXzXzXzXzXzXzXzXzXzXzXzXzXzXzXzXzXzXzXzXzXzXzXzXzXzXzXzXzXzXzXzXzXzXzXzXzXzXzXzXzXzX",
"zXzXzXzXzXzXzXzXzXzXzXzXzXzXzXzXzXzXzXzXzXzXzXzXzXzXzXzXzXzXzXzXzXzXzXzXzXzXzXzXzXzXzXzXzXzXzXzXzXzXzXzXzXzXzXzXzXzXzXzX",
"zXzXzXzXzXzXzXzXzXzXzXzXzXzXzXzXzXzXzXzXzXzXzXzXzXzXzXzXzXzXzXzXzXzXzXzXzXzXzXzXzXzXzXzXzXzXzXzXzXzXzXzXzXzXzXzXzXzXzXzX",
"zXzXzXzXzXzXzXzXzXzXzXzXzXzXzXzXzXzXzXzXzXzXzXzXzXzXzXzXzXzXzXzXzXzXzXzXzXzXzXzXzXzXzXzXzXzXzXzXzXzXzXzXzXzXzXzXzXzXzXzX",
"zXzXzXzXzXzXzXzXzXzXzXzXzXzXzXzXzXzXzXzXzXzXzXzXzXzXzXzXzXzXzXzXzXzXzXzXzXzXzXzXzXzXzXzXzXzXzXzXzXzXzXzXzXzXzXzXzXzXzXzX",
"zXzXzXzXzXzXzXzXzXzXzXzXzXzXzXzXzXzXzXzXzXzXzXzXzXzXzXzXzXzXzXzXzXzXzXzXzXzXzXzXzXzXzXzXzXzXzXzXzXzXzXzXzXzXzXzXzXzXzXzX",
"zXzXzXzXzXzXzXzXzXzXzXzXzXzXzXzXzXzXzXzXzXzXzXzXzXzXzXzXzXzXzXzXzXzXzXzXzXzXzXzXzXzXzXzXzXzXzXzXzXzXzXzXzXzXzXzXzXzXzXzX",
"zXzXzXzXzXzXzXzXzXzXzXzXzXzXzXzXzXzXzXzXzXzXzXzXzX}.].).(.q.(.].].].zXzXzXzXzXzXzXzXzXzXzXzXzXzXzXzXzXzXzXzXzXzXzXzXzXzX",
"zXzXzXzXzXzXzXzXzXzXzXzXzXzXzXzXzXzXzXzXzXzX}.'.6 @ 3 l M M c x * i - 9.].zXzXzXzXzXzXzXzXzXzXzXzXzXzXzXzXzXzXzXzXzXzXzX",
"zXzXzXzXzXzXzXzXzXzXzXzXzXzXzXzXzXzXzXzX}.'.G r F l ! M U u.3.I 2 s = = O _.].zXzXzXzXzXzXzXzXzXzXzXzXzXzXzXzXzXzXzXzXzX",
"zXzXzXzXzXzXzXzXzXzXzXzXzXzXzXzXzXzXzX].h.l.} ! c M A A -.L.rXm f g 7 J - ; O y }.zXzXzXzXzXzXzXzXzXzXzXzXzXzXzXzXzXzXzX",
"zXzXzXzXzXzXzXzXzXzXzXzXzXzXzXzXzXzX{.V.n.K.m.} Y W A j E 2.p.*.S ) Z ` ` S i o > ].zXzXzXzXzXzXzXzXzXzXzXzXzXzXzXzXzXzX",
"zXzXzXzXzXzXzXzXzXzXzXzXzXzXzXzXzXXXg.7X7XT.4.n e n m t m -.=.m Q W i.s.s.e.V = D i '.zXzXzXzXzXzXzXzXzXzXzXzXzXzXzXzXzX",
"zXzXzXzXzXzXzXzXzXzXzXzXzXzXzXzXXXg.V.U.f.` } U m m m m =.<.2.;.*.,.;.`.OXOXs.S g J B. XzXzXzXzXzXzXzXzXzXzXzXzXzXzXzXzX",
"zXzXzXzXzXzXzXzXzXzXzXzXzXzXzX X!.B.K.l.{ g R Q n k X.u.+.>.@.y O.t 8.0.1XuXqXI.e./ ( d.oXzXzXzXzXzXzXzXzXzXzXzXzXzXzXzX",
"zXzXzXzXzXzXzXzXzXzXzXzXzXzX}.~.!.K.g.f.H C x U +.+.>.>.y.>.7.q.).t <.2.@XsXgXyX#Xe.` ^ a.zXzXzXzXzXzXzXzXzXzXzXzXzXzXzX",
"zXzXzXzXzXzXzXzXzXzXzXzXzXzX7X~.n.f.[ H g n k S +.>.p.+X7X7X5X-X Xy.l.p.C.=XhXjXtX[.e.V / &XzXzXzXzXzXzXzXzXzXzXzXzXzXzX",
"zXzXzXzXzXzXzXzXzXzXzXzXzX].!.V.} a J p h h S ;.9.+X=XR.+X+X#X=XeXQ.S.,.r.T.gXjXfX3XQ.t.^ s.zXzXzXzXzXzXzXzXzXzXzXzXzXzX",
"zXzXzXzXzXzXzXzXzXzXzXzXzXL.~.c.' ! ' C S S e.s.T.W.I.S.I.+XH.R.Q.#XU.b.{ r.eXqX3XdX-XM.( `  XzXzXzXzXzXzXzXzXzXzXzXzXzX",
"zXzXzXzXzXzXzXzXzXzXzXzX}.Y.B.[ f.P f.R y.t.P.T.T.S.A.I.%X+XG.#X6XQ.Y.N.M.] t.3.oX3XqXs._ l.J.zXzXzXzXzXzXzXzXzXzXzXzXzX",
"zXzXzXzXzXzXzXzXzXzXzXzX].B.n.[ _ _ ) ` t.b.R.;XQ.Z.a.[.[.;X&X&X5XT.Y.M.M.i.I t.0.oXoXA.[ E Z zXzXzXzXzXzXzXzXzXzXzXzXzX",
"zXzXzXzXzXzXzXzXzXzXzXzXG.V.' d.( C K { R P.R.R.%X[.[.*X].*X*X X;X$XT.T.8Xt.U j 7.{.{.7.l N p }.zXzXzXzXzXzXzXzXzXzXzXzX",
"zXzXzXzXzXzXzXzXzXzXzXzXP.V.d._ a z ) i.e.b.y.`.A.G.@X&X X:X1X X-XeX=X#XT.b.3.4 >.j.9.>.l N w ].zXzXzXzXzXzXzXzXzXzXzXzX",
"zXzXzXzXzXzXzXzXzXzXzXzXN.9Xc.s i a ) r.E l.>.>.a.{.dX:X,X:X<X*X-XeX<XqXqXP.y. ...O.+.-.U C.,.q.zXzXzXzXzXzXzXzXzXzXzXzX",
"zXzXzXzXzXzXzXzXzXzXzXzXM.7Xk.[ 9 v c G 2.u.y.9.G.{.<X<X2XeX1X3XqXeXyXjXkX,X0.%.%.X.U N u.%XD.w.zXzXzXzXzXzXzXzXzXzXzXzX",
"zXzXzXzXzXzXzXzXzXzXzXzXU.U.d.H z v > T 3.T.P.G.[.<X2XtX2XtX2X1X<X&XpXlXlXdXH.1.$.j A +.I.7Xv.6.zXzXzXzXzXzXzXzXzXzXzXzX",
"zXzXzXzXzXzXzXzXzXzXzXzXc.l.f.D z w > , 3.@XZ.G.@X<XaXdXdX3X4X2X,X;X0XpXpX#XT.:.U j *.H.XXeXM w.zXzXzXzXzXzXzXzXzXzXzXzX",
"zXzXzXzXzXzXzXzXzXzXzXzXx.n.n.a L c < r :.i.Y.;X,XrXdXgXtX2X3XhXeX#X5X8X0XT.+XD.Q N 4.J.W.eXZ ).zXzXzXzXzXzXzXzXzXzXzXzX",
"zXzXzXzXzXzXzXzXzXzXzXzX7.l.} ' ] ~ T ,.$.T.#XkXrX,XwXrXuXrXtXfXwX7X/.8XQ.R.G.:.+.r.C.D.5X0X= '.zXzXzXzXzXzXzXzXzXzXzXzX",
"zXzXzXzXzXzXzXzXzXzXzXzX].9 ! D ! ' } 5.h.Z.+XwX<X&X,XuXuXsXgX<X,XXXXXE.$X;XP.k.-.;.H.E.9XL.O |.zXzXzXzXzXzXzXzXzXzXzXzX",
"zXzXzXzXzXzXzXzXzXzXzXzXzXD a P D L ! l T <.S.I.[.@X=XwXwXaXsXtXoX[.W.%X;XG.Z.-.r.4.D.6XgXc.:.zXzXzXzXzXzXzXzXzXzXzXzXzX",
"zXzXzXzXzXzXzXzXzXzXzXzXzX$.D = ! ~ Y F T B ;.H.W.+X&XwXtXfXhXdXuX,X0XS.F.@.<.$.u.5.K.9XeXL ].zXzXzXzXzXzXzXzXzXzXzXzXzX",
"zXzXzXzXzXzXzXzXzXzXzXzXzXzX: = = ; c T G T 1.7.J.0X7XrXsXhXkXhXiXwX$XD.<.B 1.1.$.j.6X9XE.) zXzXzXzXzXzXzXzXzXzXzXzXzXzX",
"zXzXzXzXzXzXzXzXzXzXzXzXzXzXq : # & X . u 1.z.$.5.oX}.oX>XtXaXwX+XJ.x.4.1.-.1.z.h./.9X%XH '.zXzXzXzXzXzXzXzXzXzXzXzXzXzX",
"zXzXzXzXzXzXzXzXzXzXzXzXzXzXzXo : & $ X + G e r 5.:.9.'.}.oX}.=XL.9.u G u %.&.7.6X/.W.b , zXzXzXzXzXzXzXzXzXzXzXzXzXzXzX",
"zXzXzXzXzXzXzXzXzXzXzXzXzXzXzXzXX & * 1 # > < < e 6.u &.q.w.9.u $.$.r r l e $.>./.6XW & zXzXzXzXzXzXzXzXzXzXzXzXzXzXzXzX",
"zXzXzXzXzXzXzXzXzXzXzXzXzXzXzXzXE f.- w * ; 1 f 2 e m &.#.&.;.4 j b w 2 q n X.b./.Q O zXzXzXzXzXzXzXzXzXzXzXzXzXzXzXzXzX",
"zXzXzXzXzXzXzXzXzXzXzXzXzXzXzXzXzX! ] 0 & % q H F % j =.p.@.4 x I x 2 2 f ,.n M.,.% zXzXzXzXzXzXzXzXzXzXzXzXzXzXzXzXzXzX",
"zXzXzXzXzXzXzXzXzXzXzXzXzXzXzXzXzXzXk.a = % % 1 # * > 4 C. .8 5 1 % 9 g z *.| A 1 w.zXzXzXzXzXzXzXzXzXzXzXzXzXzXzXzXzXzX",
"zXzXzXzXzXzXzXzXzXzXzXzXzXzXzXzXzXzXzXF.L 1 w G X i p S o.u.*.$ & v ' f.' Z.-.2 zXzXzXzXzXzXzXzXzXzXzXzXzXzXzXzXzXzXzXzX",
"zXzXzXzXzXzXzXzXzXzXzXzXzXzXzXzXzXzXzXzXzXt.p #   - a H k V V 7 L J L } P U 0.zXzXzXzXzXzXzXzXzXzXzXzXzXzXzXzXzXzXzXzXzX",
"zXzXzXzXzXzXzXzXzXzXzXzXzXzXzXzXzXzXzXzXzXzXzXu.d 7 s  ...3 p z J C = C {.zXzXzXzXzXzXzXzXzXzXzXzXzXzXzXzXzXzXzXzXzXzXzX",
"zXzXzXzXzXzXzXzXzXzXzXzXzXzXzXzXzXzXzXzXzXzXzXzXzX`.p.u.| h Z k @.a.].zXzXzXzXzXzXzXzXzXzXzXzXzXzXzXzXzXzXzXzXzXzXzXzXzX",
"zXzXzXzXzXzXzXzXzXzXzXzXzXzXzXzXzXzXzXzXzXzXzXzXzXzXzXzXzXzXzXzXzXzXzXzXzXzXzXzXzXzXzXzXzXzXzXzXzXzXzXzXzXzXzXzXzXzXzXzX",
"zXzXzXzXzXzXzXzXzXzXzXzXzXzXzXzXzXzXzXzXzXzXzXzXzXzXzXzXzXzXzXzXzXzXzXzXzXzXzXzXzXzXzXzXzXzXzXzXzXzXzXzXzXzXzXzXzXzXzXzX",
"zXzXzXzXzXzXzXzXzXzXzXzXzXzXzXzXzXzXzXzXzXzXzXzXzXzXzXzXzXzXzXzXzXzXzXzXzXzXzXzXzXzXzXzXzXzXzXzXzXzXzXzXzXzXzXzXzXzXzXzX",
"zXzXzXzXzXzXzXzXzXzXzXzXzXzXzXzXzXzXzXzXzXzXzXzXzXzXzXzXzXzXzXzXzXzXzXzXzXzXzXzXzXzXzXzXzXzXzXzXzXzXzXzXzXzXzXzXzXzXzXzX",
"zXzXzXzXzXzXzXzXzXzXzXzXzXzXzXzXzXzXzXzXzXzXzXzXzXzXzXzXzXzXzXzXzXzXzXzXzXzXzXzXzXzXzXzXzXzXzXzXzXzXzXzXzXzXzXzXzXzXzXzX",
"zXzXzXzXzXzXzXzXzXzXzXzXzXzXzXzXzXzXzXzXzXzXzXzXzXzXzXzXzXzXzXzXzXzXzXzXzXzXzXzXzXzXzXzXzXzXzXzXzXzXzXzXzXzXzXzXzXzXzXzX",
"zXzXzXzXzXzXzXzXzXzXzXzXzXzXzXzXzXzXzXzXzXzXzXzXzXzXzXzXzXzXzXzXzXzXzXzXzXzXzXzXzXzXzXzXzXzXzXzXzXzXzXzXzXzXzXzXzXzXzXzX",
"zXzXzXzXzXzXzXzXzXzXzXzXzXzXzXzXzXzXzXzXzXzXzXzXzXzXzXzXzXzXzXzXzXzXzXzXzXzXzXzXzXzXzXzXzXzXzXzXzXzXzXzXzXzXzXzXzXzXzXzX",
"zXzXzXzXzXzXzXzXzXzXzXzXzXzXzXzXzXzXzXzXzXzXzXzXzXzXzXzXzXzXzXzXzXzXzXzXzXzXzXzXzXzXzXzXzXzXzXzXzXzXzXzXzXzXzXzXzXzXzXzX",
"zXzXzXzXzXzXzXzXzXzXzXzXzXzXzXzXzXzXzXzXzXzXzXzXzXzXzXzXzXzXzXzXzXzXzXzXzXzXzXzXzXzXzXzXzXzXzXzXzXzXzXzXzXzXzXzXzXzXzXzX",
"zXzXzXzXzXzXzXzXzXzXzXzXzXzXzXzXzXzXzXzXzXzXzXzXzXzXzXzXzXzXzXzXzXzXzXzXzXzXzXzXzXzXzXzXzXzXzXzXzXzXzXzXzXzXzXzXzXzXzXzX",
"zXzXzXzXzXzXzXzXzXzXzXzXzXzXzXzXzXzXzXzXzXzXzXzXzXzXzXzXzXzXzXzXzXzXzXzXzXzXzXzXzXzXzXzXzXzXzXzXzXzXzXzXzXzXzXzXzXzXzXzX",
"zXzXzXzXzXzXzXzXzXzXzXzXzXzXzXzXzXzXzXzXzXzXzXzXzXzXzXzXzXzXzXzXzXzXzXzXzXzXzXzXzXzXzXzXzXzXzXzXzXzXzXzXzXzXzXzXzXzXzXzX"
};
