/* XPM */
static char *png_clipart_particle_system_sprite_animated_film_sprite_purple_violet_removebg_preview1674842184[] = {
/* columns rows colors chars-per-pixel */
"80 80 190 2 ",
"   c None",
".  c #452A8D",
"X  c #41258B",
"o  c #4C338E",
"O  c #543D8F",
"+  c #452794",
"@  c #492C95",
"#  c #47269A",
"$  c #4B2C9C",
"%  c #472897",
"&  c #4E3196",
"*  c #4E309B",
"=  c #543C93",
"-  c #52359C",
";  c #54389A",
":  c #513695",
">  c #4A27A3",
",  c #4C2BA3",
"<  c #4E2AAB",
"1  c #522CAE",
"2  c #502EA4",
"3  c #5436A1",
"4  c #5735AA",
"5  c #5B3DA5",
"6  c #522BB3",
"7  c #542DBC",
"8  c #5C2FBF",
"9  c #5431B7",
"0  c #5633B9",
"q  c #5B36B5",
"w  c #5B4394",
"e  c #5F4995",
"r  c #5D439B",
"t  c #5F4898",
"y  c #614A96",
"u  c #644D9A",
"i  c #675199",
"p  c #6B569C",
"a  c #6E599D",
"s  c #715C9F",
"d  c #5C40A1",
"f  c #684EA4",
"g  c #6D55A4",
"h  c #715BA2",
"j  c #7056A7",
"k  c #7662A2",
"l  c #7A66A4",
"z  c #7D69A6",
"x  c #7E69A8",
"c  c #7C65AD",
"v  c #5B2FC3",
"b  c #5B36C5",
"n  c #5B33CB",
"m  c #5E36D4",
"M  c #6031CC",
"N  c #6434CA",
"B  c #6432D1",
"V  c #6236D9",
"C  c #6C35DD",
"Z  c #633ADB",
"A  c #683EDE",
"S  c #7235DD",
"D  c #6D3CE4",
"F  c #6E36E3",
"G  c #7336E5",
"H  c #723BE5",
"J  c #753EED",
"K  c #7937E9",
"L  c #6C43ED",
"P  c #6841E6",
"I  c #7142EB",
"U  c #7948E8",
"Y  c #6E47F2",
"T  c #7447F1",
"R  c #7248F4",
"E  c #7B4CF4",
"W  c #7A49F6",
"Q  c #7D51F9",
"!  c #816EA7",
"~  c #826EA8",
"^  c #8673AB",
"/  c #8977AD",
"(  c #8C7AAE",
")  c #8F7CB2",
"_  c #907EB1",
"`  c #833BEE",
"'  c #873CF1",
"]  c #8643E8",
"[  c #8E45F7",
"{  c #854CF2",
"}  c #8C4FF7",
"|  c #824EF9",
" . c #8B4DF9",
".. c #8A43F6",
"X. c #9243F6",
"o. c #934BF7",
"O. c #9A4BFA",
"+. c #8051F5",
"@. c #8655FB",
"#. c #8C54FA",
"$. c #8D5AFB",
"%. c #8A54F4",
"&. c #9B56FA",
"*. c #945BFB",
"=. c #9C5CFB",
"-. c #9654F5",
";. c #A65BFA",
":. c #BC5DFB",
">. c #B05EFC",
",. c #9D60FB",
"<. c #A463FB",
"1. c #AA65FB",
"2. c #AC69FB",
"3. c #B264FB",
"4. c #B36AFB",
"5. c #BA6DFB",
"6. c #BD74FA",
"7. c #C369FB",
"8. c #CE6CFB",
"9. c #C361FA",
"0. c #C474FB",
"q. c #CB74FB",
"w. c #C67AFA",
"e. c #CC7BFA",
"r. c #D375FB",
"t. c #D47BFB",
"y. c #DB7CFB",
"u. c #E27AFB",
"i. c #9583B4",
"p. c #9887B6",
"a. c #9989B7",
"s. c #9D8DB9",
"d. c #A495BD",
"f. c #A798BF",
"g. c #A899BF",
"h. c #AA9BC1",
"j. c #AEA1C4",
"k. c #B2A4C6",
"l. c #B6A9C9",
"z. c #BAAECB",
"x. c #BDB1CD",
"c. c #C2B7D1",
"v. c #C5BBD3",
"b. c #C9BFD6",
"n. c #DC83FB",
"m. c #DB88FA",
"M. c #D781FA",
"N. c #E485FB",
"B. c #EB86FB",
"V. c #E58AFB",
"C. c #EC8BFB",
"Z. c #F38CFB",
"A. c #EC95FB",
"S. c #EC9BFA",
"D. c #F595FB",
"F. c #F59DFB",
"G. c #F99CFB",
"H. c #F896FB",
"J. c #F7A2FB",
"K. c #F9A3FB",
"L. c #FAABFB",
"P. c #F4A9FB",
"I. c #FBB3FC",
"U. c #FBBBFB",
"Y. c #CBC2D7",
"T. c #CDC4D9",
"R. c #CFC8DA",
"E. c #D3CBDC",
"W. c #D0C7DC",
"Q. c #D8D4DF",
"!. c #DAD4E2",
"~. c #DDD9E3",
"^. c #D7D1E0",
"/. c #E1DEE6",
"(. c #E3DFE9",
"). c #FCC4FC",
"_. c #FBCCFC",
"`. c #FBD4FB",
"'. c #FAD9FB",
"]. c #E5E2EA",
"[. c #E9E5ED",
"{. c #ECE9EF",
"}. c #E3E1E7",
"|. c #EDE9F1",
" X c #FBE5FB",
".X c #F9ECFB",
"XX c #F4EDF6",
"oX c #FBF4FC",
"OX c #FBF9FC",
"+X c #F4F2F6",
/* pixels */
"                                                                                                                                                                ",
"                                                                                                                                                                ",
"                                                                                                                                                                ",
"                                                                                                                                                                ",
"                                                                                                                                                                ",
"                                                                                                                                                                ",
"                                                                                                                                                                ",
"                                                                                                                                                                ",
"                                                                                                                                                                ",
"                                                                                                                                                                ",
"                                                                                                                                                                ",
"                                                                                                                                                                ",
"                                                                                                                                                                ",
"                                                                                                                                                                ",
"                                                                                                                                                                ",
"                                                                                                                                                                ",
"                                                                                                                                                                ",
"                                                                                                                                                                ",
"                                                                                                                                                                ",
"                                                                      E.x.                                                                                      ",
"                                                                      v.T.z.j.                                                                                  ",
"                                                                    v.c.E.l.s.h.d.l.k.                                                                          ",
"                                                                b.c.k.z.v.k.( l l i.d.s.                                                                        ",
"                                                                E.x.d.h.d.g.~ O o e i s )                                                                       ",
"                                                                T.h._ ( z k i . > > # + w                                                                       ",
"                                                                c.i.h u y O - 6 B J C v 6 r                                                                     ",
"                                                                d.k y 3 , < n H .. .#.{ D n j                                                                   ",
"                                                                ^ r @ 2 n m L &.;.&.<.7.;.[ q                                                                   ",
"                                                              v.p + # v V L Q 1.q.5.q.r.r.3.N                                                                   ",
"                                                            [.k.y + + 6 D +.1.r.n.M.e.r.y.7.] d                                                                 ",
"                                                            ~.p.3 6 $ 6 I &.r.Z.D.S.m.e.N.r.-.4                                                                 ",
"                                                            ^._ 1 B M V E 4.B.H.L.K.A.m.C.r.<.0 x                                                               ",
"                                                          /.v.c v C G L #.r.D.L.L.K.J.A.D.t.<.b t                                                               ",
"                                                          ~.l.j 7 S K J 2.B.G.I.U.K.K.A.F.n.4.A 3                                                               ",
"                                                          !.l.h 6 S S X.t.G.L.U._.U.L.A.S.n.4.E b x                                                             ",
"                                                        /.~.x.f 8 G ` >.C.G.I._.`.I.I.J.S.w.1.%.n g                                                             ",
"                                                        /.W.j.f 8 ' X.8.D.L.). X`.I.I.K.J.w.1.U 9 -                                                             ",
"                                                        ].c.g.h 1 ` O.r.K.).`.oX X_.).I.K.w.<.Q m , (                                                           ",
"                                                        (.z.g.h 1 K o.r.K.`. XoX X'._.I.J.w.<.$.Z & /                                                           ",
"                                                      }.Q.c.h.~ 2 G o.n.L.'.oXOX X X_.I.D.w.,.@.m & )                                                           ",
"                                                      |.v.x.d.~ - G &.N.I.'.OXOX.X X_.I.D.w.,.Q m * i.E.                                                        ",
"                                                      [.z.z.i.~ 5 G &.V.I.'.oXOX.X X_.L.B.0.,.E 0 @ a.!.                                                        ",
"                                                      [.v.k.p.~ ; V *.N.I. X.XOX X.X_.K.Z.q.1.E 6 : s.!.                                                        ",
"                                                      ~.Y.g.d.) & V %.B.U. X.XOX XoX_.K.D.q.=.Y < w d.E.                                                        ",
"                                                      !.W.j.d.i.& V } B.U. X X XoXoX_.I.D.0.*.Y < e k.R.                                                        ",
"                                                      ~.Y.x.g.p.; V } n.L.`.'. X.X X).I.G.7.*.Y < e l.!.                                                        ",
"                                                      |.v.x.j.z * B } t.K.`. XoXOX.X_.U.C.3.@.Y 9 i x.{.                                                        ",
"                                                      +XT.x.l.z ; M } w.K.`.OXOXoX.X`.U.M.<.@.R 9 p z.|.                                                        ",
"                                                      +X!.v.x./ ; 7 { 4.S.`..XoXOX.X`.L.m.,.@.Y 0 z k.[.                                                        ",
"                                                        [.T.v.i.: 2 I &.n.U.'. X.X.X'.P.w.$.Q Y 6 x x.                                                          ",
"                                                        [.T.v.~ = 7 H O.8.G.`. X X'._.P.6.$.Q Z $ / T.                                                          ",
"                                                        ~.T.v.l u 6 T [ :.B.U.`._.U.).S.6.$.L n ; ) R.                                                          ",
"                                                        ~.E.x.s y 2 G X.9.u.H.L.P.L.L.A.1.@.D 9 r i.R.                                                          ",
"                                                        ~.E.x.~ u , M X.:.7.V.A.m.A.F.M.,.Q m , r i.~.                                                          ",
"                                                          Q.v.i.u 4 B ' X.&.5.e.6.6.e.0.$.P 6 * p j.[.                                                          ",
"                                                            v.d.a : 1 C F T *.2.*.,.<.1.+.D < = a Y.                                                            ",
"                                                              g.l e ; 7 v V R  .| +.#. .R m ; k i.^.                                                            ",
"                                                              s._ _ s @ > 6 n D F J T J m 6 u ^ h.!.                                                            ",
"                                                                z.k.l o . @ > < 6 n v n 7 ; / p.z.~.                                                            ",
"                                                                l.x.i.w w = + + . # + < < r ( d.R.                                                              ",
"                                                                    j.s l s o . o . X + % p d.Y.^.                                                              ",
"                                                                      z ^ ^ e w w & + + : a.v.~.                                                                ",
"                                                                      a.a.i.e O = w > # r x.E.}.                                                                ",
"                                                                        s.^ y o o w o w ^ T.~.                                                                  ",
"                                                                          i.k i w w p / d.E.                                                                    ",
"                                                                          x.i._ ~ a a.d.l.~.{.                                                                  ",
"                                                                            h.x.d.i.k.l.!.}.                                                                    ",
"                                                                            b.E.c.l.Y.W.|.                                                                      ",
"                                                                                                                                                                ",
"                                                                                                                                                                ",
"                                                                                                                                                                ",
"                                                                                                                                                                ",
"                                                                                                                                                                ",
"                                                                                                                                                                ",
"                                                                                                                                                                ",
"                                                                                                                                                                ",
"                                                                                                                                                                ",
"                                                                                                                                                                ",
"                                                                                                                                                                ",
"                                                                                                                                                                "
};
