/* XPM */
static char *png_clipart_purple_and_blue_abstract_illustration_spiral_galaxy_milky_way_blooming_purple_halo_universe_purple_blue_removebg_preview1674678707[] = {
/* columns rows colors chars-per-pixel */
"68 60 70 1 ",
"  c None",
". c #6F5EBE",
"X c #7463BF",
"o c #7967BE",
"O c #7D6ABE",
"+ c #4642CC",
"@ c #4C46CA",
"# c #564DC7",
"$ c #594FC6",
"% c #544DC9",
"& c #5C52C5",
"* c #5D55C9",
"= c #6155C3",
"- c #6659C2",
"; c #6C5DC1",
": c #6F60C1",
"> c #7464C1",
", c #7B6AC1",
"< c #826EBE",
"1 c #8571BE",
"2 c #8A75BE",
"3 c #8E79BE",
"4 c #927DBE",
"5 c #8472C2",
"6 c #8A77C1",
"7 c #8D7AC1",
"8 c #927EC1",
"9 c #9681BF",
"0 c #9A84BF",
"q c #9581C2",
"w c #9A85C2",
"e c #9E89C2",
"r c #A28DC3",
"t c #A691C5",
"y c #AA95C5",
"u c #AE99C7",
"i c #A592C9",
"p c #AA97C8",
"a c #AE9AC9",
"s c #B19BC7",
"d c #B29DC9",
"f c #A99BD1",
"g c #B5A2CA",
"h c #B9A6CC",
"j c #BDAACE",
"k c #BDACD0",
"l c #C0AECF",
"z c #C0B0CF",
"x c #C1AFD0",
"c c #C4B3D2",
"v c #C8B7D4",
"b c #C7B8D5",
"n c #CABBD6",
"m c #C6BADA",
"M c #CDBED8",
"N c #CFC1D9",
"B c #D2C5DB",
"V c #D5CADD",
"C c #D8CDDF",
"Z c #D9D3DE",
"A c #DACFE0",
"S c #DCD4E2",
"D c #E1D7E6",
"F c #E1DAE5",
"G c #E4DDE8",
"H c #E5E3E6",
"J c #E7E0EC",
"K c #F1EEF3",
"L c #F5F2F6",
"P c #FCFBFC",
/* pixels */
"                                                                    ",
"                                                                    ",
"                                                                    ",
"                                                                    ",
"                                                                    ",
"                                                                    ",
"                              M                                     ",
"                          chsl  jdjB                                ",
"                         ct4tddurttgN                               ",
"                    Mnllse312432we94e   c        V                  ",
"                  nnvcttr0e284.;Xo-%-o6wewp     M                   ",
"                   Mcdr0eyt8st5-.2>&oo116t85    MN                  ",
"                  VBlgy44rrthhd8.o,XoO1eyye5ek  hv                  ",
"                  Vnsrr4ryrthddrX&-=&XOwrq903ujtuzc                 ",
"                   vyrry0ysr74yyqO.:;>;;<2<O>O7q8ghl                ",
"                   lsyyssyt081wyuewgy>#;<23&@-o53yhzc               ",
"                  lsgjhhdiqipirlvcBvvki8,;8>+@*,weglck              ",
"                 vstslzdqqpslxhchccvvhaty57:#++-2qrshh              ",
"               SMsr4yryqqsdjlxddkgxtvmd88rwq,>@%7<4rgl              ",
"                cr0yuw6,8ixhcnclgkgwear8qisyyw$+5r20sll             ",
"                k6rdy8w88dkjMVBhkgut5286psiw8w=+*7<4scvB            ",
"                aqsy8<8rgkjMAMhyrwrtt618wike81-:*&o8gncc            ",
"               srrsi5;5rvbkMBksklgdsah85rrksq<o2>%;wgvvzM           ",
"            B chsyg7,,qkABBVcjcsdhgdagd7rjjir5o<o==7hnnM            ",
"            B vv rw57rxAAASAcstruhzhggggdhcq85>oo--2wjMM            ",
"            VB  swe,ihxMAAVBjryuzVZzgggglkxh8q<o<o>qrsnB            ",
"              NcdygilcVMGAAMcttaCHHZzllsxhhhr8,5oO5rshMV            ",
"            V  raaaqhMVDGDBVg31wVFGHZnchjxy8r4,wrwsyjjM             ",
"              cgygq8mADSSAMxw213iGLKHZzhlld8y25asccsa               ",
"             NcghjiamAVDMmvswww<5SPLFNguhlyry40ahhcss               ",
"              lhhxssxvMAvccrwhh4,fNmjs0tgtra82rihgjdl               ",
"              krdlsrlhlvxvMyyvle7*$.O0euyrrg56ysskchhx              ",
"              gqajctjcmhszBllNce4,&.o9suatya2wgccvhush              ",
"              hsykvptMScjlNclncuer434thhatyaigbbkcjhgz              ",
"              kgdxBdevMcsncchcncyrrrrybkaygpgagthjcjcM              ",
"                hxcjgggytgBhhlzvgaruuysgkkkgjsgyccgsc               ",
"                 ghgsamg4wjdgcllvkhuhzcNjNcMjhgckjjg                ",
"                Mhuhw8vjteysgccNMvcNnnczahjpypMcthscV               ",
"                 llhp8pd00rtsgzlMNVBbhjhw9w6ijjjjjjV N              ",
"                Bvgyyiydr444etsgzbBNljsw117yjgajvcB                 ",
"                 Mk8ehgw999wt9esz VVchr5>qsjbjhNBB                  ",
"                 vjw,tu8<4w42409h MMccjpabcpyyj vc                  ",
"                  gyq0yw525<229ethbMgjvbMbvjsa  chh B               ",
"                   jdtq4rysw449900lhcjNchjjNNNB    B                ",
"                    gsiwssvjdt04oo9ugtgkjc   N                      ",
"                      vsavcljjs0314yhggbNBB      B                  ",
"                       gsj jdhu00rtlvVVBVnMnZ   S                   ",
"                       Mc   MnlyyrugvNNNBMjkVNBB                    ",
"                             BNcjgscvBBVBNVS                        ",
"                        c      VvvcvBBAVAVVS                        ",
"                       Mcj       MVBAAC                             ",
"                       NMv                                          ",
"                          V                                         ",
"                                                                    ",
"                                                                    ",
"                                                                    ",
"                                                                    ",
"                                                                    ",
"                                                                    ",
"                                                                    "
};
