/* XPM */
static char *result[] = {
/* columns rows colors chars-per-pixel */
"60 60 220 2 ",
"   c #3F39F6",
".  c #493EF3",
"X  c #3949F7",
"o  c #2D5CF6",
"O  c #3B53F4",
"+  c #3C5BF3",
"@  c #3658F8",
"#  c #3D64EF",
"$  c #3E68EE",
"%  c #367DEB",
"&  c #3979EC",
"*  c #2B6DF7",
"=  c #2C6EF9",
"-  c #2A65F7",
";  c #3562F5",
":  c #3B64F2",
">  c #356CF5",
",  c #3963FA",
"<  c #356CFA",
"1  c #396BF2",
"2  c #2D75F7",
"3  c #2B7CF7",
"4  c #2D74FA",
"5  c #2C7DFA",
"6  c #2477F4",
"7  c #3274F5",
"8  c #3473FA",
"9  c #3878F5",
"0  c #4A55EF",
"q  c #455EED",
"w  c #545CEE",
"e  c #5D5DEF",
"r  c #5256EE",
"t  c #4146F5",
"y  c #4142F9",
"u  c #484AF2",
"i  c #594AF4",
"p  c #5349F2",
"a  c #4254F4",
"s  c #415AF6",
"d  c #5756F0",
"f  c #655CEE",
"g  c #644AF4",
"h  c #6F55F2",
"j  c #4261ED",
"k  c #4A65ED",
"l  c #446CEC",
"z  c #5364EB",
"x  c #5E67EC",
"c  c #4776E8",
"v  c #4466F4",
"b  c #4D6AF7",
"n  c #5964F4",
"m  c #447AF9",
"M  c #5177FB",
"N  c #5B7AE6",
"B  c #7064EF",
"V  c #6874EA",
"C  c #7B75EF",
"Z  c #7479ED",
"A  c #7463F4",
"S  c #6D72F0",
"D  c #7273F7",
"F  c #7B74F7",
"G  c #6668F2",
"H  c #816CF3",
"J  c #887DF6",
"K  c #1C8DF9",
"L  c #148BF9",
"P  c #0F9EFC",
"I  c #1D9AFA",
"U  c #1797FA",
"Y  c #2D87EC",
"T  c #3489EB",
"R  c #279EEF",
"E  c #3092EF",
"W  c #2D84F4",
"Q  c #2389F6",
"!  c #2384F8",
"~  c #2B83FA",
"^  c #258CFA",
"/  c #2C89FB",
"(  c #2787F4",
")  c #328CF4",
"_  c #3483F9",
"`  c #328AFA",
"'  c #3986F8",
"]  c #2390F5",
"[  c #2C9CF6",
"{  c #2694FC",
"}  c #2D93FB",
"|  c #249BFA",
" . c #2B9CFB",
".. c #2990F5",
"X. c #3392F5",
"o. c #3294FA",
"O. c #349CFC",
"+. c #3A9BF8",
"@. c #0CA9FB",
"#. c #16A0FA",
"$. c #1CA5FC",
"%. c #15ADFD",
"&. c #19ADFD",
"*. c #05B5FD",
"=. c #1CB5FD",
"-. c #1ABCFD",
";. c #16BCFD",
":. c #23A5FB",
">. c #2AA3FD",
",. c #25AAFC",
"<. c #2BACFC",
"1. c #29A4F6",
"2. c #34A3FC",
"3. c #33A9FE",
"4. c #3BABFE",
"5. c #3CA7FD",
"6. c #23B5FC",
"7. c #21BBFD",
"8. c #2CBAFD",
"9. c #2AB3FD",
"0. c #31B4F6",
"q. c #34B2FE",
"w. c #3CB4FE",
"e. c #3ABBFE",
"r. c #32BAFC",
"t. c #4183E7",
"y. c #4483FA",
"u. c #4893F8",
"i. c #558FFC",
"p. c #6988E5",
"a. c #7086E8",
"s. c #6B8FF6",
"d. c #49A1FB",
"f. c #45ADFC",
"g. c #52A2FA",
"h. c #45BBFF",
"j. c #4CBFFD",
"k. c #0BCBFE",
"l. c #09C1FC",
"z. c #15C4FE",
"x. c #1CC3FD",
"c. c #1CCDFE",
"v. c #14CBFE",
"b. c #08DEFF",
"n. c #14D6FE",
"m. c #1CD3FF",
"M. c #14DAFE",
"N. c #19DCFE",
"B. c #23C4FE",
"V. c #2BC4FD",
"C. c #24CDFE",
"Z. c #2BCBFE",
"A. c #32C6FE",
"S. c #34CBFE",
"D. c #3ACBFE",
"F. c #23D5FF",
"G. c #2CD4FE",
"H. c #23DCFE",
"J. c #2CDAFE",
"K. c #34D2FE",
"L. c #39D5FE",
"P. c #34DAFE",
"I. c #3BDBFE",
"U. c #0EE1FF",
"Y. c #15E4FF",
"T. c #1CE2FE",
"R. c #1DEAFF",
"E. c #18F4FF",
"W. c #25E3FF",
"Q. c #2CE5FF",
"!. c #21EEFF",
"~. c #2CEAFF",
"^. c #34E5FF",
"/. c #3BE4FF",
"(. c #37EBFF",
"). c #3CEFFF",
"_. c #25F2FF",
"`. c #2BF3FF",
"'. c #2DF9FF",
"]. c #39F3FF",
"[. c #36F9FF",
"{. c #41CCFF",
"}. c #44C3FE",
"|. c #54C4FF",
" X c #50CCFF",
".X c #43D3FF",
"XX c #4BD1FF",
"oX c #43DAFE",
"OX c #4FDAFF",
"+X c #54DEFF",
"@X c #55D7FF",
"#X c #43E6FF",
"$X c #4BE3FF",
"%X c #44EDFF",
"&X c #4BECFE",
"*X c #53E3FF",
"=X c #56EDFF",
"-X c #5CE8FF",
";X c #59E3FF",
":X c #45F2FF",
">X c #49F2FF",
",X c #4AF8FF",
"<X c #52F6FF",
"1X c #5AF3FF",
"2X c #5DFBFF",
"3X c #62EDFF",
"4X c #66EAFF",
"5X c #6DF4FF",
"6X c #69FAFF",
"7X c #61F9FF",
"8X c #7BF5FF",
"9X c #71F5FF",
"0X c #8098E7",
"qX c #9381F5",
"wX c #80F1FF",
"eX c #99F1FF",
"rX c #ABF9FF",
"tX c #B3F5FF",
"yX c #C6F8FF",
"uX c None",
/* pixels */
"uXuXuXuXuXuXuXuXuXuXuXuXuXuXuXuXuXuXuXuXuXuXuXuXuXuXuXuXuXuXuXuXuXuXuXuXuXuXuXuXuXuXuXuXuXuXuXuXuXuXuXuXuXuXuXuXuXuXuXuX",
"uXuXuXuXuXuXuXuXuXuXuXuXuXuXuXuXuXuXuXuXuXuXuXuXuXuXuXuXuXuXuXuXuXuXuXuXuXuXuXuXuXuXuXuXuXuXuXuXuXuXuXuXuXuXuXuXuXuXuXuX",
"uXuXuXuXuXuXuXuXuXuXuXuXuXuXuXuXuXuXuXuXuXuXuXuXuXuXuXuXuXuXuXuXuXuXuXuXuXuXuXuXuXuXuXuXuXuXuXuXuXuXuXuXuXuXuXuXuXuXuXuX",
"uXuXuXuXuXuXuXuXuXuXuXuXuXuXuXuXuXuXuXuXuXuXuXuXuXuXuXuXuXuXuXuXuXuXuXuXuXuXuXuXuXuXuXuXuXuXuXuXuXuXuXuXuXuXuXuXuXuXuXuX",
"uXuXuXuXuXuXuXuXuXuXuXuXuXuXuXuXuXuXuXuXuXuXuXuXuXuXuXuXuXuXuXuXuXuXuXuXuXuXuXuXuXuXuXuXuXuXuXuXuXuXuXuXuXuXuXuXuXuXuXuX",
"uXuXuXuXuXuXuXuXuXuXuXuXuXuXuXuXuXuXuXuXuXuXuXuXq j q uXuXuXv l q uXuXuXuXuXuXuXuXuXuXuXuXuXuXuXuXuXuXuXuXuXuXuXuXuXuXuX",
"uXuXuXuXuXuXuXuXuXuXuXuXuXuXuXuXuXuXuXuXuXuXuX: 1 uXuXuXuXuX2 o.W uXuXuXuXuXuXuXuXuXuXuXuXuXuXuXuXuXuXuXuXuXuXuXuXuXuXuX",
"uXuXuXuXuXuXuXuXuXuXuXuXuXuXuXuXuXuXuXuXa a + 9 ~ /  . .>. .>.e.<.uXuXuXuXuXuXuXuXuXuXuXuXuXuXuXuXuXuXuXuXuXuXuXuXuXuXuX",
"uXuXuXuXuXuXuXuXuXuXuXuXuXuXuXuXuXuX# uXO `  .3.6.B.m.m.F.F.m.6.H.<. .< uXuXuXuXuXuXuXuXuXuXuXuXuXuXuXuXuXuXuXuXuXuXuXuX",
"uXuXuXuXuXuXuXuXuXuXuXuXuXuXuX[ % o.a 4.< 8.B.,.Y.E.`.8XwX5X).b.R.n.G.| O.' f.m uXuXuXuXuXuXuXuXuXuXuXuXuXuXuXuXuXuXuXuX",
"uXuXuXuXuXuXuXuXuXuXuXuXuXuXuXuX2.e.j.L.6./.G.Y.T.].9XrXyXeX-X,X].2XT.Q.C.3.A.>.uXuXuXuXuXuXuXuXuXuXuXuXuXuXuXuXuXuXuXuX",
"uXuXuXuXuXuXuXuXuXuXuXuXuXuXuXM a g.} :X~.P..XK.=.$.uXuXuXuXuXuXuX6.D.oXJ.%.F.8.= @ uXuXuXuXuXuXuXuXuXuXuXuXuXuXuXuXuXuX",
"uXuXuXuXuXuXuXuXuXuXuXuXuXuXd.m e.{ H.4X X~ : uXuXuXuXuXuXuXuXuXuXuXuXs O.-X/.W.6.5 8 O uXuXuXuXuXuXuXuXuXuXuXuXuXuXuXuX",
"uXuXuXuXuXuXuXuXuXuXuXuX1 d./ $XB.V.|.< uXuXuXuXuXuXuXuXuXuXuXuXuXuXuXuXuXuX5.$XG.Z.{ , +.uXuXuXuXuXuXuXuXuXuXuXuXuXuXuX",
"uXuXuXuXuXuXuXuXuXp.c ) y./.&XY.S.4.uXuXuXuXuXuXuXuXuXuXuXuXuXuXuXuXuXuXuXuXuX9 XX=XJ.O.|.W uXuXuXuXuXuXuXuXuXuXuXuXuXuX",
"uXuXuXuXuXuXuXuXuXV uX2.Q.E.[.%X .uXuXuXuXuXuXuXuXuXuXuXuXuXuXuXuXuXuXuXuXuXuXuX3 (.`.W.oX<.+ uXuXuXuXuXuXuXuXuXuXuXuXuX",
"uXuXuXuXuXuXuXuXuXuXo.` :X].,X,.uXuXuXuXuXuXuXuXuXuXuXuXuXuXuXuXuXuXuXuXuXuXuXuXuXW &X6X[.3.2.0 uXuXuXuXuXuXuXuXuXuXuXuX",
"uXuXuXuXuXuXuXuXuXuX8 S.:XrXD.uXuXuXuXuXuXuXuXuXuXuXuXuXuXuXuXuXuXuXuXuXuXuXuXuXuXuX] eX7X1X4   uXuXuXuXuXuXuXuXuXuXuXuX",
"uXuXuXuXuXuXuXuXg y 8.].6X(.6 uXuXuXuXuXuXuXuXuXuXuXuXuXuXuXuXuXuXuXuXuXuXuXuXuXuXuXuXI &X%XL.>.u uXuXuXuXuXuXuXuXuXuXuX",
"uXuXuXuXuXuXuXA _ f.F.'.7X3 uXuXuXuXuXuXuXuXuXuXuXuXuXuXuXuXuXuXuXuXuXuXuXuXuXuXuXuXuXuX^ {.=XI 4 k uXuXuXuXuXuXuXuXuXuX",
"uXuXuXuXuXuXZ t.j.<.n.).6.uXuXuXuXuXuXuXuXuXuXuXuXuXuXuXuXuXuXuXuXuXuXuXuXuXuXuXuXuXuXuXuX3.I.Z.@ W uXuXuXuXuXuXuXuXuXuX",
"uXuXuXuXuXuXx [ ` C._.*Xz uXuXuXuXuXuXuXuXuXuXuXuXuXuXuXuXuXuXuXuXuXuXuXuXuXuXuXuXuXuXuXuXg .XM.{ ,.k uXuXuXuXuXuXuXuXuX",
"uXuXuXuXuXuXT <.<.~.I.< uXuXuXuXuXuXuXuXuXuXuXuXuXuXuXuXuXuXuXuXuXuXuXuXuXuXuXuXuXuXuXuXuXuX3.W.N.6.: uXuXuXuXuXuXuXuXuX",
"uXuXuXuXuXuXk O.| A.*XH uXuXuXuXuXuXuXuXuXuXuXuXuXuXuXuXuXuXuXuXuXuXuXuXuXuXuXuXuXuXuXuXuXuXn ^.Y.! O uXuXuXuXuXuXuXuXuX",
"uXuXuXuXuXuXuX~ 3.z.S.uXuXuXuXuXuXuXuXuXuXuXuXuXuXuXuXuXuXuXuXuXuXuXuXuXuXuXuXuXuXuXuXuXuXuXuXXX!.Z.@ uXuXuXuXuXuXuXuXuX",
"uXuXuXuXuXuXp - %.%X8 uXuXuXuXuXuXuXuXuXuXuXuXuXuXuXuXuXuXuXuXuXuXuXuXuXuXuXuXuXuXuXuXuXuXuXuXr.Y.L o uXuXuXuXuXuXuXuXuX",
"uXuXuXuXuXuXO ! H.+XuXuXuXuXuXuXuXuXuXuXuXuXuXuXuXuXuXuXuXuXuXuXuXuXuXuXuXuXuXuXuXuXuXuXuXuXuX5 /.x.* uXuXuXuXuXuXuXuXuX",
"uXuXuXuXuXuXO K *.oXuXuXuXuXuXuXuXuXuXuXuXuXuXuXuXuXuXuXuXuXuXuXuXuXuXuXuXuXuXuXuXuXuXuXuXuXuXb =X-.! uXuXuXuXuXuXuXuXuX",
"uXuXuXuXuXuXO &.R.5XuXuXuXuXuXuXuXuXuXuXuXuXuXuXuXuXuXuXuXuXuXuXuXuXuXuXuXuXuXuXuXuXuXuXuXuXuXD Z.P ^ : uXuXuXuXuXuXuXuX",
"uXuXuXuXuXl ..J.m.*XuXuXuXuXuXuXuXuXuXuXuXuXuXuXuXuXuXuXuXuXuXuXuXuXuXuXuXuXuXuXuXuXuXuXuXuXuXuX+XM.=.> uXuXuXuXuXuXuXuX",
"uXuXuXuXuXW } r.B.;XuXuXuXuXuXuXuXuXuXuXuXuXuXuXuXuXuXuXuXuXuXuXuXuXuXuXuXuXuXuXuXuXuXuXuXuXuXuXoXW.I O uXuXuXuXuXuXuXuX",
"uXuXuXuXuXc 5 4 *..XuXuXuXuXuXuXuXuXuXuXuXuXuXuXuXuXuXuXuXuXuXuXuXuXuXuXuXuXuXuXuXuXuXuXuXuXuXs.<X*.- uXuXuXuXuXuXuXuXuX",
"uXuXuXuXuXk 3 | K.e.uXuXuXuXuXuXuXuXuXuXuXuXuXuXuXuXuXuXuXuXuXuXuXuXuXuXuXuXuXuXuXuXuXuXuXuXuXb Z.@.o uXuXuXuXuXuXuXuXuX",
"uXuXuXuXuXuX+ 6 G.r.G uXuXuXuXuXuXuXuXuXuXuXuXuXuXuXuXuXuXuXuXuXuXuXuXuXuXuXuXuXuXuXuXuXuXuXuX4 #XP o uXuXuXuXuXuXuXuXuX",
"uXuXuXuXuXc 7 :.Z.^.8 uXuXuXuXuXuXuXuXuXuXuXuXuXuXuXuXuXuXuXuXuXuXuXuXuXuXuXuXuXuXuXuXuXuXuXuX4.G.U X uXuXuXuXuXuXuXuXuX",
"uXuXuXuXuXuX0 3 =.>X4.uXuXuXuXuXuXuXuXuXuXuXuXuXuXuXuXuXuXuXuXuXuXuXuXuXuXuXuXuXuXuXuXuXuXuXuXXX=. .O uXuXuXuXuXuXuXuXuX",
"uXuXuXuXuXuXq + 7.P.3X( uXuXuXuXuXuXuXuXuXuXuXuXuXuXuXuXuXuXuXuXuXuXuXuXuXuXuXuXuXuXuXuXuXuX^ /.L.} ` z uXuXuXuXuXuXuXuX",
"uXuXuXuXuXuXA 1 8  .Q.@XuXuXuXuXuXuXuXuXuXuXuXuXuXuXuXuXuXuXuXuXuXuXuXuXuXuXuXuXuXuXuXuXuXuXJ._.~.<.W T uXuXuXuXuXuXuXuX",
"uXuXuXuXuXuXuXi O w.].=X] uXuXuXuXuXuXuXuXuXuXuXuXuXuXuXuXuXuXuXuXuXuXuXuXuXuXuXuXuXuXuXuX:.8X'.:.8 & c uXuXuXuXuXuXuXuX",
"uXuXuXuXuXuXuXh O y.T.9X XuXuXuXuXuXuXuXuXuXuXuXuXuXuXuXuXuXuXuXuXuXuXuXuXuXuXuXuXuXuXuXY $X1Xz.o.1 l uXuXuXuXuXuXuXuXuX",
"uXuXuXuXuXuXuXuXs i.,.b.1X( uXuXuXuXuXuXuXuXuXuXuXuXuXuXuXuXuXuXuXuXuXuXuXuXuXuXuXuXuXuX{ ^.R.:.+ 0 N uXuXuXuXuXuXuXuXuX",
"uXuXuXuXuXuXuXuXf g.@ z.].=Xn uXuXuXuXuXuXuXuXuXuXuXuXuXuXuXuXuXuXuXuXuXuXuXuXuXuXuXuXi .XY.L./ 1 & uXuXuXuXuXuXuXuXuXuX",
"uXuXuXuXuXuXuXuXC u.X :.v.%X XuXuXuXuXuXuXuXuXuXuXuXuXuXuXuXuXuXuXuXuXuXuXuXuXuXuXuXqXf.^.&.9 _ ..E uXuXuXuXuXuXuXuXuXuX",
"uXuXuXuXuXuXuXuXuXG . @ #XW.e.} uXuXuXuXuXuXuXuXuXuXuXuXuXuXuXuXuXuXuXuXuXuXuXuXuXuX3.I.=. Xy / ,.a.uXuXuXuXuXuXuXuXuXuX",
"uXuXuXuXuXuXuXuXuXuXk X }  .c.-X} uXuXuXuXuXuXuXuXuXuXuXuXuXuXuXuXuXuXuXuXuXuXuXJ q.B.>XC.A.<.1.1.uXuXuXuXuXuXuXuXuXuXuX",
"uXuXuXuXuXuXuXuXuXuXuXw 8 * I H.#XA.D uXuXuXuXuXuXuXuXuXuXuXuXuXuXuXuXuXuXuXuXv e.%.;.| D.X.% D.uXuXuXuXuXuXuXuXuXuXuXuX",
"uXuXuXuXuXuXuXuXuXuXuXuXr 7 | #.;.`.;X/ uXuXuXuXuXuXuXuXuXuXuXuXuXuXuXuXuXF >.XXk.I.{.* X.f.0.p.uXuXuXuXuXuXuXuXuXuXuXuX",
"uXuXuXuXuXuXuXuXuXuXuXuXuXe 9 ,.z.M.k.F.D./ A uXf C C S S Z uXuXuXuXuXn >.@XW.k.L  .[ r.0.t.p.a.uXuXuXuXuXuXuXuXuXuXuXuX",
"uXuXuXuXuXuXuXuXuXuXuXuXuXuXe + 7 7.V.@.H.V.h.}.<.u.3 ! K uXuXuX8 O.h.e.Q.Q.N.x.}.O X.T N p.uXuXuXuXuXuXuXuXuXuXuXuXuXuX",
"uXuXuXuXuXuXuXuXuXuXuXuXuXuXuXuXq [ X | I L.-.~.<X<X:X9XtX5X,X>X^.B.F.c.-.K G.> 6.1.) a.uXuXuXuXuXuXuXuXuXuXuXuXuXuXuXuX",
"uXuXuXuXuXuXuXuXuXuXuXuXuXuXuXuXuXz : u < - 5 J.m.!.v.R.T.R.(.M.T.8.o.5 | ; > q % T uXuXuXuXuXuXuXuXuXuXuXuXuXuXuXuXuXuX",
"uXuXuXuXuXuXuXuXuXuXuXuXuXuXuXuXuXuXuXuXp . t , ' L.3.4.8.{ r.>.G.8.O.X u j uXuXuXuXuXuXuXuXuXuXuXuXuXuXuXuXuXuXuXuXuXuX",
"uXuXuXuXuXuXuXuXuXuXuXuXuXuXuXuXuXuXuXuXuXuXuXj 9 o.s _ @ + ` y.+ 1 r f uXuXuXuXuXuXuXuXuXuXuXuXuXuXuXuXuXuXuXuXuXuXuXuX",
"uXuXuXuXuXuXuXuXuXuXuXuXuXuXuXuXuXuXuXuXuXuXuXuXuX% E & f z x uXuXuXuXuXuXuXuXuXuXuXuXuXuXuXuXuXuXuXuXuXuXuXuXuXuXuXuXuX",
"uXuXuXuXuXuXuXuXuXuXuXuXuXuXuXuXuXuXuXuXuXuXuXuXuXuXuXuXuXuXuXuXuXuXuXuXuXuXuXuXuXuXuXuXuXuXuXuXuXuXuXuXuXuXuXuXuXuXuXuX",
"uXuXuXuXuXuXuXuXuXuXuXuXuXuXuXuXuXuXuXuXuXuXuXuXuXuXuXuXuXuXuXuXuXuXuXuXuXuXuXuXuXuXuXuXuXuXuXuXuXuXuXuXuXuXuXuXuXuXuXuX",
"uXuXuXuXuXuXuXuXuXuXuXuXuXuXuXuXuXuXuXuXuXuXuXuXuXuXuXuXuXuXuXuXuXuXuXuXuXuXuXuXuXuXuXuXuXuXuXuXuXuXuXuXuXuXuXuXuXuXuXuX",
"uXuXuXuXuXuXuXuXuXuXuXuXuXuXuXuXuXuXuXuXuXuXuXuXuXuXuXuXuXuXuXuXuXuXuXuXuXuXuXuXuXuXuXuXuXuXuXuXuXuXuXuXuXuXuXuXuXuXuXuX",
"uXuXuXuXuXuXuXuXuXuXuXuXuXuXuXuXuXuXuXuXuXuXuXuXuXuXuXuXuXuXuXuXuXuXuXuXuXuXuXuXuXuXuXuXuXuXuXuXuXuXuXuXuXuXuXuXuXuXuXuX",
"uXuXuXuXuXuXuXuXuXuXuXuXuXuXuXuXuXuXuXuXuXuXuXuXuXuXuXuXuXuXuXuXuXuXuXuXuXuXuXuXuXuXuXuXuXuXuXuXuXuXuXuXuXuXuXuXuXuXuXuX"
};
