/* XPM */
static char *Screen_Shot_2023_01_27_at_6_43_35_PM1674912960[] = {
/* columns rows colors chars-per-pixel */
"81 60 158 2 ",
"   c #000004",
".  c #02030D",
"X  c #05090E",
"o  c #030611",
"O  c #050A15",
"+  c #080E14",
"@  c #040B1B",
"#  c #080F1B",
"$  c #091117",
"%  c #07101F",
"&  c #09121D",
"*  c #0C181F",
"=  c #040D21",
"-  c #061124",
";  c #0A1424",
":  c #0D1925",
">  c #071428",
",  c #09162A",
"<  c #0D1B2C",
"1  c #111E26",
"2  c #101E2C",
"3  c #091730",
"4  c #0D1D32",
"5  c #0C1D3A",
"6  c #101F31",
"7  c #11212D",
"8  c #0F2035",
"9  c #0F223B",
"0  c #122334",
"q  c #162B33",
"w  c #182D36",
"e  c #12263B",
"r  c #152A3C",
"t  c #192E3D",
"y  c #19313D",
"u  c #0F2242",
"i  c #122641",
"p  c #152C43",
"a  c #182F42",
"s  c #152D4A",
"d  c #173046",
"f  c #1A3344",
"g  c #1F3846",
"h  c #17314C",
"j  c #1A354B",
"k  c #1E3A4C",
"l  c #142B51",
"z  c #10275D",
"x  c #142D5B",
"c  c #173053",
"v  c #193552",
"b  c #1D3B53",
"n  c #19345B",
"m  c #1D3D59",
"M  c #213944",
"N  c #213D4D",
"B  c #213E53",
"V  c #203E5A",
"C  c #102660",
"Z  c #142F6C",
"A  c #163262",
"S  c #16336B",
"D  c #1A396C",
"F  c #132E72",
"G  c #163271",
"H  c #18367D",
"J  c #1F4153",
"K  c #1F405B",
"L  c #25414C",
"P  c #234255",
"I  c #284553",
"U  c #2A4B57",
"Y  c #23445B",
"T  c #26495D",
"R  c #294B5D",
"E  c #2E525E",
"W  c #234561",
"Q  c #264B63",
"!  c #294E63",
"~  c #244768",
"^  c #264C6A",
"/  c #294F68",
"(  c #265064",
")  c #2B5464",
"_  c #2B5866",
"`  c #275068",
"'  c #2C556B",
"]  c #2D5A6B",
"[  c #305665",
"{  c #325967",
"}  c #30576A",
"|  c #315B6D",
" . c #204472",
".. c #2D5672",
"X. c #2E5A72",
"o. c #2F5F78",
"O. c #315770",
"+. c #315D73",
"@. c #335E79",
"#. c #2F606F",
"$. c #34606D",
"%. c #3C646F",
"&. c #2F6170",
"*. c #2F607A",
"=. c #346275",
"-. c #396575",
";. c #346877",
":. c #3D6A76",
">. c #34647B",
",. c #38677B",
"<. c #366A7C",
"1. c #3B6B7D",
"2. c #39757F",
"3. c #40707E",
"4. c #214280",
"5. c #264C89",
"6. c #376A82",
"7. c #3B6D83",
"8. c #37668C",
"9. c #3A7681",
"0. c #3D738A",
"q. c #3F788D",
"w. c #3D6F91",
"e. c #406F87",
"r. c #427483",
"t. c #467A86",
"y. c #487C87",
"u. c #41768B",
"i. c #437A8E",
"p. c #497D88",
"a. c #437B91",
"s. c #4B828E",
"d. c #478195",
"f. c #4A8393",
"g. c #468198",
"h. c #4A869B",
"j. c #4D8B9C",
"k. c #508A94",
"l. c #49949E",
"z. c #4E8EA2",
"x. c #508FA1",
"c. c #5494A4",
"v. c #5396AA",
"b. c #569AAC",
"n. c #5A9EAE",
"m. c #5393B3",
"M. c #599CB4",
"N. c #599DBA",
"B. c #5DA4B4",
"V. c #5CA2BD",
"C. c #61A6B6",
"Z. c #62A9B7",
"A. c #62AABA",
"S. c #5AA1C2",
"D. c #62ADC0",
"F. c #66B2C1",
"G. c #69B6C6",
"H. c #6AB9CB",
/* pixels */
"@ @ @ @ @ @ @ @ @ @ @ @ @ @ O @ @ @ @ @ @ O @ @ @ @ @ @ @ @ @ @ @ @ @ @ @ @ @ @ @ @ @ @ @ @ @ @ @ @ @ @ @ @ @ @ @ @ @ @ @ @ @ O @ @ @ @ @ @ @ @ @ @ @ @ O O @ @ @ ",
"O o @ o O O . O @ o O O O O o @ . O @ . @ o O O . O o o O X O O o @ X O O o O o o O o O o o O X O O o @ X + o o @ o O O o @ o o O . @ O o O X O O o @ o O O o @ o ",
"w . q : + y X 7 < X y X 7 7 . t + : w   r & $ y . q < + y X 7 7 . t + : q . r $ * w . q ; + t X q : o y X 7 7 . t O : q . y % & w X q : O y X 7 1 X t O 1 q . y @ ",
"q q q q q q q q q q q q q q q w q q q q w q q w q q q q q q q q q q q q q q w q q q q q w q w q q q q w q q q q q q q q q q q q q q q q q w q q q q q q q q q q q ",
"l.l.l.l.l.l.l.l.l.l.l.l.l.l.l.l.l.l.l.l.l.l.l.l.l.l.l.l.l.l.l.l.l.l.l.l.l.l.l.l.l.l.l.l.l.l.l.l.l.l.l.l.l.l.l.l.l.l.l.l.l.l.l.l.l.l.l.l.l.l.l.l.l.l.l.l.l.l.l.l.l.",
"# $ @ # # O O # + @ # $ + $ @ $ # @ # # # $ O # + + # O $ O # @ $ O # # O $ + # # @ # # $ $ + O $ + # O $ O $ O $ O @ @ + + $ $ @ @ O # $ $ O # $ + O # $ $ # @ # ",
"O @ O O O @ O @ @ O @ O @ @ O @ O O O @ O @ @ O O @ O @ @ @ O O @ O o @ O @ @ @ O O @ o @ @ @ @ @ @ O @ @ @ @ @ @ O O O O @ @ O O O O O @ O O @ @ @ @ O @ @ O O O ",
". o . o . o . . o . . . . . . . . o . o . . o . o . o . . o . o . o o . o . . . . o o o . . . . . . o . . . . . . o o . o . o . o o o o . o . . . . . . . o . o o ",
"o o . O O . . O o o . o o o O . O . O O . o O . o o o o o o o o o o o o o o o o o o o o o O . O o o o o o o o o o o o . o o o o o O o o o o o O o o o o o o o o o ",
"@ = @ = @ - @ @ = @ - @ @ = = @ @ % @ @ @ = @ - # = @ = @ = @ = = @ @ = = @ @ = @ = = @ @ = = @ # = @ = @ = @ @ @ = = = = @ # = @ @ @ = = @ = @ @ = = @ = @ = @ @ ",
"o . . . . . . . . . . . . . . . . . . . o o . . o . X . o X . . . . o . . . . . . X X . . X . . o o X . o X . . o . . . . X o . . . . . . . . o o . . . . . . . o ",
"@ @ $ @ % @ # @ @ @ % # % # @ % @ @ # # @ $ @ @ @ @ @ @ @ @ @ # % @ @ @ @ # # @ @ @ @ @ @ @ $ @ # @ @ @ @ @ # @ @ # @ @ @ @ @ @ # @ # @ @ % $ @ @ @ # # % @ # @ @ ",
". . . . . .   . . . . . . . .   . .   . . . . . . . . . . . .   . . . . .   . . . . . . .   . . . . . . . . . . . . . . . . . . . . . . . . . . . . . . . . . . . ",
"9.9.2.2.9.2.2.9.2.2.2.2.2.2.2.9.2.2.2.9.2.2.2.2.2.9.2.2.9.9.2.2.2.2.9.2.9.2.9.9.2.9.9.9.9.2.9.2.2.2.2.2.2.9.2.2.2.2.2.9.2.2.2.2.9.9.2.2.2.2.9.9.2.9.2.2.9.9.2.2.9.",
"#.E _ ) ) *.9.#._ E E ) ) <.9.] ) #.1._ ) _ ) _ 9.=.) _ [ ' ,.6.*.&.#.] _ ] ;.9.9.] _ _ ] ] ] *.0.] ) _ 9.;._ _ ] _ _ ) <.2.$.] ;.<.&._ _ _ ) ) ;.<._ _ ' _ _ +.) ",
"y   .     Y A.g 1 y t y : 1.m.5   t w.; $ $ + $ n.E   . . o 3.4.D J f : 7 f ( Z.C.2 o o & < % ' A.y $ 7 c.{ & - 9 + $ X p.j.r : M u.c $ o : $ . U ' # : # : 2 N O ",
"I   O X O ` H.L q Y P f : t.S.i o f 8.: < q < $ Z.{ + + O & u.5. .Q k 7 j Y ] G.G.q $ O , f < @.G.I g k A.%.; 6 a & 2 * k.c.f 7 N a.^ : + 1 2 7 { @.1 N 2 f w B ; ",
"I X & O O ! G.M M >.X.P t t.V.p @ , n ; o 2 : * c.[ + # : & O.H D ( T 0 k T X.F.F.q O O 0 v < @.F.I t k B.%.* : j # 2 ; s.c.k 0 N i.^ 2 # 7 1 0 { @.< N 0 a 0 B 0 ",
"L ; : O + Q D.y 0 k N f 1 3.N.h @ , n < $ ; $ X -.U # : 2 * e F S ( ( 0 j K X.A.A.r 7 % r f < ..B.T r J M.%.: < p # : 1 s.l.k < B u.^ 1 w 2 7 q [ @.< B t r 1 V r ",
"L < < # # Y B.N q g g y 7 1.V.p % & v 0 7 6 : # +.T # # , # e G D ( ( d r Y &.B.B.r 0 ; r 8 : ..B.U k J v.{ : < i : 2 ; y.j.k 0 P e.~ 7 w < 0 q ! O.< B e e 2 B e ",
"L < < # # Y M.M P g r f 6 3.D.i @ ; l ; 2 0 & o -.U o & : ; i Z D ` ` d p Y *.n.n.r # # e 0 < ' B.R y g b.{ 0 4 i * 2 : y.h.g 7 P 7.~ 0 0 # 0 w } O., f f 2 r j : ",
"k 8 < # # V M.g N Q ! +.e -.S.e @ , c , 2 0 7 ; +.T # < # 2 i C D ' ( 0 f Y ] h.b.0 # & r j < ! b.P 8 y c._ : , r ; : + 3.p.k r M e.W 0 q w 0 2 ! ..: 6 e 2 w j @ ",
"N 9 8 < & V v.g a } [ a : -.N.s , < l : 7 0 0 # =.U # < o , i z A X.( t j ` X.a.v.r # # r Y 4 ! c.g 0 f f.E . # i 2 r & r.9.r f f a.W 0 0 t t # R ! , 2 j k p j e ",
"k 8 9 r 4 V j.t a M f M : 3.N.h ; < s ; < 0 0 & +.I @ , : 2 i x n X.` J Y ' +.i.z.p : < 0 b 0 Y j.f P R d.E , : p ; 2 # <.7.t r M a.V q w y N q R [ 7 r Y g a j e ",
"M 0 8 r 4 b h.M k T T k * 1.M.s = , s - 1 0 : o =.N # ; , & 4 l m o._ K b ' =.0.h.p 0 ; r r 8 P h.P Q ' h.) 4 ; e 2 a 2 -.,.0 1 f i.Y 0 r t f 0 P R q b r ; r j @ ",
"y 9 4 e e h a.g g ' ' ! t 3.v.r ; ; s # ; f a & =.U ; # < ; 4 s n *.*.b b ( *.0.g.f 8 . k p 0 B g.I ' +.a.R : ; 5 ; : O +.u.+.+.] u.b 2 w w : r t Y r Y r 9 f f # ",
"t < e v s j u.t f T T U t 1.x.6 # = i @ # , 2 @ +.[ = & : @ 9 u v *.<.K ! X.6.<.a.h 0 . f k e b a.b N ) 0.Y 0 < e 2 a a | +.f P Y a.B 2 a w 6 B g B e 0 f 0 r f , ",
"r ; < v j h 0.0 7 f f f ; -.z.e = , p 2 r p 0 o +.) ; : & ; 9 u l *.6.X.Q ! 0.>.0.f 0 X k Y e v 7.g Y ! 7.P < ; 0 0 r 6 ' ) 0 k M i.~ ' a : N B g k 0 : j j j a , ",
"r < e v s j 7.f R =.' M 0 =.a.h 2 4 p & 6 a r # } ! e e e < 4 u s 6.6.' Q =.0.*.7.j f e Q ..p h 6.! ] o.0.P r 0 4 6 q $ ( +.P Y Y 9.Y Q < q g t k j e 0 f Y g p , ",
"q 4 e r s p >.0 k T P k r { i.s e 6 5 < k B j ; ! B 6 r 0 ; , u v 6.<.f r @.7.o.6.p < < r Y a j >.=.6.' 6.B e e , < a < R ) f f k 7.Y Y : f t 0 g h < e j 2 r p , ",
"r 6 e e j p @.: 0 Y Y N r ) 0.i e 3 6 ; 0 r 0 : Q P 6 ; 6 : 4 5 h *.' < p *.0.X.>.T 0 < r g g b +.' +.' o.k r : < : p 0 T Y q b b 7.m Q g f P P f j 0 r a p f p , ",
"0 0 p 4 r s X.r t R T t : R 7.e 4 , i 6 B P a ; U B 6 , 4 p e 5 s ( >.b T 0.q.' ' ) 0 < f p . s o.a +.' ! B a 4 e a r ; Y K w Y B ,.b Y Q f B f 2 f e 0 , r N r - ",
"0 0 r 4 r s ' a f f a f 0 T >.r 4 4 e 0 B Y B : P N 0 0 # d 9 5 s Y 0.! ! 7.q.` / P 4 < g p O d X.B +.' ' j r < 0 j Y r V W B P Y +.b K ! t 2 r f a e p a ; r e ; ",
"0 0 p , i i ' e a Y R R f b o.i ; i 4 @ 2 r r , b k , < , r u 5 d J >.;.v P q.` ! f : e R P e j ' ` 6.R o.p r 0 < < a 0 B ' 7.6.>.o.c Y Y g r f U p 0 Y b r r r > ",
", & r < < i ^ r M Q ! N : k ..h i 4 4 ; 6 B Q r k j , 8 < p e 4 e Q 0.` d T <.! W f b / <.! ! b / ) ] +.' j k 0 < < a < k b Y P Y ! v m k 0 g j Y p r k ( ` j e > ",
"r < < 8 , v Q B ,.1.,.=.) T ! i v 4 9 6 e r 0 @ j j e r p j 9 5 u T d.j Y 7.] W Y j Y W X.] ' b ~ k u.7.Q p 0 < , ; 0 6 j 4 r B g Q c b g e g g Y p e k Y ' P 0 , ",
"b e , r 4 s Q r ! } O.} T b ! e s i 4 4 r P P : d p 0 r j p 4 5 i b =./ =.a.>.K Y s Y r R +.a s Q Y ' ' ' r b f = a g , p 4 f ) P Y s b k q r < R r r Y b k B p 6 ",
"b e 0 j 4 c W , ; } 7.7.! d Q 0 6 0 4 < r f j 6 i 7 < i k r u 5 5 s Q >.>.0.` j Y s M j R U , s W =.q.u./ e p r @ r b : p e k b b Y h v 0 q 8 O ! a e r 0 : f p 0 ",
"b p p j 4 s V 6 U 6.0.=.r ; p e , 4 e 4 r p 0 O 9 r 0 9 d v i 3 3 v ! X.) b 4 j W b k j ! 2 , s K +.>.! b r j r @ # r < p p ! R R Y h p o 4 : O b v a 0 4 6 f f 4 ",
"h j k j 4 h m 6 Y r.i.+.b 3 , p 6 r 5 4 k B b < 9 r r ; 0 m 9 , 4 m Q ' Y j < h m b g B 7.: < h b +.d.,.K e p < = k Y r e 0 r r p b s v p - - 4 r b b N r g Y i 4 ",
"a k W b 4 l b p [ } O.} k , , s a r , < k B B < > 6 < p 6 j 9 , 4 b >.! =.' , s m v g a +.1 , s b Q [ u.! 4 k 0 ; r a 4 e 4 a k j v h v j , > h W m Y Y ) k B 4 O ",
"s j ` B , s i 0 a.x.x.z.a.4 > e v 4 - o 6 p r , - 3 ; p 2 s 9 > < v =.v ] Q > s b j g ` <.f , s j Y } ' W 4 r < ; 0 Y g i , f _ P v m m j , > s m b r ' a.Y p > 4 ",
"p v ` V > , > @ M 7.u.u.| : > 4 p , = # B ! P 2 > , < N 6 s e > 4 j ! j ! b - p b s j ,.i.+.f i < ! 9.,.m 9 a : = t N a r , g ) J v b h e > > p m b e f R j 6 = h ",
"d k Y Y > > - 0 +.v.b.p.R = > < p < ; , ! } Y 2 = 6 6 p r s 5 ; , s Y <.=.X., u v j j +.) ( 8 - - +.>.+.h 0 ! f = j ' M e 3 N } P 9 4 > > > > p b v s 4 , ; , - j ",
"h a j P - > - , | i.u.+.! , ; p k r > > j h a , - e 6 2 5 s 5 , 3 c Y X.+.] > p v v a Y B f > - - | | +.j < P 0 , b =.P i e b Y P < > > > - - p v b n v Q < , > j ",
"4 : 0 b - - > : -.h.h.h.7.4 - p k 9 > > s v p - , 5 < a B u 3 = 3 v Q 7.! P > p v v 0 N P < - > > ! T 7.f - a 4 @ - 0 p s < a M d > > - - > - 4 9 9 9 9 7.6 = - k ",
"= @ - f - - - @ N e.7.R 2 @ , i h p > > s b p > - 6 6 a V < , ; 3 h X.a.X.P , p b v 4 Y +.; - - ; B | i.p < ) r - - 9 s 3 a 0.P ] 4 - - > - - - - - > , O.< - - j ",
"- = @ @ - - = a 1.U } t.7.0 = e B a - - s n p = - - 6 a j : = ; > h T Y ' ' = i v v 0 ' +.@ = - - P d.:.e < ! r = - > > = f u.B ] 8 - - - - - - - - - < ^ < - - e ",
"- - = = = - = < B -.u.-.} < = ; 3 - = - l c i = - @ f 6 a , = = < h O.B ' M = i c s 2 | [ = = = = Y d.-.e = B 0 = - - - = , Y P B , - - - = - = - - - , V < = - @ ",
"= - - - = = = , M } u.[ t @ = = = = - - 3 s i = - = e 6 ; = ; = , v =.-.W T - 5 4 - ; +.Y = - = - Y ,.M 6 @ B 0 = = = = - = r P a = - = - - - = - = = = 3 = - = = ",
"- = = = = = = , k B +.} r = = > = = = = = = , = = 6 B 6 @ @ = = > v W @.I W - = = = ; B B # = = = N 2 - = - v 6 = = ; = = = t P a = = = = = = - - = - = @ = = = = ",
"= = = = = = = @ o @ r a f = = = = = = = = = = = = 6 Y a a ; = = = i I } V N - = = = ; N ! = @ = = = @ = = = = = = = = = = O r N r = = = = = = = = = = = = @ = = = ",
"= = = @ = = = = = = @ = @ = = = = @ = = @ = = = = 6 g a B ; = @ = - B V 6 6 - = = @ - f } = @ = = @ = = = = = = @ = = = = , N k j > = = = = = = = = = = = = = = = ",
"= = = = = = = = = = = = = = = = = = = = = = = = @ < k B B , = = = > B t = @ = = = = = M R @ = = = = = = = @ = = = = = = = = ; ; = = = = @ = = = = = = = = = = = = ",
"@ = @ = @ @ = = @ = = @ @ = @ @ = = = = @ = @ = @ @ a e N ; = = @ = 6 # @ = @ = = = = 6 i @ @ = @ = @ = @ = @ = = @ = @ = @ o @ @ = @ = = @ = @ @ = @ @ @ = = = @ ",
"@ @ = @ @ = @ @ @ @ @ @ = @ @ = @ @ @ @ @ @ = @ = o : : t # @ @ @ @ < 3 @ = @ @ @ @ @ = 3 @ @ @ = @ @ @ = @ @ @ = @ @ = @ @ @ = @ = @ = @ @ @ @ @ @ @ = @ @ @ @ = ",
"@ @ @ @ @ @ @ @ @ @ @ @ @ @ @ @ @ @ @ @ @ @ @ @ @ @ @ o = @ @ @ @ = @ @ @ @ @ @ @ @ @ @ @ @ @ @ @ @ @ @ @ @ @ @ @ @ @ @ @ @ @ @ @ @ @ @ @ @ @ @ @ @ @ @ @ @ @ @ @ ",
"@ @ @ @ @ @ @ @ @ @ @ o @ @ @ @ @ o @ @ @ @ @ o @ @ @ o o @ @ @ @ @ @ @ @ @ @ @ @ o @ @ @ @ @ @ @ @ @ @ @ @ @ @ @ @ @ @ @ @ @ @ @ @ @ @ @ @ @ @ @ o @ @ @ @ @ o @ ",
"@ @ @ @ @ @ @ @ @ @ @ @ @ @ @ @ @ @ @ @ @ @ @ @ @ @ @ @ @ @ @ @ @ @ @ @ @ @ @ @ @ @ @ @ @ @ @ @ @ @ @ @ @ @ @ @ @ @ @ @ @ o @ @ @ @ @ @ @ @ @ @ @ @ @ @ @ @ @ @ @ ",
"@ @ @ o @ @ @ o @ @ @ @ @ @ @ @ @ @ @ @ @ @ @ @ @ o @ @ @ @ o @ @ @ o @ @ @ @ @ @ @ @ @ @ @ @ o @ o @ @ @ o @ @ @ @ o @ @ @ @ @ o @ @ @ @ @ o @ @ @ @ @ @ @ @ @ @ "
};
