/* XPM */
static char *result[] = {
/* columns rows colors chars-per-pixel */
"60 122 177 2 ",
"   c #070A06",
".  c #080A07",
"X  c #0C0D0B",
"o  c #100F0E",
"O  c #0F100E",
"+  c #11100F",
"@  c #0E0F10",
"#  c #100F10",
"$  c #0F1011",
"%  c #131313",
"&  c #181616",
"*  c #171817",
"=  c #191817",
"-  c #16161A",
";  c #191719",
":  c #17181C",
">  c #1B1A1C",
",  c #211D1D",
"<  c #171921",
"1  c #1C1C23",
"2  c #1E1F29",
"3  c #211E23",
"4  c #211F28",
"5  c #1F2027",
"6  c #1F2029",
"7  c #232225",
"8  c #2B2526",
"9  c #24232B",
"0  c #2A262C",
"q  c #2B2A2D",
"w  c #31292B",
"e  c #262632",
"r  c #282731",
"t  c #272834",
"y  c #2C2A34",
"u  c #2D2D3A",
"i  c #322D35",
"p  c #302F3B",
"a  c #2F303D",
"s  c #333235",
"d  c #393334",
"f  c #33323C",
"g  c #3A353C",
"h  c #3C383A",
"j  c #41373D",
"k  c #433D3F",
"l  c #2E2F40",
"z  c #2F3041",
"x  c #343443",
"c  c #393643",
"v  c #3B3944",
"b  c #363749",
"n  c #383748",
"m  c #37384B",
"M  c #3B3B4B",
"N  c #3C3D51",
"B  c #413B44",
"V  c #413E4B",
"C  c #3E4055",
"Z  c #3F4259",
"A  c #43424C",
"S  c #4B454C",
"D  c #444354",
"F  c #4A4553",
"G  c #4C4A54",
"H  c #44455B",
"J  c #494759",
"K  c #46485F",
"L  c #4B4A5B",
"P  c #524D55",
"I  c #534E5B",
"U  c #53525C",
"Y  c #59555D",
"T  c #5A585F",
"R  c #474961",
"E  c #4A4C64",
"W  c #4C4F68",
"Q  c #504E61",
"!  c #4E516A",
"~  c #545364",
"^  c #595865",
"/  c #54556B",
"(  c #5A5A6C",
")  c #535671",
"_  c #555973",
"`  c #5C5C72",
"'  c #565A78",
"]  c #595D79",
"[  c #605F66",
"{  c #5F606E",
"}  c #5D617D",
"|  c #64626C",
" . c #6A606B",
".. c #636274",
"X. c #686870",
"o. c #65657B",
"O. c #69677C",
"+. c #67687D",
"@. c #6B6A7D",
"#. c #726C7C",
"$. c #70717C",
"%. c #5D6282",
"&. c #616683",
"*. c #646986",
"=. c #6A6C84",
"-. c #656B8A",
";. c #6A6E8A",
":. c #716F84",
">. c #6F7086",
",. c #6C718D",
"<. c #737283",
"1. c #7E7A85",
"2. c #74748D",
"3. c #7A7A8C",
"4. c #6D7594",
"5. c #6E7698",
"6. c #737591",
"7. c #737996",
"8. c #7B7C94",
"9. c #747B9B",
"0. c #7B7E98",
"q. c #767FA2",
"w. c #857B81",
"e. c #887C82",
"r. c #827D8C",
"t. c #7E829B",
"y. c #7C84A3",
"u. c #7A85A8",
"i. c #7C89AE",
"p. c #84818D",
"a. c #86879D",
"s. c #8186A2",
"d. c #848AA5",
"f. c #8A8DA6",
"g. c #858EAE",
"h. c #8C8FAA",
"j. c #9293A6",
"k. c #9996A7",
"l. c #9395AC",
"z. c #9A9AAE",
"x. c #8690B2",
"c. c #8C93B2",
"v. c #8794B9",
"b. c #8B96B9",
"n. c #9197B7",
"m. c #949AB7",
"M. c #9B9DB3",
"N. c #949CBB",
"B. c #9DA0B5",
"V. c #9CA2BC",
"C. c #A6A7BB",
"Z. c #939DC0",
"A. c #9FA7C0",
"S. c #9CA9CA",
"D. c #A0A7C1",
"F. c #A3A9C4",
"G. c #AAACC1",
"H. c #A2ACCB",
"J. c #ACB2CD",
"K. c #B5B7C8",
"L. c #BCBDCB",
"P. c #AAB4D2",
"I. c #B2BBD7",
"U. c #BBC2DA",
"Y. c #BCC7E0",
"T. c #C4C8DB",
"R. c #CACDDB",
"E. c #D0D3DF",
"W. c #C5CCE0",
"Q. c #CDD2E3",
"!. c #CDD4EA",
"~. c #D3D7E6",
"^. c #D6DBEA",
"/. c #DADFED",
"(. c #DFE3EF",
"). c #DAE0F0",
"_. c #E5E9F4",
/* pixels */
"> & o X @ X @ X @ X X X # # X # # # % % - - # @ @ X @ X X X X X % % @ X X X X @ @ X X X X & 8 0 & X O X X X % % o X X X ",
"& % o X X X X # X X X X # # # # % % % & > & - # @ @ @ X X X % & % $ $ X X X X X X @ X X X & 7 7 % O X X X # % o X X X @ ",
"o X X X X X X X # X X # # # # # % ; & > 1 > & % % % @ @ X & 7 , * O X @ $ $ X @ X X X X X X % & O X O X X # + + X X X X ",
". X X X X X # @ X # # # % % # # ; > > 1 3 3 > - % % % @ X & , 4 & O X X X $ $ $ $ @ X X X X O O X O O X X X o o X X X o ",
"X X X X X X # X X # X X # % % > > 3 3 4 0 7 3 > - - & - @ X % % % % @ @ $ % > < & $ X X X X X X % % X X X o o X X X X X ",
". X X X X X X X X X X @ # % & 3 3 4 7 0 r 0 4 4 0 9 > - # @ X o % % @ @ $ - 1 5 1 > $ X . X X O + & + X X X X o # # # # ",
"X X X X X X X X X X X @ # # ; 3 0 0 y y p y r i B v 7 % % # X @ # % # % % > 7 7 7 1 - X X X X O & % + X X o X + % & & & ",
"X X @ X X X X # X X # # % & 1 4 r p V V V x i p A v 7 - % # # # @ # - - < 9 f v v y < % O X X X + % X X X X X + % & ; & ",
"X # X o # X o X @ X X # % > 3 r p V ` ..~ F x p p r 1 - % % X @ % % - < 5 f ~ ..( A 9 & $ O X X X @ X X X X X X # - % # ",
"X X X # X @ X X o # o % & > 3 y B [ a.j.8...D p r 4 1 > % % @ @ # - > 1 7 M +.6.=.E y : - % $ X X X X @ X X @ @ # % @ X ",
"X X # X X X X o o o o + # ; 3 i I r.L.W.J.d.( n y 4 1 - % X @ # % % > 1 7 M =.8.>./ f 2 : - $ O X @ @ $ @ @ @ % > - @ @ ",
"X . X X X X X o o o # # # # , i I r.L.Q.J.f.( M p r 1 - % @ @ % # % & 1 5 f ( +.` H y 1 : - $ $ X @ $ $ $ - - > 1 1 % % ",
"X X X X X o X X o o % % # % , 8 B [ k.M.0.o.L v p r 4 3 - # # @ # % - - < e c M c y 5 : $ $ $ X O @ $ - ; 1 3 4 9 4 1 1 ",
"X X X X X X o X o o # # # % & 3 i G :.:.` L N x p r 9 3 - % % @ o # % % - 1 2 9 5 > - - $ $ $ X @ $ : < 4 4 r y u u e 4 ",
"# # # X X @ # # o o # o o o % , q B L L H m n p p y e 4 - - # # # % $ % % - > > : : - $ $ O X O O * 5 7 0 r p n n x u t ",
"% # # # # % # # # o X X o o o & 3 y c n c c x z p y e 1 > - # X # X X $ % - 7 9 : % $ $ $ $ $ O % * 7 q i v P Q Q J n z ",
"- % ; ; ; ; ; ; % # # # % % % & > 7 y u p u p p p p 9 1 < # o X X $ X X O 1 g v 5 $ $ $ $ $ @ $ % - 4 q B Q :.r.6.%.V V ",
"; ; ; ; 3 3 , ; & - % # % % % > y p y r r y u x z p e 3 < - # X X X X X X > v g 5 $ X $ X X @ % - > 4 p I 1.z.G.N.r.` V ",
"4 3 3 3 0 4 4 3 3 > & % % % % 0 P I g e y u x x x z t 4 1 ; % # X X O X X & q q * X O X X X O $ - 3 0 B O.z.R.^.U.l.o.Q ",
"4 8 0 i B B i 4 4 3 1 % % % ; w G I c y z b m m N m z t 4 4 < - $ X X X X O > > & O X X O X X $ - > 0 V #.M.E.).U.l...V ",
"4 0 z V ) ' V z 0 4 1 > % % & 4 y f l x N H H H H H N b a t 2 - $ @ X X X X O $ $ O X X X o X @ # > 3 f I 3.G.I.N.r.~ V ",
"3 0 c / r.r./ V y 0 3 > & & & > 4 e x N R W ! W ! W R N m a 9 1 - $ $ O X   X X O % $ X o o X $ # > 3 0 B [ r.f.6...V c ",
"3 0 B ..M.M.&.V x y 0 7 4 > - < 7 x V W W ) ] ] ] _ ! K C x t 6 < : $ X X X X X X O X % X X X O % - > 3 w V  .=.~ V B i ",
"3 4 c ( j.k.=.L n i r 7 4 > & 1 e n R ) ] %.-.-.%.} } ) E N a t 9 1 $ $ X X X X X X $ X + o % + % % & , 4 i V I B i r r ",
"; 4 i V ` O./ J c y 4 4 1 > & 1 e n R ] -.5.9.y.5.4.4.%.] E D n t 5 - $ X X X O X X X + * * % + o o & , 3 8 d p 0 3 , ; ",
"; 1 4 c Q ( ( Q c r w 4 3 1 < 1 r n K ] 4.i.x.i.u.q.u.9.&./ K n u 9 < % $ O X X X X X + * = & + o o & , , , 4 4 , ; # # ",
"; ; 4 c ( :.:...V i r 0 4 4 1 2 t x C ) 4.i.S.S.v.i.u.5.%./ H n x y 2 * & % X X X X . O + & + + o o % , , ; & % # # o o ",
"# ; ; i Q o.*.( v y 4 4 4 1 2 4 u n H ' 9.A.U.U.S.v.u.4.} / E H n a 5 : * % X X . . O X O O + + . o # - & - # X o X X . ",
"# # ; 4 g B n f 0 3 1 1 1 1 2 e u N E %.x.P.(.).U.Z.y.-.} _ +.` D u 9 > & @ X X . O . O X X X X . o # % % # # X X X X X ",
"o # # ; 4 4 4 4 1 ; - ; ; < 2 e x N W -.g.P.Q.Q.P.x.5.} ) ) o.{ D u 9 1 % @ X . X X O . X . X . . o # % # X @ X X X X X ",
"X o # # ; < 3 ; ; ; < < > 1 4 e l m E %.9.c.D.V.y.,.} _ E H L H M f 9 < % X X X X . X X X . . X X X % # # X X . X X X # ",
". o o # ; ; # ; % % % ; ; 1 4 e l m H ) *.4.0.4.} ) W Z C M x f p y 9 < > & $ X X X X O . X X . X X @ # X X X X # # # # ",
". . X X X % % + @ @ % % - 2 6 t l z N H ! ) _ _ W Z Z M x a t 9 9 < & > q q * X   X X X X X X   X X X X X   X + * * O O ",
". X . X X X X X X X @ % - < e t u z b N Z Z Z Z C C m z a t 9 5 3 ; + & w q = X X   X X X   X   X O % % O X X * q q *   ",
"X X X . X X X X X X @ % - < 9 y u l x b m m m m m x z u t 9 5 5 8 3 % o & & O . X X   X X   O O O % > > %     1 F A 7 X ",
"X . X X X . . X X X X $ % < 9 y u u x z z z z z a u t 9 5 1 < < 3 , & X X X X X X X X X X X O X O & 1 , + X X > C A , O ",
". X X X X X X X X X X X $ : 9 e t u t u u t e 9 9 9 5 5 < * % $ & & % X X X X + O X X X X O O O X O + + + O X + , , O X ",
"X X o X X X X X o % % % $ - 1 9 e e e e t 9 2 : 5 : * % $ O O O X X O O X X + + O O X X O O X O X X + + O O X X     X   ",
"o o X X o X X X X % & & % $ > 1 2 2 1 1 2 < : - $ $ $ $ O X X O X X o X X X X X O O O O X X X X X O + + X X X X X   X X ",
"o o o X X X X X X % & & % $ % - - - - - * - - $ $ X O O O   X X + % o X X X X X O O O O O X X X X X + + X . X X O O O O ",
"o o o o o o # o X X % % % % % % @ $ % % % % # X O O O O     O O O + X X X X X X X X O X X X X X   O O O O O   X   O % * ",
"o o o # o o o o X X X X o X @ % @ @ X @ # % X X   X   O   O     X + + + X X X O X X X X X X   X O     : q q *     O O * ",
"X o o o o o o o X X X X X $ O X X X @ X O X X X   O O O O O   O X + & & O X X X X   X X X X X X   O X q X.X.q       O O ",
"X X o o # o o . X X O X X X X X X X @ @ O X X X X X X   X   O   X , k k > X X X X X X X X X X X   O O q X.X.q     O O O ",
"o # # # o o X X X X X O X X X X X O % & $ O O X O X X O X X X   o d e.w.d X   X X X X X X X O X O X X * s y * X X X X O ",
"# # # # X # # # O X X X X X X X O O % % $ O O X   * s s < O X X X d w.w.d . X X X O X X X X X X O O O O $ $ O O X $ $ $ ",
"& % # # # X X # $ X X X X X X O & & O O X O X X X s $.$.h * O   X = h h > . X O O X X X $ X X X X O + & $ $ $ $ $ $ % - ",
"; ; % # # # X # X $ O X X X X X & & O   X X X     q $.$.C * O   . X * + O X X   X X X X $ O X X O % % % $ $ % $ - : * * ",
"& ; % % @ X # # X X X X X X X X O + O O . . . X X * s s > O O     X O $ X X X X X X X X O O X X $ $ % $ @ @ % % - < < < ",
"# % % # # X X # o X X . . X X X O O O O O X X X O X O O   O   O X X O $ O O       X X X O O O O $ % $ $ $ % < 1 1 2 2 4 ",
"o o o o @ X X X . X X X X X X X O O * * O . + O O O   X O     X X X X X O X X   O X X X   X O O $ $ - - - 1 4 9 e r 9 7 ",
". . o . . @ X X X X o o X . X X O O * = O O + + O O   O     O   X X X X O X X X X O X   X   O O - - - - < 9 t p z p p i ",
". . . X X X X X X O & & X X X X X O O % O X $ $ O O X X X X X X X X X X O X X X X   X       X O - < - : 2 e x M V V v c ",
". . . X X X # X X O & & X X & & O O O O X X $ O O X X X   X O X   X X $ O O X     O X O O     O : 2 5 5 9 a D Q / ~ L F ",
". o . X X X X X   X + + X + 7 8 % O O X X X O O X X X . X   X X X X X $ $ O       O O O X     O : 6 u a f M / @.8.2...~ ",
"o X X X # X X X X X X . . & 7 8 % O X X O O X X X X X X X X X X X X X @ O % * * O X O O O     O - 6 z m v L =.d.C.B.8.@.",
"= + o o X X X o X . X . O + = * O O O O O X X X X X X   X X X X $ $ @ X X - 9 q * X X X       O - 4 z m V ( r.J.~.R.z.r.",
"= + X . . o + + X X . X O . X X O   X O O O X X X X X X   X O $ $ $ $ X X - q q % X   X   X X O - 4 p m V ` g.J.~.R.m.r.",
"O X X . . + = = + X X X X X X X O O   O O O O X X X X X X O & * - % - - $ $ * * O   X X X X X X @ < l N E ` 2.h.F.V.r.>.",
"o O . o o + = = + X X X O o X X O O : * % O O X X X X X X $ * * $ $ - : < - O X X   X O X   X X . - u V V Q ` =.0.8.*.` ",
", , X X & + & o X O X X X X O X X * s h 5 $ X X X X X X X X O $ $ - - < 6 : $ X O   O X X . X . X # 1 u V V K L ` ` ~ V ",
", , o X + + o X   . X X X X X X   : h s : X X X X   X X X X O $ - - : < 5 5 $ X   X .   . X . X X @ % 9 x V n n V V V V ",
"& + o o O O X X O X X X . O . .   O * * O X X   X X X X X X $ * : < < - - - - @     X . X X . X X X X - r l z z u z x c ",
"o X X X X . X X X X X O . . . X X X X X O   X   X X X X X $ * : 5 < - - - - - $ O . . X . X X X X X . % 3 9 i u 9 9 u z ",
"X X . X . . o X O X X   . . O O X X X X @ X X X O $ O $ $ $ : 2 4 4 > - 1 4 < - O X X   . O O X X X X O % 7 q s 6 6 6 9 ",
". X o . X X X X . O X O + 1 q q % X X X X @ X $ $ * - % - : 1 6 r e 1 1 9 9 < - $ X X X . O O O O X X + + = 6 9 5 < < > ",
". . o . X X X X O O O % 7 h { ^ 9 X   X @ @ @ $ : > : < 1 5 9 y p p e 2 1 2 1 - $ @ . X O O % + X . X X O O - - % % O O ",
"X . . o X X X .   O . % 7 C { { q X   X @ @ @ - : 1 5 6 t a b M M b u e 9 2 2 - % @ X   . O + % X . .   X O X O O O O   ",
". X . X X X X X . X .   % 7 g s :   O O O O $ - - 2 6 u c D ~ ~ L N x u e 2 2 < - $ X X   X O O X . . .   . O X O X X X ",
"X X X X X X X o O X O O O % - - O O   O $ $ - < < 2 u v K ` >.>.' R N x l e 4 < - - O $ 7 9 : O X X X X . O X O X X X X ",
". . X X X X X o + & & + O X O X   O   O * : 1 6 2 t x K ] 6.d.d.-.' R N z u 2 2 < % @ 7 Y T q $ X X X X X X O O O O X   ",
". X X o X o X o + & + + % O X . O   O % - > 5 6 t l N ! =.u.N.N.q.%.' H b l e 2 < - @ 9 Y T q $ X X X X O X X X O   X X ",
". . o o X o X X X X X # > & + X X @ @ % < 2 2 t l m H / 4.g.S.H.b.q.*./ V l e < < - O % 8 8 * X X X X X X X . . O . O . ",
". . . . o # X X X o X o * > % X X @ % % < 2 e u x N R } t.A.U.Y.P.b.7.] H z e 2 < $ O X   X   X X X X o X . X X O O o o ",
". . o . X X X o + # X X % $ X X . X X @ - 1 e u x N ! ;.m.U.(._.!.J.s.&.R b e 2 : % O X O   X X . X X X X X X X & + X . ",
"o o . o . X X o % % # X X X X X X . @ @ % 1 2 u b Z ! 4.N.U._._.!.J.s.] V z e < - - O O O O X X X X X X X X X X + + o X ",
". . X X X X X . o o o X X X X .   X X @ - - 2 e v H E } u.H.W.Q.I.n.6.) N u 4 > - % - # O X X X X . . X X X X X + + X   ",
"X . X X X X X . X X X X X X X . X X X X @ - < e n D C ! =.d.A.F.c.9.] R x e < - % % % % O X X   . X & + X X . X X X X X ",
". X . X X X X . X X X X X X X X X X X O X $ - 2 y n m C ! } 7.0.;.] E m t 1 % X X X X X X X X   . & 8 8 & X . X X X X X ",
"X X . # # % # X X o X X # # X X X X X X @ @ - 1 9 y a x m K / _ / L m t 1 - X X X X . . X X X O , 8 d w & . X . X X X X ",
"X   . & 0 9 % X O O X O O X O O O O X X $ $ - < 6 6 t l l z Z Z C x u 6 - @         X   X X X , F G d > + X . . X X o X ",
". X . & q q % X O + X . X O X X X O X X $ $ % - < 6 6 6 e e u z a t 6 : $ $ * % O     O X X X 8 U U q + O X X X X X o o ",
". . . % > > % X X X O O X X X X X X X @ $ $ $ $ < < 6 6 6 6 6 6 6 6 * $ X % q 8 &   O   X . X * y s 1 + . X X + X X + , ",
". . . o % % # X o X . O X X X X   X X X X X $ O % < < 6 6 < < < : : % O X % 8 8 & X O O O . . + * < + X O   O O X o , , ",
". . . . X @ o o X X X X X X X X X X X X   X X O $ - 1 5 2 : - $ O O O X X + * * + + + + X X . o % % O X . X X X X & 8 d ",
"@ @ $ @ . X X X X X X X   X   O X X   X O O O O O % 1 6 < - @ @ X X   O       X + + & + + X . X O   O   X X X . X + 9 p ",
"1 > 1 - X X X @ X X X X X   X . X X   O > , % O X $ 7 7 < $ @ X X X   X X     X o X + + + + + X O     O X o X . . o & > ",
"> > < ; # X X X X X X X X X X o X O X O > > * O X $ > 7 : - @ X X X X   X X X   X X X + = + + o   O   O o X X X X X X X ",
"X # # o # o X X X X O X X   X o = + X X + * O X X O $ * , , + O X X   X O O X X X X + O X X X o O O X X X X . o X X . . ",
". . . X X # o .   X X X o O X o + = O X X X   X     X O > > O X       X O O X X   O * * X X X o O O X X X X X . X X X X ",
". . X . X o X X X X X X O o o X + + O X X X X   X X X X O O O X X X X X + + O X X + , , + X + + O O X X . X . O X X X X ",
". . X X . X . X X X X X O O X X X + X + X X       X X   X   X X X X X + + + O X X % 8 , + X + +   X X X O O X . X X X X ",
". X X . X X X X X + X X X X X X X X + X X X X X X O O   X X X X   O + = * O X X O + + + o X o X o X X X . O X X X . X X ",
". . . . . X X X X + X O & + + + X X + + X X X X X + + O X   X   X O = + + X X X O O X O . X o o X o . . O . X X X X X . ",
"X . X X X . X . X X X % , 8 = + + X X X X X X X X + , , O X   O X X + + X X X X X X X X . o o X X . X X o . . X X X X X ",
"X X X X X X o o X X X * , 7 = + + + X X X X O + X + , > +   X   X X X O   X X X X X X   X . o o o o X . o o X . X X X X ",
"X # # & X X # # X X X # # % # o X X X X . O & & X + = = o . X . X X X . X X X X X   X X X X + + o X . X X X X X X o X o ",
"# # & # # X # # o o X X o . X X X X X X X + , , + X % & X . . O X X . X X X X X X X   X   O * = o X X X O o . X X X X X ",
"X o # # X X X o # o X X X . X . X X X . X + , , + X + % X X X X X X o X X X X X     X X   O , , + X X X X o X X X X X X ",
". . . X X X X X o # o X X o o o O X X X X o = = + X + + X X X X X X X X X X + X O O * % O O , = o X X o X X X X X X X X ",
". . X X . X . o o + & + o X o % $ X X X X X % X + X X O X X X X . X . o . o X X X + 8 , * X O + X . X o X X X X X X X X ",
". . . X . o o X X o % % X X % % $ X X X X X X X X X . X X X X X X . X o X X + X X * 7 8 * X X X o X X . . X . . X X X + ",
"X . . . o o X o o X o X X X o o X X X X X X X X X X . X . X X X X X O o + + + + X X + * + + X + X . . . o X X X X X + + ",
". X o X X X X . X X . . X X o X X X X X X X X X X X X . X X X X . O O o + + * + X X X X X X X X X o o o X X X X X X + + ",
". X X @ X X X X X X X X X X X X X . X X @ X @ X X X X X . X X X X X X X O % , = + X X X X X X X X + + + + o X X o + + & ",
". . X X . X X X X X X X O X X X X . . @ # # # X X X X   X X X X X X X X X + = = + X X + X X X X X o + + o X X X X + + + ",
". X X X X X X O X X X X $ $ X X X X X # - % # X X O   X X X X X X X X X X + + & + + X + X X X X X X o o X X X X X X o o ",
". . X X X X O + X & 7 9 e 9 $ X o # # # 3 1 # # O O X X X X X X X X X X X X + X O X + O X X X X X X X X X X X X X o X X ",
"X . @ . X @ X X % 7 J ( ~ C 7 + % ; , 3 9 7 - % * * O . X X O O + O X X X X X X X o + o X X o X X o X X X X X X X X o o ",
"X . @ @ # X # o + y ( 6.>.^ y * , 3 w x v f 5 > * = + . . X X O + O   X X o X + X X + o X + + & o X X X X X . X X X o o ",
"# % # # o X + O % y ..r.8...h 8 8 g U ..( G f 1 % O O . . X . X O X O   . + = & + X o o o = 8 8 & X . X X X X X X X X X ",
"# # # # X X X + + 0 I O...Y f w h ~ r.j.a.>.G r : O O O X . X X X O   O o + & & + X . X o = 8 8 & X X X X X X X X X X X ",
"X X X X X . @ X * > y g g y 7 w G w.K.R.T.C.#.B 5 $ O X X X . X X X X X X X   O O X X X + % = = + O X X + X X X X X X X ",
". . X X . X X X $ $ * * & & % 0 P r.L./.E.C.@.M 5 $ O X X X X X X X X X   X         X O O % O   + O X o O X o X X X X o ",
". . @ X X . X X X $ $ $ X X % , j  .k.G.C.r.I r * $ O + O O X X X X X X   O % + O O O X O X   O + & X X o X + + X X X X ",
". . @ X X X X . X @ X @ X X X - 8 V #.r.<.^ p > $ O O + O X O X X X X X % = 8 w q 8 * O   O O O % + X X X + + + X X X X ",
". . X X X . X X X X @ @ @ X X # > w S G V p 3 # O   O O X X X X X X O + , s P [ | P q * +   X   X + X X X X o + o X X X ",
". X X X X X X X X X X X # @ X X + > y i 8 & # @ X X X . X X X X   O   + = d P | | P w * +   O O X X X X X X o o X X X o ",
"X X X o X X X X X X @ @ # @ X X X & 7 9 - @ X X X X X . . X X X O   X   + = 8 q q 7 = + O X O O o X X X X X X o X X X X ",
"X X X o X X X . X X X # % % # X . O > * % X X X O X O X X X X X X * q q = + O X X X X X   X + + o o X o X X X X X X o o ",
". X X X X X X X X X X # & % # @ X X % % X X X   X X O + X X X X X q [ X.h * O O   X X X X X O + X o X X X o X X X X + + ",
"X . X X # # X X X X # # & ; # # X % $ X X X X X   X + + O X X X O d 1.p.S , *   O X X X   X X X X X X X X X X X X o + % "
};
