/* XPM */
static char *Screen_Shot_2023_01_25_at_9_11_25_PM_removebg_preview1674842829[] = {
/* columns rows colors chars-per-pixel */
"66 60 202 2 ",
"   c None",
".  c #070206",
"X  c #090307",
"o  c #0C040A",
"O  c #12060D",
"+  c #14080F",
"@  c #18080F",
"#  c #160710",
"$  c #150912",
"%  c #1C0A14",
"&  c #170D19",
"*  c #1C0D1A",
"=  c #180710",
"-  c #1E111E",
";  c #210C16",
":  c #290C17",
">  c #230E1A",
",  c #2B0E1A",
"<  c #25111E",
"1  c #2B131E",
"2  c #33111E",
"3  c #38121E",
"4  c #1E1120",
"5  c #241222",
"6  c #2A1425",
"7  c #2D1B23",
"8  c #271628",
"9  c #2A1629",
"0  c #2D192E",
"q  c #341422",
"w  c #3B1423",
"e  c #321D26",
"r  c #3C172A",
"t  c #331A2C",
"y  c #3C1B2B",
"u  c #391727",
"i  c #2F1A30",
"p  c #321D33",
"a  c #3B1E34",
"s  c #361F38",
"d  c #3C202E",
"f  c #3B2136",
"g  c #362039",
"h  c #3B233C",
"j  c #362036",
"k  c #441626",
"l  c #491727",
"z  c #491728",
"x  c #441A2A",
"c  c #4D1A2A",
"v  c #431728",
"b  c #521B2D",
"n  c #441D31",
"m  c #4A1F34",
"M  c #561F31",
"N  c #40212F",
"B  c #412335",
"V  c #4C2334",
"C  c #43253D",
"Z  c #4E283D",
"A  c #4D2638",
"S  c #552234",
"D  c #5C2437",
"F  c #53253A",
"G  c #5B263B",
"H  c #56293C",
"J  c #5C2A3C",
"K  c #61263A",
"L  c #62293C",
"P  c #602337",
"I  c #3E2541",
"U  c #422742",
"Y  c #442945",
"T  c #4B2C44",
"R  c #472B49",
"E  c #4A2D4B",
"W  c #492742",
"Q  c #522B42",
"!  c #5B2E45",
"~  c #552E4B",
"^  c #4F314D",
"/  c #553342",
"(  c #5B354A",
")  c #4F3150",
"_  c #543455",
"`  c #5E3B53",
"'  c #5B3959",
"]  c #563658",
"[  c #632E41",
"{  c #6A2E43",
"}  c #643244",
"|  c #6B3346",
" . c #62324B",
".. c #6E354A",
"X. c #6B3A4B",
"o. c #72364C",
"O. c #773A4F",
"+. c #643752",
"@. c #6B3853",
"#. c #633C5A",
"$. c #683853",
"%. c #7B3F54",
"&. c #743951",
"*. c #6C4252",
"=. c #67425A",
"-. c #734256",
";. c #7C4156",
":. c #76445A",
">. c #7A455A",
",. c #734959",
"<. c #794A5D",
"1. c #6F4868",
"2. c #684261",
"3. c #714762",
"4. c #724A64",
"5. c #7D5062",
"6. c #7C5069",
"7. c #71546D",
"8. c #833959",
"9. c #82495D",
"0. c #84465B",
"q. c #844C63",
"w. c #894B62",
"e. c #8D4569",
"r. c #855466",
"t. c #8C5266",
"y. c #83546A",
"u. c #855A6E",
"i. c #8B5A6C",
"p. c #91556B",
"a. c #915A6D",
"s. c #8E5B72",
"d. c #925D72",
"f. c #9A5978",
"g. c #86606E",
"h. c #8C6177",
"j. c #9C6277",
"k. c #94647B",
"l. c #9B647A",
"z. c #946579",
"x. c #866A84",
"c. c #9E6C84",
"v. c #9B7183",
"b. c #9F7993",
"n. c #A46B84",
"m. c #A76C89",
"M. c #B3608A",
"N. c #AA738B",
"B. c #AB7B8D",
"V. c #A47389",
"C. c #B1748F",
"Z. c #AC7693",
"A. c #AD7C92",
"S. c #AB7B94",
"D. c #B47B96",
"F. c #BB7F9C",
"G. c #B47B98",
"H. c #AD8298",
"J. c #B68F9E",
"K. c #B5839B",
"L. c #AA909C",
"P. c #AA8DA4",
"I. c #A889A3",
"U. c #BC83A3",
"Y. c #B689A3",
"T. c #BA8AA4",
"R. c #BC8DAB",
"E. c #B787A3",
"W. c #AA91A7",
"Q. c #BB95A9",
"!. c #B497AC",
"~. c #B49DB1",
"^. c #BFA6B3",
"/. c #C48CAC",
"(. c #C492AE",
"). c #C88FB1",
"_. c #C695B3",
"`. c #CD92B5",
"'. c #C49CB4",
"]. c #CA9BB7",
"[. c #C99BB8",
"{. c #C4A4B7",
"}. c #C5A4B9",
"|. c #CCA7BE",
" X c #C8A8BB",
".X c #CCA5C2",
"XX c #CEABC5",
"oX c #D3ABC7",
"OX c #CCB3C6",
"+X c #CCB6C5",
"@X c #D3B4CC",
"#X c #D4BBCE",
"$X c #D5BED1",
"%X c #CFC1CE",
"&X c #D4C0CC",
"*X c #D6C3D3",
"=X c #D9CBD6",
"-X c #DACAD6",
";X c #DCD2DB",
":X c #D6D0D8",
">X c #E2DCE2",
",X c #E9E7E9",
/* pixels */
"                                                                                                                                    ",
"                                                                                                                                    ",
"                                                                                                                                    ",
"                                                                                                                                    ",
"                                                                                                                                    ",
"                                                                                                                                    ",
"                                                          `.`.].oX                                                                  ",
"                                                    n.c.m.n.G.G.T.T.Q.(.oXoX@X                                                      ",
"                                                f.y.X.{ @.0.p.t.9.*.*.*.6.y.k.S.J. X                                                ",
"                                            V.,.x u n [ $.X.J V 2 @ O O O @ > v / u.H.                                              ",
"                                          g.V ; < W @.o.! p * & - 5 - 1 1 1 < & o ; } l.R.                                          ",
"                                      Q.h.7 o e } o.G r 6 > r n ~ ~ ~ ..&.o. .C t ; 2 S w.K.                                        ",
"                                    '.:.; O w K D x t > 2 m J k k k k k C m z b m f u y D q.B.#X                                    ",
"                                =X}.k.7 X 3 z w < w z w % % o o X X X X o % ; 3 D 9.t.:.2.3.n.(.*X                                  ",
"                              $XOXc.y O = ; > > w w $ o X X . . . . . X X X X X $ w ..c.Z.l.p.Z.oX                                  ",
"                            XX.XU.[ 1 % O X % w : o X X . X . . . . X X X X . . o o $ x %.R.|./.].$X                                ",
"                          ).).U.q.q ; O X % w : X # * $ . X . X X X % & * o . . . . X o , >._.@X#X*X>X                              ",
"                        {.N.N.l.W v + X # w : o & i i i 8 $ . . X X % 9 i < o . . . . o @ % ` '.-X;X;X                              ",
"                        n.t.j.>.q 1 o # 9 6 ; 5 h U p t > o . . X . o $ $ o . # % O . X + % < ` }.;X,X                              ",
"                      J.-.( j. .v + X % t 5 6 i R R 0 < % = . X . . . . . . . * t < O . X % k k =.XX,X,X                            ",
"                      M.F T a.H c o = 5 6 6 U h R U * = > % . . X X = & $ $ < i j i 5 o . o : c v 7.%X,X                            ",
"                    F.8.r ` i.k q # % p 5 0 I h h p = X = o . . . X % ; # + < i i s p 4 . . O k L t x.:X                            ",
"                    H.J 5 #.>.< # X % 6 > 9 5 5 8 > o . . . X # X X > 5 % # % 5 i p i * . . X ; L A f L.=X                          ",
"                    N.c - $...> X . % % 5 p & o ; & o . . . . # @ X % p 9 % # * > 4 5 * . . . O x ..7 ,.+X                          ",
"                    f.: 1 9.o.< X X % o 8 s & . X % % o . X # = = X % p p & O = @ O 8 i o . X O ; [ ` T !.                          ",
"                    e.= 7 j.} ; X X 4 O 8 p & . . o % % . o & % X $ 5 i 9 > 4 # O 9 Y U 5 . o % o c a.f c.#X                        ",
"                    ,.= e a.c ; X X 9 & 8 s * . . . = % . . X % # 9 i p & 5 s > X p R I h o o & O < i.( y.^.                        ",
"                    ,.= e a.c > X X 6 5 0 s 8 = . X % & X O . X % % * 0 h E ] h p R R p p 5 X o % $ r.q.` I.                        ",
"                    ,.# 7 p.b % X X % % 0 i p & X = 6 8 5 5 X . X % o > R _ ) ) _ _ R 8 ; ; o o % @ ..l.2.W.                        ",
"                    <.$ < ;.X.+ % O % # % > > % ; 8 6 > > % . X . o * p ~ I g ^ ' ] R 5 & p 8 X % < S D.p.Q.                        ",
"                    l.3 & =.r.$ w O X % 5 > O = 6 8 % X X X X o . X > R _ I R 6.1.] R 4 $ a k X o > S T.B.{.                        ",
"                    G.F $ T i.1 , > X 8 p $ X X & > = . . X % % o o 9 ) _ _ _ ' ' ] R 5 o q k X O k D R.A.}.                        ",
"                    Q.*.$ C %.[ = w = 6 p 5 O . @ & . . . X O % * 8 s ) _ _ _ _ _ ] C $ $ B J o O b O.{._.XX                        ",
"                    '.5.9 a K o., z > 5 i i > o . o . . . . X o # p E _ I I ) _ ] ] C + $ G } X o b ;. XXX#X                        ",
"                      a.Q t Q K J , w , 5 i p $ . o # . . . . . o i ) I 4 $ i ) ] ] h # ; P } o ; b a.+X*X                          ",
"                      C.>.p F b P w 3 9 9 6 p 4 # = o O 5 $ # o 4 p I 4 X . 4 R E U p + : { b + k o.Y.;X;X                          ",
"                      (.d.Q n r u n w 9 i i i i 5 = X * s a 0 j Y g i o . . 4 E h 0 5 o 1 ..q + M a.XX>X                            ",
"                      |.n.$.Q p ; 6 u % & 0 I Y a 5 5 p E ) R ] ) g i 5 $ $ 9 I 6 5 5 . 1 } - + | D.&X                              ",
"                        !.3.! Z > = @ O @ > h _ Y p p I ] ] ] ] _ Y U s < 5 g s % * - o d J o 3 i.].                                ",
"                        &Xc.Q J x = . = 5 6 u U I i i I _ E E ] ] _ E 0 6 h R 0 1 < o - T A @ ..H.                                  ",
"                          }.q.a H q # X - u b x p 0 6 s U 6 9 R E Y p t h E j u y ; . < W 5 q f..X                                  ",
"                          -XR.1.t r : + X $ 3 c V C C p 5 . X > i i h _ T p u H q X o : v q -.).                                    ",
"                            #X/.1.y ; % o . . : S | L k > = = 2 a ~ ) Y 6 1 H x = $ % 1 v / B.                                      ",
"                            -X.XU.0.B % # . . . o # 2 l k k l k z v 0 $ ; 3 1 @ w : @ > / A.                                        ",
"                              +XB.j.a.-.C * O o O o o o o o o o * O o % % + O V Z & + A d.                                          ",
"                                 Xt.{ &.o.X.M l z w ; : % o X X o % % o O < J K , o y d.'.                                          ",
"                                    l.=.B q 1 w b z l l z w % % o O + < J r.| , o y i.                                              ",
"                                      ~.z.` 5 @ @ @ @ @ @ = # , v } 5.r.;.A ; @ / v.                                                ",
"                                          ~.b.u.X.Q U T ! | 5.i.m.l.w.( a 0 A y.S.                                                  ",
"                                                J.P.P.P.E.T.(.K.N.w.$. .-.k.c.                                                      ",
"                                                      #X#X@X.X).F.Z.x.                                                              ",
"                                                                                                                                    ",
"                                                                                                                                    ",
"                                                                                                                                    ",
"                                                                                                                                    ",
"                                                                                                                                    ",
"                                                                                                                                    ",
"                                                                                                                                    ",
"                                                                                                                                    ",
"                                                                                                                                    "
};
