/* XPM */
static char *result[] = {
/* columns rows colors chars-per-pixel */
"60 60 152 2 ",
"   c #030304",
".  c #03050D",
"X  c #07080B",
"o  c #0B0B0D",
"O  c #030513",
"+  c #060912",
"@  c #0B0D13",
"#  c #01031F",
"$  c #050A19",
"%  c #090E19",
"&  c #0C101F",
"*  c #131314",
"=  c #13151B",
"-  c #15181F",
";  c #1B1C1C",
":  c #030726",
">  c #090D24",
",  c #060A28",
"<  c #080D2D",
"1  c #0D1126",
"2  c #0C102A",
"3  c #121623",
"4  c #161822",
"5  c #1C1D23",
"6  c #151729",
"7  c #161A2A",
"8  c #1C1E2C",
"9  c #0A0F39",
"0  c #121433",
"q  c #171B35",
"w  c #1B1F3E",
"e  c #1E2020",
"r  c #1F232D",
"t  c #1F2134",
"y  c #1F233A",
"u  c #232424",
"i  c #23252A",
"p  c #27292C",
"a  c #2C2C2C",
"s  c #232533",
"d  c #272935",
"f  c #2A2B33",
"g  c #23273F",
"h  c #25293B",
"j  c #2D2F38",
"k  c #27333B",
"l  c #2F3134",
"z  c #333333",
"x  c #35363A",
"c  c #3B3B3B",
"v  c #090D40",
"b  c #0D1143",
"n  c #0D114F",
"m  c #111546",
"M  c #161A4F",
"N  c #191E4E",
"B  c #0F165D",
"V  c #1E2242",
"C  c #1F224A",
"Z  c #192056",
"A  c #182B5F",
"S  c #172B5E",
"D  c #212642",
"F  c #262A43",
"G  c #22264B",
"H  c #272D4C",
"J  c #363A47",
"K  c #363A49",
"L  c #2B2F55",
"P  c #242B5E",
"I  c #2B325A",
"U  c #353A50",
"Y  c #3C3F52",
"T  c #363E5C",
"R  c #171C60",
"E  c #1A1F66",
"W  c #1E2363",
"Q  c #1C2472",
"!  c #222A6F",
"~  c #2A316C",
"^  c #393F63",
"/  c #353D68",
"(  c #232972",
")  c #2C4469",
"_  c #39426A",
"`  c #35407D",
"'  c #434343",
"]  c #4C4C4C",
"[  c #4E4E51",
"{  c #4F535E",
"}  c #545455",
"|  c #53555D",
" . c #5A5A5B",
".. c #4A4D61",
"X. c #4B5064",
"o. c #5F5F63",
"O. c #5F6063",
"+. c #517879",
"@. c #646464",
"#. c #64646C",
"$. c #626E6F",
"%. c #6C6C6C",
"&. c #6E6F73",
"*. c #656679",
"=. c #6E7173",
"-. c #717272",
";. c #7B7B7B",
":. c #182083",
">. c #2A3686",
",. c #313C80",
"<. c #4558C5",
"1. c #748385",
"2. c #7C8182",
"3. c #6E8091",
"4. c #6684E1",
"5. c #3CD4E0",
"6. c #48DBE1",
"7. c #848484",
"8. c #8A8B8B",
"9. c #949494",
"0. c #9B9B9B",
"q. c #98AFB5",
"w. c #99B4B5",
"e. c #A3A3A3",
"r. c #A2A9AD",
"t. c #ACACAC",
"y. c #AAB6B6",
"u. c #B4B4B4",
"i. c #BBBBBB",
"p. c #8DA7C3",
"a. c #9CCEDE",
"s. c #BFC0C0",
"d. c #B0C8C8",
"f. c #BDC9CA",
"g. c #B8DFDF",
"h. c #BADFE3",
"j. c #C3C3C3",
"k. c #CCCCCC",
"l. c #C4D0D0",
"z. c #CBD7D7",
"x. c #C5DEDE",
"c. c #D3D3D3",
"v. c #DBDBDB",
"b. c #C2E7E7",
"n. c #CCE3E3",
"m. c #C5ECED",
"M. c #DFE6E6",
"N. c #D0EBEB",
"B. c #CCF2F2",
"V. c #DEF5F5",
"C. c #E5E5E5",
"Z. c None",
/* pixels */
"Z.Z.Z.Z.Z.Z.Z.Z.Z.Z.Z.Z.Z.Z.Z.Z.Z.Z.Z.Z.Z.Z.Z.Z.Z.Z.Z.Z.Z.Z.Z.Z.Z.Z.Z.Z.Z.Z.Z.Z.Z.Z.Z.Z.Z.Z.Z.Z.Z.Z.Z.Z.Z.Z.Z.Z.Z.Z.Z.Z.",
"Z.Z.Z.Z.Z.Z.Z.Z.Z.Z.Z.Z.Z.Z.Z.Z.Z.Z.Z.Z.Z.Z.Z.Z.Z.Z.Z.Z.Z.Z.Z.Z.Z.Z.Z.Z.Z.Z.Z.Z.Z.Z.Z.Z.Z.Z.Z.Z.Z.Z.Z.Z.Z.Z.Z.Z.Z.Z.Z.Z.",
"Z.Z.Z.Z.Z.Z.Z.Z.Z.Z.Z.Z.Z.Z.Z.Z.Z.Z.Z.Z.Z.Z.Z.Z.Z.Z.Z.Z.Z.Z.Z.Z.Z.Z.Z.Z.Z.Z.Z.Z.Z.Z.Z.Z.Z.Z.Z.Z.Z.Z.Z.Z.Z.Z.Z.Z.Z.Z.Z.Z.",
"Z.Z.Z.Z.%.Z.Z.Z.Z.Z.Z.Z.Z.Z.Z.Z.Z.Z.Z.Z.Z.Z.Z.Z.Z.Z.Z.Z.Z.Z.Z.Z.Z.Z.Z.Z.Z.Z.Z.Z.Z.Z.Z.Z.Z.Z.Z.Z.Z.Z.Z.Z.Z.Z.Z.%.Z.Z.Z.Z.",
"Z.Z.Z.Z.c Z.Z.Z.Z.Z.] Z.Z.Z.Z.Z.Z.Z.Z.Z.Z.Z.Z.Z.Z.Z.Z.Z.Z.Z.Z.Z.Z.Z.Z.Z.Z.Z.Z.Z.Z.Z.Z.Z.Z.Z.Z.Z.Z.] Z.Z.Z.Z.Z.c Z.Z.Z.Z.",
"Z.Z.Z.Z.@.8.Z.Z.Z.Z.c Z.Z.Z.Z.Z.Z.Z.Z.Z.Z.Z.Z.Z.Z.Z.Z.Z.Z.Z.Z.Z.Z.Z.Z.Z.Z.Z.Z.Z.Z.Z.Z.Z.Z.Z.Z.Z.Z.c Z.Z.Z.Z.8.@.Z.Z.Z.Z.",
"Z.Z.Z.Z.-.e.Z.Z.Z.Z.] Z.z Z.Z.Z.Z.Z.Z.#.Z.Z.Z.u Z.Z.Z.Z.Z.Z.Z.Z.Z.Z.Z.Z.u Z.Z.Z.#.Z.Z.Z.Z.Z.Z.z Z.] Z.Z.Z.Z.t.-.Z.Z.Z.Z.",
"Z.Z.Z.Z.Z.t.9.Z.Z.7.} Z.} Z.Z.Z.Z.* ( 4 Z.Z.c } Z.Z.Z.Z.Z.Z.Z.Z.Z.Z.Z.Z.} c Z.Z.4 ( * Z.Z.Z.Z.} Z.} 7.Z.Z.9.t.Z.Z.Z.Z.Z.",
"Z.Z.Z.Z.Z.u.u. .Z.7.@.Z.]  .Z.Z.} 8 8 R c %. .z } Z.Z.] Z.Z.Z.Z.' Z.Z.} z  .-.x R 8 s | Z.Z. .[ Z.@.7.Z. .u.t.Z.Z.Z.Z.Z.",
"Z.Z.Z.Z.Z.t.i.u.$.9.%.Z.' 9.Z.Z.> ! 3 m > } e @ c Z.Z.i Z.Z.Z.Z.i Z.Z.c o e } 1 m 3 W > Z.Z.9.' Z.%.9.$.u.i.t.Z.Z.Z.Z.Z.",
"Z.Z.Z.Z.Z.9.u.t.h.t.-.Z.' 0.7.5 G N > & z } @ @ a Z.Z.a Z.Z.Z.Z.a Z.Z.z * @ } f > 1 N G e 7.0.' Z.;.u.h.u.u.9.Z.Z.Z.Z.Z.",
"Z.Z.Z.Z.Z.Z.t.e.m.i.8.Z.%.0.e.C s 6 n >  .. @ * u Z.p a Z.Z.Z.Z.a p Z.e * @ .  .> n 6 i C e.0.%.Z.7.u.m.e.t.Z.Z.Z.Z.Z.Z.",
"Z.Z.Z.Z.Z.Z.e.u.B.u.0.' ; 9.8. .u = %  .* $ $ e * Z.; c Z.Z.Z.Z.c * Z.* ; $ $ =  .@ = i  .8.9.e ' 0.u.B.t.e.Z.Z.Z.Z.Z.Z.",
"Z.Z.Z.Z.Z.Z.8.i.m.j.t.* 5 0.] i.' * } o.. $ $ p * Z.c   b     b X c Z.* a O $ . o.} * ' i.] 0.; * t.s.m.i.8.Z.Z.Z.Z.Z.Z.",
"Z.Z.Z.Z.Z.Z.Z.t.x.j.0.& = e.i s.j.t.8.o : $ # z z ; ] - :.% % :.= ] ; x z # $ : o 8.t.j.s.u e.& @ 0.j.n.t.Z.Z.Z.Z.Z.Z.Z.",
"Z.Z.Z.Z.Z.Z.Z.0.l.j.' + % e.p 9.k.u.-.o b O   z a ' } D Q + + Q g } ' a z   O m + -.u.k.9.p e.& O ' j.l.0.Z.Z.Z.Z.Z.Z.Z.",
"Z.Z.Z.Z.Z.Z.Z.Z.u.z.@ . + e.i p ' t.8.= Z % * z z ' p >.(     ( >.s ] z z * @ Z = 8.t.J p i 0.X   @ z.u.Z.Z.Z.Z.Z.Z.Z.Z.",
"Z.Z.Z.Z.Z.Z.Z.Z.e.N.} . . 8.z i L * 1.= y o i a c %.r ~ ~     ~ / 5 #.c a u + y = 1.* L i x 9.. O } N.e.Z.Z.Z.Z.Z.Z.Z.Z.",
"Z.Z.Z.Z.Z.Z.Z.Z.Z.n.} ' . [ 0.i d * j x i O a z c c I / F     H / ~ c c a z . i c k * f i 9.[ . J  .n.Z.Z.Z.Z.Z.Z.Z.Z.Z.",
"Z.Z.Z.Z.Z.Z.Z.Z.Z.s.y.Z.  @ k.s = 0 ;  .; o a p ] * ` T r     r ^ / = ] a p o 5 } ; 0 ; s k.@ . Z.y.j.Z.Z.Z.Z.Z.Z.Z.Z.Z.",
"Z.Z.Z.Z.Z.Z.Z.Z.Z.Z.b.%.@.@ =.*.* 8 u 2.o u p z = g K / -     ; / K F * z a u o 2.u 8 * *.%.o @.-.b.Z.Z.Z.Z.Z.Z.Z.Z.Z.Z.",
"Z.Z.Z.Z.Z.Z.Z.Z.Z.Z.j.w.Z.  z 8.0 i 5 w.  z a z - ,._ ~ o @ o o ~ _ ,.- l a z   w.e i 0 8.z   Z.w.j.Z.Z.Z.Z.Z.Z.Z.Z.Z.Z.",
"Z.Z.Z.Z.Z.Z.Z.Z.Z.Z.Z.d.-.Z.0.7.M i 5 a.; z z ; d K _ p O.} } O.s ^ J h ; z z ; a.; p M 7.e.Z.-.d.Z.Z.Z.Z.Z.Z.Z.Z.Z.Z.Z.",
"Z.Z.Z.Z.Z.Z.Z.Z.Z.Z.Z.Z.g.Z.k.e.y V z =.| z a Z.Z.U ~ a 9.Z.Z.9.a ~ U Z.Z.a z | &.z C w e.k.Z.g.Z.Z.Z.Z.Z.Z.Z.Z.Z.Z.Z.Z.",
"Z.Z.Z.Z.Z.Z.Z.Z.Z.Z.Z.Z.Z.Z.u.k.7 7 ] 0.4.c ;.Z.Z.Z.e 7.e.Z.Z.e.7.; Z.Z.Z.;.c 4.0.] 5 6 c.u.Z.Z.Z.Z.Z.Z.Z.Z.Z.Z.Z.Z.Z.Z.",
"Z.Z.Z.Z.Z.Z.Z.Z.Z.Z.Z.Z.Z.Z.;.v.Y 4 e.t.&.<.Z.Z.Z.[ @.2.t.Z.Z.t.;.%.[ Z.Z.Z.<.&.t.e.4 Y c.;.Z.Z.Z.Z.Z.Z.Z.Z.Z.Z.Z.Z.Z.Z.",
"Z.Z.Z.Z.Z.Z.Z.Z.Z.Z.Z.Z.Z.Z. .c.j.m e.0.e.' Z.Z.a ; @.7.u.Z.Z.u.7.@.u a Z.Z.' e.9.e.m j.c. .Z.Z.Z.Z.Z.Z.Z.Z.Z.Z.Z.Z.Z.Z.",
"Z.Z.Z.Z.Z.Z.Z.Z.Z.Z.Z.Z.Z.Z.Z.k.c.@.8.e.7.] f ' * ; %.7.i.Z.Z.i.7.@.; * ' f ] 7.e.8.o.v.k.Z.Z.Z.Z.Z.Z.Z.Z.Z.Z.Z.Z.Z.Z.Z.",
"Z.Z.Z.Z.Z.Z.Z.Z.Z.Z.Z.Z.Z.Z.Z.s.c.v.i.t.7.c z j p o @.9.u.Z.Z.u.9.O.o u l f c 7.t.i.c.c.i.Z.Z.Z.Z.Z.Z.Z.Z.Z.Z.Z.Z.Z.Z.Z.",
"Z.Z.Z.Z.Z.Z.Z.Z.Z.Z.Z.Z.Z.Z.Z.8.c.v.i.f.p.} u F a X %.0.9.Z.Z.9.0.%.o a F u | p.f.s.C.c.8.Z.Z.Z.Z.Z.Z.Z.Z.Z.Z.Z.Z.Z.Z.Z.",
"Z.Z.Z.Z.Z.Z.Z.Z.Z.Z.Z.Z.Z.Z.Z. .c.C.V.i.8.} * P z o %.0.-.Z.Z.-.0.%.X z P * } 8.i.V.M.c. .Z.Z.Z.Z.Z.Z.Z.Z.Z.Z.Z.Z.Z.Z.Z.",
"Z.Z.Z.Z.Z.Z.Z.Z.Z.Z.Z.Z.Z.Z.Z.7.V.C.j.u.0.O.o ~ a X %.0.@.Z.Z.@.0.%.X a ~ @ o.0.u.j.C.V.7.Z.Z.Z.Z.Z.Z.Z.Z.Z.Z.Z.Z.Z.Z.Z.",
"Z.Z.Z.Z.Z.Z.Z.Z.Z.Z.Z.Z.Z.Z.Z.Z.k.j.k.u.e.-.x q @ . %.0.%.Z.Z.%.0.%.. @ q z -.e.u.k.j.k.Z.Z.Z.Z.Z.Z.Z.Z.Z.Z.Z.Z.Z.Z.Z.Z.",
"Z.Z.Z.Z.Z.Z.Z.Z.Z.Z.Z.Z.Z.Z.Z.Z.u.c.v.c.i.;.' 3 >    .0.0.Z.Z.0.0. .  > 3 ' ;.i.c.v.c.u.Z.Z.Z.Z.Z.Z.Z.Z.Z.Z.Z.Z.Z.Z.Z.Z.",
"Z.Z.Z.Z.Z.Z.Z.Z.Z.Z.Z.Z.Z.Z.Z.Z.Z.j.i...7.7.c B : Z.c 0.s.Z.Z.s.0.c Z., B c 7.8.{ i.j.Z.Z.Z.Z.Z.Z.Z.Z.Z.Z.Z.Z.Z.Z.Z.Z.Z.",
"Z.Z.Z.Z.Z.Z.Z.Z.Z.Z.Z.Z.Z.Z.Z.Z.Z.Z.$ m 5 E M 2 + Z.; e.0.p a 0.0.; Z.$ < M E 5 v $ Z.Z.Z.Z.Z.Z.Z.Z.Z.Z.Z.Z.Z.Z.Z.Z.Z.Z.",
"Z.Z.Z.Z.Z.Z.Z.Z.Z.Z.Z.Z.Z.Z.Z.Z.Z.e.e.6 f w - v  .Z.a e...k.k...e.a Z. .v 3 y d 6 e.Z.Z.Z.Z.Z.Z.Z.Z.Z.Z.Z.Z.Z.Z.Z.Z.Z.Z.",
"Z.Z.Z.Z.Z.Z.Z.Z.Z.Z.Z.Z.Z.Z.Z.Z.Z.;.v.C.j.8.@.9 Z.Z.&.9.A k.c.A 9.%.Z.Z.9 @.8.j.C.v.;.Z.Z.Z.Z.Z.Z.Z.Z.Z.Z.Z.Z.Z.Z.Z.Z.Z.",
"Z.Z.Z.Z.Z.Z.Z.Z.Z.Z.Z.Z.Z.Z.Z.Z.Z.Z.v.C.i.0.%.< Z.Z.Z.8.) r.r.) 8.Z.Z.Z.< %.9.i.C.Z.Z.Z.Z.Z.Z.Z.Z.Z.Z.Z.Z.Z.Z.Z.Z.Z.Z.Z.",
"Z.Z.Z.Z.Z.Z.Z.Z.Z.Z.Z.Z.Z.Z.Z.Z.Z.Z.-.v.j.e.%.v Z.Z.Z.%.3.5.5.3.%.Z.Z.Z.v %.e.k.v.-.Z.Z.Z.Z.Z.Z.Z.Z.Z.Z.Z.Z.Z.Z.Z.Z.Z.Z.",
"Z.Z.Z.Z.Z.Z.Z.Z.Z.Z.Z.Z.Z.Z.Z.Z.Z.Z.Z.c.v.0.} * Z.Z.Z.X 0.6.6.0.X Z.Z.Z.- } e.v.Z.Z.Z.Z.Z.Z.Z.Z.Z.Z.Z.Z.Z.Z.Z.Z.Z.Z.Z.Z.",
"Z.Z.Z.Z.Z.Z.Z.Z.Z.Z.Z.Z.Z.Z.Z.Z.Z.Z.Z.8.v.@.8.8 Z.Z.Z.' e.+.+.e.c Z.Z.Z.8 7.@.v.8.Z.Z.Z.Z.Z.Z.Z.Z.Z.Z.Z.Z.Z.Z.Z.Z.Z.Z.Z.",
"Z.Z.Z.Z.Z.Z.Z.Z.Z.Z.Z.Z.Z.Z.Z.Z.Z.Z.Z.Z.s.i.7.x Z.Z.Z.Z.e. . .e.Z.Z.Z.Z.x 7.i.i.Z.Z.Z.Z.Z.Z.Z.Z.Z.Z.Z.Z.Z.Z.Z.Z.Z.Z.Z.Z.",
"Z.Z.Z.Z.Z.Z.Z.Z.Z.Z.Z.Z.Z.Z.Z.Z.Z.Z.Z.Z.-.c.8.} Z.Z.Z.Z.7.;.;.7.Z.Z.Z.Z.} 8.c.-.Z.Z.Z.Z.Z.Z.Z.Z.Z.Z.Z.Z.Z.Z.Z.Z.Z.Z.Z.Z.",
"Z.Z.Z.Z.Z.Z.Z.Z.Z.Z.Z.Z.Z.Z.Z.Z.Z.Z.Z.Z.8.c.0.O.Z.Z.Z.Z.] Z.Z.} Z.Z.Z.Z.o.0.c.7.Z.Z.Z.Z.Z.Z.Z.Z.Z.Z.Z.Z.Z.Z.Z.Z.Z.Z.Z.Z.",
"Z.Z.Z.Z.Z.Z.Z.Z.Z.Z.Z.Z.Z.Z.Z.Z.Z.Z.Z.Z.Z.j.i.@.Z.Z.Z.Z.} Z.Z.} Z.Z.Z.Z.@.i.Z.Z.Z.Z.Z.Z.Z.Z.Z.Z.Z.Z.Z.Z.Z.Z.Z.Z.Z.Z.Z.Z.",
"Z.Z.Z.Z.Z.Z.Z.Z.Z.Z.Z.Z.Z.Z.Z.Z.Z.Z.Z.Z.Z.9.j.%. .Z.Z.Z.Z.Z.Z.Z.Z.Z.Z. .-.s.9.Z.Z.Z.Z.Z.Z.Z.Z.Z.Z.Z.Z.Z.Z.Z.Z.Z.Z.Z.Z.Z.",
"Z.Z.Z.Z.Z.Z.Z.Z.Z.Z.Z.Z.Z.Z.Z.Z.Z.Z.Z.Z.Z.Z.s.-.' Z.Z.Z.Z.Z.Z.Z.Z.Z.Z.' -.Z.Z.Z.Z.Z.Z.Z.Z.Z.Z.Z.Z.Z.Z.Z.Z.Z.Z.Z.Z.Z.Z.Z.",
"Z.Z.Z.Z.Z.Z.Z.Z.Z.Z.Z.Z.Z.Z.Z.Z.Z.Z.Z.Z.Z.Z.8.u.} Z.Z.Z.Z.Z.Z.Z.Z.Z.Z.} u.8.Z.Z.Z.Z.Z.Z.Z.Z.Z.Z.Z.Z.Z.Z.Z.Z.Z.Z.Z.Z.Z.Z.",
"Z.Z.Z.Z.Z.Z.Z.Z.Z.Z.Z.Z.Z.Z.Z.Z.Z.Z.Z.Z.Z.Z.Z.i.%.Z.Z.Z.Z.Z.Z.Z.Z.Z.Z.@.i.Z.Z.Z.Z.Z.Z.Z.Z.Z.Z.Z.Z.Z.Z.Z.Z.Z.Z.Z.Z.Z.Z.Z.",
"Z.Z.Z.Z.Z.Z.Z.Z.Z.Z.Z.Z.Z.Z.Z.Z.Z.Z.Z.Z.Z.Z.Z.e.7.p Z.Z.Z.Z.Z.Z.Z.Z.a 7.e.Z.Z.Z.Z.Z.Z.Z.Z.Z.Z.Z.Z.Z.Z.Z.Z.Z.Z.Z.Z.Z.Z.Z.",
"Z.Z.Z.Z.Z.Z.Z.Z.Z.Z.Z.Z.Z.Z.Z.Z.Z.Z.Z.Z.Z.Z.Z.Z.9.} Z.Z.Z.Z.Z.Z.Z.Z.[ 9.Z.Z.Z.Z.Z.Z.Z.Z.Z.Z.Z.Z.Z.Z.Z.Z.Z.Z.Z.Z.Z.Z.Z.Z.",
"Z.Z.Z.Z.Z.Z.Z.Z.Z.Z.Z.Z.Z.Z.Z.Z.Z.Z.Z.Z.Z.Z.Z.Z.Z.;. .Z.Z.Z.Z.Z.Z.} ;.Z.Z.Z.Z.Z.Z.Z.Z.Z.Z.Z.Z.Z.Z.Z.Z.Z.Z.Z.Z.Z.Z.Z.Z.Z.",
"Z.Z.Z.Z.Z.Z.Z.Z.Z.Z.Z.Z.Z.Z.Z.Z.Z.Z.Z.Z.Z.Z.Z.Z.Z.7.; Z.Z.Z.Z.Z.Z.e 7.Z.Z.Z.Z.Z.Z.Z.Z.Z.Z.Z.Z.Z.Z.Z.Z.Z.Z.Z.Z.Z.Z.Z.Z.Z.",
"Z.Z.Z.Z.Z.Z.Z.Z.Z.Z.Z.Z.Z.Z.Z.Z.Z.Z.Z.Z.Z.Z.Z.Z.Z.Z.c Z.Z.Z.Z.Z.Z.c Z.Z.Z.Z.Z.Z.Z.Z.Z.Z.Z.Z.Z.Z.Z.Z.Z.Z.Z.Z.Z.Z.Z.Z.Z.Z.",
"Z.Z.Z.Z.Z.Z.Z.Z.Z.Z.Z.Z.Z.Z.Z.Z.Z.Z.Z.Z.Z.Z.Z.Z.Z.Z.Z.' Z.Z.Z.Z.' Z.Z.Z.Z.Z.Z.Z.Z.Z.Z.Z.Z.Z.Z.Z.Z.Z.Z.Z.Z.Z.Z.Z.Z.Z.Z.Z.",
"Z.Z.Z.Z.Z.Z.Z.Z.Z.Z.Z.Z.Z.Z.Z.Z.Z.Z.Z.Z.Z.Z.Z.Z.Z.Z.Z.Z.Z.Z.Z.Z.Z.Z.Z.Z.Z.Z.Z.Z.Z.Z.Z.Z.Z.Z.Z.Z.Z.Z.Z.Z.Z.Z.Z.Z.Z.Z.Z.Z.",
"Z.Z.Z.Z.Z.Z.Z.Z.Z.Z.Z.Z.Z.Z.Z.Z.Z.Z.Z.Z.Z.Z.Z.Z.Z.Z.Z.Z.Z.Z.Z.Z.Z.Z.Z.Z.Z.Z.Z.Z.Z.Z.Z.Z.Z.Z.Z.Z.Z.Z.Z.Z.Z.Z.Z.Z.Z.Z.Z.Z.",
"Z.Z.Z.Z.Z.Z.Z.Z.Z.Z.Z.Z.Z.Z.Z.Z.Z.Z.Z.Z.Z.Z.Z.Z.Z.Z.Z.Z.Z.Z.Z.Z.Z.Z.Z.Z.Z.Z.Z.Z.Z.Z.Z.Z.Z.Z.Z.Z.Z.Z.Z.Z.Z.Z.Z.Z.Z.Z.Z.Z.",
"Z.Z.Z.Z.Z.Z.Z.Z.Z.Z.Z.Z.Z.Z.Z.Z.Z.Z.Z.Z.Z.Z.Z.Z.Z.Z.Z.Z.Z.Z.Z.Z.Z.Z.Z.Z.Z.Z.Z.Z.Z.Z.Z.Z.Z.Z.Z.Z.Z.Z.Z.Z.Z.Z.Z.Z.Z.Z.Z.Z."
};
