/* XPM */
static char *result[] = {
/* columns rows colors chars-per-pixel */
"60 60 152 2 ",
"   c #030304",
".  c #03050D",
"X  c #07080B",
"o  c #0B0B0D",
"O  c #030513",
"+  c #060912",
"@  c #0B0D13",
"#  c #01031F",
"$  c #050A19",
"%  c #090E19",
"&  c #0C101F",
"*  c #131314",
"=  c #13151B",
"-  c #15181F",
";  c #1B1C1C",
":  c #030726",
">  c #090D24",
",  c #060A28",
"<  c #080D2D",
"1  c #0D1126",
"2  c #0C102A",
"3  c #121623",
"4  c #161822",
"5  c #1C1D23",
"6  c #151729",
"7  c #161A2A",
"8  c #1C1E2C",
"9  c #0A0F39",
"0  c #121433",
"q  c #171B35",
"w  c #1B1F3E",
"e  c #1E2020",
"r  c #1F232D",
"t  c #1F2134",
"y  c #1F233A",
"u  c #232424",
"i  c #23252A",
"p  c #27292C",
"a  c #2C2C2C",
"s  c #232533",
"d  c #272935",
"f  c #2A2B33",
"g  c #23273F",
"h  c #25293B",
"j  c #2D2F38",
"k  c #27333B",
"l  c #2F3134",
"z  c #333333",
"x  c #35363A",
"c  c #3B3B3B",
"v  c #090D40",
"b  c #0D1143",
"n  c #0D114F",
"m  c #111546",
"M  c #161A4F",
"N  c #191E4E",
"B  c #0F165D",
"V  c #1E2242",
"C  c #1F224A",
"Z  c #192056",
"A  c #182B5F",
"S  c #172B5E",
"D  c #212642",
"F  c #262A43",
"G  c #22264B",
"H  c #272D4C",
"J  c #363A47",
"K  c #363A49",
"L  c #2B2F55",
"P  c #242B5E",
"I  c #2B325A",
"U  c #353A50",
"Y  c #3C3F52",
"T  c #363E5C",
"R  c #171C60",
"E  c #1A1F66",
"W  c #1E2363",
"Q  c #1C2472",
"!  c #222A6F",
"~  c #2A316C",
"^  c #393F63",
"/  c #353D68",
"(  c #232972",
")  c #2C4469",
"_  c #39426A",
"`  c #35407D",
"'  c #434343",
"]  c #4C4C4C",
"[  c #4E4E51",
"{  c #4F535E",
"}  c #545455",
"|  c #53555D",
" . c #5A5A5B",
".. c #4A4D61",
"X. c #4B5064",
"o. c #5F5F63",
"O. c #5F6063",
"+. c #517879",
"@. c #646464",
"#. c #64646C",
"$. c #626E6F",
"%. c #6C6C6C",
"&. c #6E6F73",
"*. c #656679",
"=. c #6E7173",
"-. c #717272",
";. c #7B7B7B",
":. c #182083",
">. c #2A3686",
",. c #313C80",
"<. c #4558C5",
"1. c #748385",
"2. c #7C8182",
"3. c #6E8091",
"4. c #6684E1",
"5. c #3CD4E0",
"6. c #48DBE1",
"7. c #848484",
"8. c #8A8B8B",
"9. c #949494",
"0. c #9B9B9B",
"q. c #98AFB5",
"w. c #99B4B5",
"e. c #A3A3A3",
"r. c #A2A9AD",
"t. c #ACACAC",
"y. c #AAB6B6",
"u. c #B4B4B4",
"i. c #BBBBBB",
"p. c #8DA7C3",
"a. c #9CCEDE",
"s. c #BFC0C0",
"d. c #B0C8C8",
"f. c #BDC9CA",
"g. c #B8DFDF",
"h. c #BADFE3",
"j. c #C3C3C3",
"k. c #CCCCCC",
"l. c #C4D0D0",
"z. c #CBD7D7",
"x. c #C5DEDE",
"c. c #D3D3D3",
"v. c #DBDBDB",
"b. c #C2E7E7",
"n. c #CCE3E3",
"m. c #C5ECED",
"M. c #DFE6E6",
"N. c #D0EBEB",
"B. c #CCF2F2",
"V. c #DEF5F5",
"C. c #E5E5E5",
"Z. c None",
/* pixels */
"Z.Z.Z.Z.Z.Z.Z.Z.Z.Z.Z.Z.Z.Z.Z.Z.Z.Z.Z.Z.Z.Z.Z.Z.Z.Z.Z.Z.Z.Z.Z.Z.Z.Z.Z.Z.Z.Z.Z.Z.Z.Z.Z.Z.Z.Z.Z.Z.Z.Z.Z.Z.Z.Z.Z.Z.Z.Z.Z.Z.",
"Z.Z.Z.Z.Z.Z.Z.Z.Z.Z.Z.Z.Z.Z.Z.Z.Z.Z.Z.Z.Z.Z.Z.Z.Z.Z.Z.Z.Z.Z.Z.Z.Z.Z.Z.Z.Z.Z.Z.Z.Z.Z.Z.Z.Z.Z.Z.Z.Z.Z.Z.Z.Z.Z.Z.Z.Z.Z.Z.Z.",
"Z.Z.Z.Z.Z.Z.Z.Z.Z.Z.Z.Z.Z.Z.Z.Z.Z.Z.Z.Z.Z.Z.Z.Z.Z.Z.Z.Z.Z.Z.Z.Z.Z.Z.Z.Z.Z.Z.Z.Z.Z.Z.Z.Z.Z.Z.Z.Z.Z.Z.Z.Z.Z.Z.Z.Z.Z.Z.Z.Z.",
"Z.Z.Z.Z.Z.Z.Z.Z.Z.Z.Z.Z.Z.Z.Z.Z.Z.Z.Z.Z.Z.Z.Z.Z.Z.Z.Z.Z.Z.Z.Z.Z.Z.Z.Z.Z.Z.Z.Z.Z.Z.Z.Z.Z.Z.Z.Z.Z.Z.Z.Z.Z.Z.Z.Z.Z.Z.Z.Z.Z.",
"Z.Z.Z.Z.Z.Z.Z.Z.Z.Z.Z.Z.Z.Z.Z.Z.Z.Z.Z.Z.Z.Z.Z.Z.Z.Z.Z.Z.Z.Z.Z.Z.Z.Z.Z.Z.Z.Z.Z.Z.Z.Z.Z.Z.Z.Z.Z.Z.Z.Z.Z.Z.Z.-.@.c %.Z.Z.Z.",
"Z.Z.Z.Z.Z.Z.Z.Z.Z.Z.Z.Z.Z.Z.Z.Z.Z.Z.Z.Z.Z.Z.Z.Z.Z.Z.Z.Z.Z.Z.Z.Z.Z.Z.Z.Z.Z.Z.Z.Z.Z.Z.Z.Z.Z.Z.Z.Z.Z.9.t.u.t.t.8.Z.Z.Z.Z.Z.",
"Z.Z.Z.Z.Z.Z.Z.Z.Z.Z.Z.Z.Z.Z.Z.Z.Z.Z.Z.Z.Z.Z.Z.Z.Z.Z.Z.Z.Z.Z.Z.Z.Z.Z.Z.Z.Z.Z.Z.Z.Z.Z.Z.Z.Z.Z.8.e.t.u.u.u.9.Z.Z.Z.Z.Z.Z.Z.",
"Z.Z.Z.Z.Z.Z.Z.Z.Z.Z.Z.Z.Z.Z.Z.Z.Z.Z.Z.Z.Z.Z.Z.Z.Z.Z.Z.Z.Z.Z.Z.Z.Z.Z.Z.Z.Z.Z.Z.Z.Z.Z.Z.Z.0.t.i.t.t.t.u. .Z.Z.Z.Z.Z.Z.Z.Z.",
"Z.Z.Z.Z.Z.Z.Z.Z.Z.Z.Z.Z.Z.Z.Z.Z.Z.Z.Z.Z.Z.Z.Z.Z.Z.Z.Z.Z.Z.Z.Z.Z.Z.Z.Z.Z.Z.Z.Z.Z.Z.Z.e.u.l.x.m.B.m.h.$.Z.Z.Z.Z.Z.Z.Z.Z.Z.",
"Z.Z.Z.Z.Z.Z.Z.Z.Z.Z.Z.Z.Z.Z.Z.Z.Z.Z.Z.Z.Z.Z.Z.Z.Z.Z.Z.Z.Z.Z.Z.Z.Z.Z.Z.Z.Z.Z.Z.Z.s.n.N.z.j.j.i.u.i.u.9.7.7.Z.Z.Z.Z.Z.Z.Z.",
"Z.Z.Z.Z.Z.Z.Z.Z.Z.Z.Z.Z.Z.Z.Z.Z.Z.Z.Z.Z.Z.Z.Z.Z.Z.Z.Z.Z.Z.Z.Z.Z.Z.Z.Z.Z.Z.Z.j.m.y. .} @ ' 0.t.0.7.;.%.@.} ] c ] Z.Z.Z.Z.",
"Z.Z.Z.Z.Z.Z.Z.Z.Z.Z.Z.Z.Z.Z.Z.Z.Z.Z.Z.Z.Z.Z.Z.Z.Z.Z.Z.Z.Z.Z.Z.Z.Z.Z.Z.Z.Z.d.w.-.Z.c . . X & * ' Z.Z.Z.Z.Z.Z.Z.Z.Z.Z.Z.Z.",
"Z.Z.Z.Z.Z.Z.Z.Z.Z.Z.Z.Z.Z.Z.Z.Z.Z.Z.Z.Z.Z.Z.Z.Z.Z.Z.Z.Z.Z.Z.Z.Z.Z.Z.Z.Z.g.-.Z.@.. X . + @ = 5 5 %.' ' ] } z Z.Z.Z.Z.Z.Z.",
"Z.Z.Z.Z.Z.Z.Z.Z.Z.Z.Z.Z.Z.Z.Z.Z.Z.Z.Z.Z.Z.Z.Z.Z.Z.Z.Z.Z.Z.Z.Z.Z.Z.Z.Z.Z.Z.Z.  o @ [ 9.0.e.e.0.9.0.0.9. .Z.Z.Z.Z.Z.Z.Z.Z.",
"Z.Z.Z.Z.Z.Z.Z.Z.Z.Z.Z.Z.Z.Z.Z.Z.Z.Z.Z.Z.Z.Z.Z.Z.Z.Z.Z.Z.Z.Z.Z.Z.Z. .;.u.k.e.l =.j.0.z r i i ] 8.e.7.Z.Z.Z.Z.Z.Z.Z.Z.Z.Z.",
"Z.Z.Z.Z.Z.Z.Z.Z.Z.Z.Z.Z.Z.Z.Z.Z.Z.Z.Z.Z.Z.Z.Z.Z.Z.Z.Z.Z.7. .8.i.k.c.c.k.e.7.8.*.d i i p 9.j.i. .C 5 Z.Z.Z.Z.Z.Z.Z.Z.Z.Z.",
"Z.Z.Z.Z.Z.Z.Z.Z.Z.Z.Z.Z.Z.Z.Z.Z.Z.Z.Z.Z.Z.Z.Z.Z.Z.Z.u.k.V.c.c.c.v.s.Y 7 w M 0 * ; d L J k.j.' i s G >  .Z.Z.Z.Z.Z.Z.Z.Z.",
"Z.Z.Z.Z.Z.Z.Z.Z.Z.Z.Z.Z.Z.Z.Z.Z.Z.Z.Z.Z.Z.Z.;.e.Z.k.c.j.C.M.v.c.@.m - 5 V i i 8 0 * * t.u.t.* - 6 N W t * Z.Z.Z.Z.Z.Z.Z.",
"Z.Z.Z.Z.Z.Z.Z.Z.Z.Z.Z.Z.Z.Z.Z.Z.Z.Z.Z.Z.-.c.v.e.% i.v.k.j.V.j.i.8.r.e.] x 5 ; u ; k 2.8.-.8.} @ n > 3 8 ( Z.Z.Z.Z.Z.Z.Z.",
"Z.Z.Z.Z.Z.Z.Z.Z.Z.Z.Z.Z.Z.Z.Z.Z.Z.Z.8.c.v.C.C.3 m ..k.u.u.i.f.t.e.9.t.0.&.a.w.2. .x * = @ X O. .> 1 m R 4 #.Z.Z.Z.Z.Z.Z.",
"Z.Z.Z.Z.Z.Z.Z.Z.Z.Z.Z.Z.Z.Z.Z.8.-.i.v.v.k.i.s.d ; 8.i.e.0.7.p.7.7.e.&.4.| ;   o 5 i y Z b : O *  .l > x Z.Z.Z.Z.Z.Z.Z.Z.",
"Z.Z.Z.Z.Z.Z.Z.Z.Z.Z.Z.Z.Z.9.j.c.c.i.#.0.e.0.8.g E 2.;.-.@.} o.c ] ' <.c z z z u o O X * $ $ + $ X } } -.Z.Z.Z.Z.Z.Z.Z.Z.",
"Z.Z.Z.Z.Z.Z.Z.Z.Z.Z.Z.7.j.j.i.0.8.8.8.} %.%.@.3 M ' ' z * * 5 f f Z.Z.;.a z a a p l u *   # + $ % @ ; } c Z.Z.Z.Z.Z.Z.Z.",
"Z.Z.Z.Z.Z.Z.Z.Z.Z.e.i.u.-.%.@.@.} z 5 = 9 < 9 v > B 3 q ~ P F j ' Z.Z.Z.Z.; z z a a l a z l a ; * o * z } u Z.Z.Z.Z.Z.Z.",
"Z.Z.Z.Z.Z.Z.Z.Z.9.7.%.} '  .Z.Z.Z.Z.Z.Z.Z.Z.Z. .+ , > o a z a p o a Z.Z.Z.h - * ] c x z a z * * e l c } Z.Z.Z.Z.Z.Z.Z.Z.",
"Z.Z.Z.Z.Z.Z.7.;.[ p Z.Z.Z.Z.Z.Z.Z.Z.Z.Z.Z.Z.Z.Z.Z.Z.X O X X o * ; u [ Z.U J ,.D * c %.] ' ; Z.Z.Z.Z.Z.Z.Z.Z.Z.Z.Z.Z.Z.Z.",
"Z.Z.Z.Z.Z.c ;  .Z.Z.Z.Z.Z.Z.Z.Z.Z.Z.Z.Z.Z.Z.%.a ; z  .@.%.-.%.O.@.@.@.5 ~ ^ _ K / ~ r p  .] c * p Z.Z.Z.Z.Z.Z.Z.Z.Z.Z.Z.",
"Z.Z.Z.Z.' Z.Z.Z.Z.Z.Z.Z.Z.Z.Z.Z.Z.Z.c X %.8.0.0.e.0.0.e.0.9.9.9.7.7.7.7.z s ~ ^ T / ~ >.g = X c a a u ] Z.Z.Z.Z.Z.Z.Z.Z.",
"Z.Z.Z.Z.Z.Z.Z.Z.Z.Z.Z.Z.Z.Z.} } 7.e.e.0.3.) S X.9.j.0.%.@.-.0.u.u.u.t.e.9.O.o ; r H ~ Q Q :.v Z.Z.Z.Z.Z.Z.Z.Z.Z.Z.Z.Z.Z.",
"Z.Z.Z.Z.Z.Z.Z.Z.Z.Z.Z.Z.Z.Z.Z.Z.2. .+.6.5.r.c.k.a Z.Z.Z.Z.Z.Z.Z.Z.Z.Z.Z.Z.} o           + % X Z.Z.Z.Z.Z.Z.Z.Z.Z.Z.Z.Z.Z.",
"Z.Z.Z.Z.Z.Z.Z.Z.Z.Z.Z.Z.Z.Z.Z.Z.2. .+.6.5.r.k.k.a Z.Z.Z.Z.Z.Z.Z.Z.Z.Z.Z.Z.} o           + %   Z.Z.Z.Z.Z.Z.Z.Z.Z.Z.Z.Z.Z.",
"Z.Z.Z.Z.Z.Z.Z.Z.Z.Z.Z.Z.Z.Z.} [ 7.e.e.0.3.) W ..0.j.0.%.@.-.9.u.i.u.t.e.9.O.o - r H ~ ! Q :.b Z.Z.Z.Z.Z.Z.Z.Z.Z.Z.Z.Z.Z.",
"Z.Z.Z.Z.' Z.Z.Z.Z.Z.Z.Z.Z.Z.Z.Z.Z.Z.' X %.7.0.0.e.0.9.e.0.0.0.9.7.7.7.;.f s ~ _ T / ~ >.H = X x a a u ] Z.Z.Z.Z.Z.Z.Z.Z.",
"Z.Z.Z.Z.Z.c ;  .Z.Z.Z.Z.Z.Z.Z.Z.Z.Z.Z.Z.Z.Z.%.a ; x o.@.%.%.%.O.@.@.%.; ~ ^ _ K / I 5 u  .] c ; u Z.Z.Z.Z.Z.Z.Z.Z.Z.Z.Z.",
"Z.Z.Z.Z.Z.Z.7.;.] p Z.Z.Z.Z.Z.Z.Z.Z.Z.Z.Z.Z.Z.Z.Z.Z.X X X X X * ; u ] Z.K K ,.g 4 J %.] ' ; Z.Z.Z.Z.Z.Z.Z.Z.Z.Z.Z.Z.Z.Z.",
"Z.Z.Z.Z.Z.Z.Z.Z.0.7.@.} '  .Z.Z.Z.Z.Z.Z.Z.Z.Z. .@ , > X a z a u * a Z.Z.Z.h - * ] x c z a z * * u a c } Z.Z.Z.Z.Z.Z.Z.Z.",
"Z.Z.Z.Z.Z.Z.Z.Z.Z.e.i.u.-.%.@.@.} z 8 = v < 9 v < B 3 q ~ P F j ' Z.Z.Z.Z.; z z a a a l z z p ; * o @ z } u Z.Z.Z.Z.Z.Z.",
"Z.Z.Z.Z.Z.Z.Z.Z.Z.Z.Z.7.Z.j.i.0.8.8.8.[ %.%.o.= M ' ' z o * u z f Z.Z.;.a z a a a z u *   # O @ % @ e  .c Z.Z.Z.Z.Z.Z.Z.",
"Z.Z.Z.Z.Z.Z.Z.Z.Z.Z.Z.Z.Z.9.Z.c.c.i.@.e.e.0.8.g E 7.-.-.o.} | c ' ' <.c z z z u o . + % $ $ $ $ . [ } &.Z.Z.Z.Z.Z.Z.Z.Z.",
"Z.Z.Z.Z.Z.Z.Z.Z.Z.Z.Z.Z.Z.Z.Z.8.-.i.v.v.j.i.j.d 5 8.u.t.0.8.p.7.8.e.&.4.{ ;   o 5 i s Z b : . =  .z 1 x Z.Z.Z.Z.Z.Z.Z.Z.",
"Z.Z.Z.Z.Z.Z.Z.Z.Z.Z.Z.Z.Z.Z.Z.Z.Z.Z.8.Z.v.C.C.4 v { c.u.u.i.f.t.e.0.t.0.=.a.q.2. .x * = o X O. .> = m R 4 #.Z.Z.Z.Z.Z.Z.",
"Z.Z.Z.Z.Z.Z.Z.Z.Z.Z.Z.Z.Z.Z.Z.Z.Z.Z.Z.Z.-.Z.v.e.% i.v.k.j.V.i.i.8.e.e.] x ; e u ; k 2.8.=.8.} @ n < 4 8 ( Z.Z.Z.Z.Z.Z.Z.",
"Z.Z.Z.Z.Z.Z.Z.Z.Z.Z.Z.Z.Z.Z.Z.Z.Z.Z.Z.Z.Z.Z.2.Z.Z.j.z.j.C.C.C.c.O.m 4 7 V i i 8 0 * * t.u.t.* = 6 N W s = Z.Z.Z.Z.Z.Z.Z.",
"Z.Z.Z.Z.Z.Z.Z.Z.Z.Z.Z.Z.Z.Z.Z.Z.Z.Z.Z.Z.Z.Z.Z.Z.Z.Z.u.k.V.c.c.c.v.j.Y 7 y M 0 * ; d L J k.s.' i i G > | Z.Z.Z.Z.Z.Z.Z.Z.",
"Z.Z.Z.Z.Z.Z.Z.Z.Z.Z.Z.Z.Z.Z.Z.Z.Z.Z.Z.Z.Z.Z.Z.Z.Z.Z.Z.Z.7. .8.i.k.c.v.k.e.7.8.*.s i i a 9.j.i. .G e Z.Z.Z.Z.Z.Z.Z.Z.Z.Z.",
"Z.Z.Z.Z.Z.Z.Z.Z.Z.Z.Z.Z.Z.Z.Z.Z.Z.Z.Z.Z.Z.Z.Z.Z.Z.Z.Z.Z.Z.Z.Z.Z.Z.} ;.u.k.e.l =.j.0.x i p p ] 8.0.8.Z.Z.Z.Z.Z.Z.Z.Z.Z.Z.",
"Z.Z.Z.Z.Z.Z.Z.Z.Z.Z.Z.Z.Z.Z.Z.Z.Z.Z.Z.Z.Z.Z.Z.Z.Z.Z.Z.Z.Z.Z.Z.Z.Z.Z.Z.Z.Z.Z.  o @ [ 8.0.e.e.0.9.0.0.9. .Z.Z.Z.Z.Z.Z.Z.Z.",
"Z.Z.Z.Z.Z.Z.Z.Z.Z.Z.Z.Z.Z.Z.Z.Z.Z.Z.Z.Z.Z.Z.Z.Z.Z.Z.Z.Z.Z.Z.Z.Z.Z.Z.Z.Z.g.-.Z.@.. X . + % = 5 ; %.' ' ] } z Z.Z.Z.Z.Z.Z.",
"Z.Z.Z.Z.Z.Z.Z.Z.Z.Z.Z.Z.Z.Z.Z.Z.Z.Z.Z.Z.Z.Z.Z.Z.Z.Z.Z.Z.Z.Z.Z.Z.Z.Z.Z.Z.Z.d.w.%.Z.J X X X % * ' Z.Z.Z.Z.Z.Z.Z.Z.Z.Z.Z.Z.",
"Z.Z.Z.Z.Z.Z.Z.Z.Z.Z.Z.Z.Z.Z.Z.Z.Z.Z.Z.Z.Z.Z.Z.Z.Z.Z.Z.Z.Z.Z.Z.Z.Z.Z.Z.Z.Z.Z.k.b.y.} } @ ' 0.t.0.7.;.%.@.} ] c ] Z.Z.Z.Z.",
"Z.Z.Z.Z.Z.Z.Z.Z.Z.Z.Z.Z.Z.Z.Z.Z.Z.Z.Z.Z.Z.Z.Z.Z.Z.Z.Z.Z.Z.Z.Z.Z.Z.Z.Z.Z.Z.Z.Z.Z.s.n.N.z.j.j.j.u.u.u.9.7.7.Z.Z.Z.Z.Z.Z.Z.",
"Z.Z.Z.Z.Z.Z.Z.Z.Z.Z.Z.Z.Z.Z.Z.Z.Z.Z.Z.Z.Z.Z.Z.Z.Z.Z.Z.Z.Z.Z.Z.Z.Z.Z.Z.Z.Z.Z.Z.Z.Z.Z.e.u.l.x.m.B.m.h.$.Z.Z.Z.Z.Z.Z.Z.Z.Z.",
"Z.Z.Z.Z.Z.Z.Z.Z.Z.Z.Z.Z.Z.Z.Z.Z.Z.Z.Z.Z.Z.Z.Z.Z.Z.Z.Z.Z.Z.Z.Z.Z.Z.Z.Z.Z.Z.Z.Z.Z.Z.Z.Z.Z.0.t.i.t.t.t.u. .Z.Z.Z.Z.Z.Z.Z.Z.",
"Z.Z.Z.Z.Z.Z.Z.Z.Z.Z.Z.Z.Z.Z.Z.Z.Z.Z.Z.Z.Z.Z.Z.Z.Z.Z.Z.Z.Z.Z.Z.Z.Z.Z.Z.Z.Z.Z.Z.Z.Z.Z.Z.Z.Z.Z.8.e.t.u.u.u.9.Z.Z.Z.Z.Z.Z.Z.",
"Z.Z.Z.Z.Z.Z.Z.Z.Z.Z.Z.Z.Z.Z.Z.Z.Z.Z.Z.Z.Z.Z.Z.Z.Z.Z.Z.Z.Z.Z.Z.Z.Z.Z.Z.Z.Z.Z.Z.Z.Z.Z.Z.Z.Z.Z.Z.Z.Z.9.t.u.t.t.8.Z.Z.Z.Z.Z.",
"Z.Z.Z.Z.Z.Z.Z.Z.Z.Z.Z.Z.Z.Z.Z.Z.Z.Z.Z.Z.Z.Z.Z.Z.Z.Z.Z.Z.Z.Z.Z.Z.Z.Z.Z.Z.Z.Z.Z.Z.Z.Z.Z.Z.Z.Z.Z.Z.Z.Z.Z.Z.Z.-.@.c %.Z.Z.Z.",
"Z.Z.Z.Z.Z.Z.Z.Z.Z.Z.Z.Z.Z.Z.Z.Z.Z.Z.Z.Z.Z.Z.Z.Z.Z.Z.Z.Z.Z.Z.Z.Z.Z.Z.Z.Z.Z.Z.Z.Z.Z.Z.Z.Z.Z.Z.Z.Z.Z.Z.Z.Z.Z.Z.Z.Z.Z.Z.Z.Z.",
"Z.Z.Z.Z.Z.Z.Z.Z.Z.Z.Z.Z.Z.Z.Z.Z.Z.Z.Z.Z.Z.Z.Z.Z.Z.Z.Z.Z.Z.Z.Z.Z.Z.Z.Z.Z.Z.Z.Z.Z.Z.Z.Z.Z.Z.Z.Z.Z.Z.Z.Z.Z.Z.Z.Z.Z.Z.Z.Z.Z.",
"Z.Z.Z.Z.Z.Z.Z.Z.Z.Z.Z.Z.Z.Z.Z.Z.Z.Z.Z.Z.Z.Z.Z.Z.Z.Z.Z.Z.Z.Z.Z.Z.Z.Z.Z.Z.Z.Z.Z.Z.Z.Z.Z.Z.Z.Z.Z.Z.Z.Z.Z.Z.Z.Z.Z.Z.Z.Z.Z.Z.",
"Z.Z.Z.Z.Z.Z.Z.Z.Z.Z.Z.Z.Z.Z.Z.Z.Z.Z.Z.Z.Z.Z.Z.Z.Z.Z.Z.Z.Z.Z.Z.Z.Z.Z.Z.Z.Z.Z.Z.Z.Z.Z.Z.Z.Z.Z.Z.Z.Z.Z.Z.Z.Z.Z.Z.Z.Z.Z.Z.Z."
};
