/* XPM */
static char *result[] = {
/* columns rows colors chars-per-pixel */
"60 60 152 2 ",
"   c #030304",
".  c #03050D",
"X  c #07080B",
"o  c #0B0B0D",
"O  c #030513",
"+  c #060912",
"@  c #0B0D13",
"#  c #01031F",
"$  c #050A19",
"%  c #090E19",
"&  c #0C101F",
"*  c #131314",
"=  c #13151B",
"-  c #15181F",
";  c #1B1C1C",
":  c #030726",
">  c #090D24",
",  c #060A28",
"<  c #080D2D",
"1  c #0D1126",
"2  c #0C102A",
"3  c #121623",
"4  c #161822",
"5  c #1C1D23",
"6  c #151729",
"7  c #161A2A",
"8  c #1C1E2C",
"9  c #0A0F39",
"0  c #121433",
"q  c #171B35",
"w  c #1B1F3E",
"e  c #1E2020",
"r  c #1F232D",
"t  c #1F2134",
"y  c #1F233A",
"u  c #232424",
"i  c #23252A",
"p  c #27292C",
"a  c #2C2C2C",
"s  c #232533",
"d  c #272935",
"f  c #2A2B33",
"g  c #23273F",
"h  c #25293B",
"j  c #2D2F38",
"k  c #27333B",
"l  c #2F3134",
"z  c #333333",
"x  c #35363A",
"c  c #3B3B3B",
"v  c #090D40",
"b  c #0D1143",
"n  c #0D114F",
"m  c #111546",
"M  c #161A4F",
"N  c #191E4E",
"B  c #0F165D",
"V  c #1E2242",
"C  c #1F224A",
"Z  c #192056",
"A  c #182B5F",
"S  c #172B5E",
"D  c #212642",
"F  c #262A43",
"G  c #22264B",
"H  c #272D4C",
"J  c #363A47",
"K  c #363A49",
"L  c #2B2F55",
"P  c #242B5E",
"I  c #2B325A",
"U  c #353A50",
"Y  c #3C3F52",
"T  c #363E5C",
"R  c #171C60",
"E  c #1A1F66",
"W  c #1E2363",
"Q  c #1C2472",
"!  c #222A6F",
"~  c #2A316C",
"^  c #393F63",
"/  c #353D68",
"(  c #232972",
")  c #2C4469",
"_  c #39426A",
"`  c #35407D",
"'  c #434343",
"]  c #4C4C4C",
"[  c #4E4E51",
"{  c #4F535E",
"}  c #545455",
"|  c #53555D",
" . c #5A5A5B",
".. c #4A4D61",
"X. c #4B5064",
"o. c #5F5F63",
"O. c #5F6063",
"+. c #517879",
"@. c #646464",
"#. c #64646C",
"$. c #626E6F",
"%. c #6C6C6C",
"&. c #6E6F73",
"*. c #656679",
"=. c #6E7173",
"-. c #717272",
";. c #7B7B7B",
":. c #182083",
">. c #2A3686",
",. c #313C80",
"<. c #4558C5",
"1. c #748385",
"2. c #7C8182",
"3. c #6E8091",
"4. c #6684E1",
"5. c #3CD4E0",
"6. c #48DBE1",
"7. c #848484",
"8. c #8A8B8B",
"9. c #949494",
"0. c #9B9B9B",
"q. c #98AFB5",
"w. c #99B4B5",
"e. c #A3A3A3",
"r. c #A2A9AD",
"t. c #ACACAC",
"y. c #AAB6B6",
"u. c #B4B4B4",
"i. c #BBBBBB",
"p. c #8DA7C3",
"a. c #9CCEDE",
"s. c #BFC0C0",
"d. c #B0C8C8",
"f. c #BDC9CA",
"g. c #B8DFDF",
"h. c #BADFE3",
"j. c #C3C3C3",
"k. c #CCCCCC",
"l. c #C4D0D0",
"z. c #CBD7D7",
"x. c #C5DEDE",
"c. c #D3D3D3",
"v. c #DBDBDB",
"b. c #C2E7E7",
"n. c #CCE3E3",
"m. c #C5ECED",
"M. c #DFE6E6",
"N. c #D0EBEB",
"B. c #CCF2F2",
"V. c #DEF5F5",
"C. c #E5E5E5",
"Z. c None",
/* pixels */
"Z.Z.Z.Z.Z.Z.Z.Z.Z.Z.Z.Z.Z.Z.Z.Z.Z.Z.Z.Z.Z.Z.Z.Z.Z.Z.Z.Z.Z.Z.Z.Z.Z.Z.Z.Z.Z.Z.Z.Z.Z.Z.Z.Z.Z.Z.Z.Z.Z.Z.Z.Z.Z.Z.Z.Z.Z.Z.Z.Z.",
"Z.Z.Z.Z.Z.Z.Z.Z.Z.Z.Z.Z.Z.Z.Z.Z.Z.Z.Z.Z.Z.Z.Z.Z.Z.Z.Z.Z.Z.Z.Z.Z.Z.Z.Z.Z.Z.Z.Z.Z.Z.Z.Z.Z.Z.Z.Z.Z.Z.Z.Z.Z.Z.Z.Z.Z.Z.Z.Z.Z.",
"Z.Z.Z.Z.Z.Z.Z.Z.Z.Z.Z.Z.Z.Z.Z.Z.Z.Z.Z.Z.Z.Z.Z.Z.Z.Z.Z.Z.Z.Z.Z.Z.Z.Z.Z.Z.Z.Z.Z.Z.Z.Z.Z.Z.Z.Z.Z.Z.Z.Z.Z.Z.Z.Z.Z.Z.Z.Z.Z.Z.",
"Z.Z.Z.Z.Z.Z.Z.Z.Z.Z.Z.Z.Z.Z.Z.Z.Z.Z.Z.Z.Z.Z.Z.Z.Z.Z.Z.Z.Z.Z.Z.Z.Z.Z.Z.Z.Z.Z.Z.Z.Z.Z.Z.Z.Z.Z.Z.Z.Z.Z.Z.Z.Z.Z.Z.Z.Z.Z.Z.Z.",
"Z.Z.Z.%.c @.-.Z.Z.Z.Z.Z.Z.Z.Z.Z.Z.Z.Z.Z.Z.Z.Z.Z.Z.Z.Z.Z.Z.Z.Z.Z.Z.Z.Z.Z.Z.Z.Z.Z.Z.Z.Z.Z.Z.Z.Z.Z.Z.Z.Z.Z.Z.Z.Z.Z.Z.Z.Z.Z.",
"Z.Z.Z.Z.Z.8.t.t.t.t.9.Z.Z.Z.Z.Z.Z.Z.Z.Z.Z.Z.Z.Z.Z.Z.Z.Z.Z.Z.Z.Z.Z.Z.Z.Z.Z.Z.Z.Z.Z.Z.Z.Z.Z.Z.Z.Z.Z.Z.Z.Z.Z.Z.Z.Z.Z.Z.Z.Z.",
"Z.Z.Z.Z.Z.Z.Z.9.u.i.u.t.e.8.Z.Z.Z.Z.Z.Z.Z.Z.Z.Z.Z.Z.Z.Z.Z.Z.Z.Z.Z.Z.Z.Z.Z.Z.Z.Z.Z.Z.Z.Z.Z.Z.Z.Z.Z.Z.Z.Z.Z.Z.Z.Z.Z.Z.Z.Z.",
"Z.Z.Z.Z.Z.Z.Z.Z. .u.u.e.t.i.t.0.Z.Z.Z.Z.Z.Z.Z.Z.Z.Z.Z.Z.Z.Z.Z.Z.Z.Z.Z.Z.Z.Z.Z.Z.Z.Z.Z.Z.Z.Z.Z.Z.Z.Z.Z.Z.Z.Z.Z.Z.Z.Z.Z.Z.",
"Z.Z.Z.Z.Z.Z.Z.Z.Z.$.h.m.B.m.x.l.u.e.Z.Z.Z.Z.Z.Z.Z.Z.Z.Z.Z.Z.Z.Z.Z.Z.Z.Z.Z.Z.Z.Z.Z.Z.Z.Z.Z.Z.Z.Z.Z.Z.Z.Z.Z.Z.Z.Z.Z.Z.Z.Z.",
"Z.Z.Z.Z.Z.Z.Z.7.7.9.u.i.u.s.j.j.z.N.n.s.Z.Z.Z.Z.Z.Z.Z.Z.Z.Z.Z.Z.Z.Z.Z.Z.Z.Z.Z.Z.Z.Z.Z.Z.Z.Z.Z.Z.Z.Z.Z.Z.Z.Z.Z.Z.Z.Z.Z.Z.",
"Z.Z.Z.Z.] c ] }  .%.;.7.0.t.0.' @ }  .y.b.k.Z.Z.Z.Z.Z.Z.Z.Z.Z.Z.Z.Z.Z.Z.Z.Z.Z.Z.Z.Z.Z.Z.Z.Z.Z.Z.Z.Z.Z.Z.Z.Z.Z.Z.Z.Z.Z.Z.",
"Z.Z.Z.Z.Z.Z.Z.Z.Z.Z.Z.Z.' * & . . . J Z.%.w.d.Z.Z.Z.Z.Z.Z.Z.Z.Z.Z.Z.Z.Z.Z.Z.Z.Z.Z.Z.Z.Z.Z.Z.Z.Z.Z.Z.Z.Z.Z.Z.Z.Z.Z.Z.Z.Z.",
"Z.Z.Z.Z.Z.Z.z } [ ' ' %.; 5 = % + + X . @.Z.-.g.Z.Z.Z.Z.Z.Z.Z.Z.Z.Z.Z.Z.Z.Z.Z.Z.Z.Z.Z.Z.Z.Z.Z.Z.Z.Z.Z.Z.Z.Z.Z.Z.Z.Z.Z.Z.",
"Z.Z.Z.Z.Z.Z.Z.Z. .9.0.0.9.0.e.e.0.8.[ @ X   Z.Z.Z.Z.Z.Z.Z.Z.Z.Z.Z.Z.Z.Z.Z.Z.Z.Z.Z.Z.Z.Z.Z.Z.Z.Z.Z.Z.Z.Z.Z.Z.Z.Z.Z.Z.Z.Z.",
"Z.Z.Z.Z.Z.Z.Z.Z.Z.Z.7.e.8.] i i i z 0.j.&.z e.k.u.;. .Z.Z.Z.Z.Z.Z.Z.Z.Z.Z.Z.Z.Z.Z.Z.Z.Z.Z.Z.Z.Z.Z.Z.Z.Z.Z.Z.Z.Z.Z.Z.Z.Z.",
"Z.Z.Z.Z.Z.Z.Z.Z.Z.Z.u C  .i.j.9.p i i d *.8.7.e.c.c.c.k.i.8. .7.Z.Z.Z.Z.Z.Z.Z.Z.Z.Z.Z.Z.Z.Z.Z.Z.Z.Z.Z.Z.Z.Z.Z.Z.Z.Z.Z.Z.",
"Z.Z.Z.Z.Z.Z.Z.Z.| > G i i ' j.c.' L f ; * 0 M w 7 Y j.v.k.v.c.V.k.u.Z.Z.Z.Z.Z.Z.Z.Z.Z.Z.Z.Z.Z.Z.Z.Z.Z.Z.Z.Z.Z.Z.Z.Z.Z.Z.",
"Z.Z.Z.Z.Z.Z.Z.= s W N 6 = * t.u.e.= * 0 8 i i V 7 4 m o.c.v.M.C.k.c.j.Z.Z.;.Z.Z.Z.Z.Z.Z.Z.Z.Z.Z.Z.Z.Z.Z.Z.Z.Z.Z.Z.Z.Z.Z.",
"Z.Z.Z.Z.Z.Z.Z.( 8 3 1 n + } 8.-.8.1.k ; u ; e z ] e.e.8.i.i.V.j.k.c.i.$ e.v.Z.&.Z.Z.Z.Z.Z.Z.Z.Z.Z.Z.Z.Z.Z.Z.Z.Z.Z.Z.Z.Z.",
"Z.Z.Z.Z.Z.Z.#.4 R m 3 >  . .X @ = * x  .2.w.a.=.0.t.0.e.t.f.i.u.u.c.{ m 4 C.C.v.Z.8.Z.Z.Z.Z.Z.Z.Z.Z.Z.Z.Z.Z.Z.Z.Z.Z.Z.Z.",
"Z.Z.Z.Z.Z.Z.Z.Z.x > z  .= . : 9 Z y i 5 o   ; { 4.&.e.7.8.p.8.0.e.u.8.5 d j.j.j.v.v.i.-.7.Z.Z.Z.Z.Z.Z.Z.Z.Z.Z.Z.Z.Z.Z.Z.",
"Z.Z.Z.Z.Z.Z.Z.Z.&.} [ . $ $ $ $ & X X o u z z z c <.' ] c | }  .%.;.7.E t 8.0.e.e.@.i.c.c.Z.9.Z.Z.Z.Z.Z.Z.Z.Z.Z.Z.Z.Z.Z.",
"Z.Z.Z.Z.Z.Z.Z.c  .; % % + + #   * p z p a a z a ;.Z.Z.f z e = * c ' J M = @.%.%.} 7.8.7.0.i.j.Z.8.Z.Z.Z.Z.Z.Z.Z.Z.Z.Z.Z.",
"Z.Z.Z.Z.Z.Z.u [ z * o * ; a z z a a a a z z ; Z.Z.Z.Z.' f F P ~ q 4 B 2 v 9 < v = 8 z  .@.@.%.-.u.i.e.Z.Z.Z.Z.Z.Z.Z.Z.Z.",
"Z.Z.Z.Z.Z.Z.Z.Z.} c a u * * z z z c x ] = = h Z.Z.Z.a * u a z a @ > , $  .Z.Z.Z.Z.Z.Z.Z.Z.Z. .' } @.7.9.Z.Z.Z.Z.Z.Z.Z.Z.",
"Z.Z.Z.Z.Z.Z.Z.Z.Z.Z.Z.Z.Z.Z.= ' ] %.J 3 h ,.J U Z.] ; ; * X X X . X Z.Z.Z.Z.Z.Z.Z.Z.Z.Z.Z.Z.Z.Z.Z.Z.a ] ;.7.Z.Z.Z.Z.Z.Z.",
"Z.Z.Z.Z.Z.Z.Z.Z.Z.Z.Z.u = c ] } u 5 I / K _ ^ ~ 5 @.@.%.@.%.%.%.%. .c ; a %.Z.Z.Z.Z.Z.Z.Z.Z.Z.Z.Z.Z.Z.Z. .; c Z.Z.Z.Z.Z.",
"Z.Z.Z.Z.Z.Z.Z.Z.] p a a c X = g >./ / T _ ~ s a 7.2.7.7.9.0.0.0.0.0.0.0.e.9.7.%.  ' Z.Z.Z.Z.Z.Z.Z.Z.Z.Z.Z.Z.Z.' Z.Z.Z.Z.",
"Z.Z.Z.Z.Z.Z.Z.Z.Z.Z.Z.Z.Z.v :.Q ( ~ H r ; o o.9.e.t.u.u.u.9.-.@.%.0.i.0.X.A ) 3.0.e.e.7.[ } Z.Z.Z.Z.Z.Z.Z.Z.Z.Z.Z.Z.Z.Z.",
"Z.Z.Z.Z.Z.Z.Z.Z.Z.Z.Z.Z.Z.X $ + O         o  .Z.Z.Z.Z.Z.Z.Z.Z.Z.Z.Z.Z.a k.k.r.5.6.+. .2.Z.Z.Z.Z.Z.Z.Z.Z.Z.Z.Z.Z.Z.Z.Z.Z.",
"Z.Z.Z.Z.Z.Z.Z.Z.Z.Z.Z.Z.Z.  $ $           @ } Z.Z.Z.Z.Z.Z.Z.Z.Z.Z.Z.Z.a k.k.t.5.6.+. .2.Z.Z.Z.Z.Z.Z.Z.Z.Z.Z.Z.Z.Z.Z.Z.Z.",
"Z.Z.Z.Z.Z.Z.Z.Z.Z.Z.Z.Z.Z.b Q Q ! ~ H r ; @  .9.t.t.u.i.u.9.-.@.%.0.j.0.X.A ) 3.0.e.e.7.[ } Z.Z.Z.Z.Z.Z.Z.Z.Z.Z.Z.Z.Z.Z.",
"Z.Z.Z.Z.Z.Z.Z.Z.] u a a c X = g >.,./ T _ ~ s f 7.2.7.7.9.9.9.0.e.0.0.e.e.9.7.-.X c Z.Z.Z.Z.Z.Z.Z.Z.Z.Z.Z.Z.Z.' Z.Z.Z.Z.",
"Z.Z.Z.Z.Z.Z.Z.Z.Z.Z.Z.p = c ]  .u ; I ` K _ ^ ~ 4 %.@.@.@.%.-.%.@. .z ; a &.Z.Z.Z.Z.Z.Z.Z.Z.Z.Z.Z.Z.Z.Z. .e c Z.Z.Z.Z.Z.",
"Z.Z.Z.Z.Z.Z.Z.Z.Z.Z.Z.Z.Z.Z.= ' ] %.c ; g / U U Z.[ e ; * o o X . X Z.Z.Z.Z.Z.Z.Z.Z.Z.Z.Z.Z.Z.Z.Z.Z.p } ;.7.Z.Z.Z.Z.Z.Z.",
"Z.Z.Z.Z.Z.Z.Z.Z.} c a u * * z a z z c ' = = F Z.Z.Z.a * u a z a @ > > +  .Z.Z.Z.Z.Z.Z.Z.Z.Z. .' } %.2.9.Z.Z.Z.Z.Z.Z.Z.Z.",
"Z.Z.Z.Z.Z.Z.u } z * o * e a a x a a z a z z ; Z.Z.Z.Z.' j F I ~ q 3 B > b 9 < v = 8 z  .@.@.%.-.u.i.e.Z.Z.Z.Z.Z.Z.Z.Z.Z.",
"Z.Z.Z.Z.Z.Z.Z.c  .e @ + + $ #   * p z p p a z a ;.Z.Z.p z u * o x ' ' M = @.%.%.} 8.7.7.0.i.j.j.7.Z.Z.Z.Z.Z.Z.Z.Z.Z.Z.Z.",
"Z.Z.Z.Z.Z.Z.Z.Z.%.} } X # $ $ $ % X . o u z z z c <.' ] c X.} o.-.;.7.E w 8.0.e.e.@.i.c.c.j.9.Z.Z.Z.Z.Z.Z.Z.Z.Z.Z.Z.Z.Z.",
"Z.Z.Z.Z.Z.Z.Z.Z.x > z  .= . , 9 Z y s e o   ; X.4.&.e.8.7.p.8.0.e.u.7.5 d j.s.j.v.v.i.-.8.Z.Z.Z.Z.Z.Z.Z.Z.Z.Z.Z.Z.Z.Z.Z.",
"Z.Z.Z.Z.Z.Z.#.4 R m 3 ,  .o.X X = = c  .;.q.a.=.0.t.9.e.t.f.s.u.u.c...m = C.C.v.k.8.Z.Z.Z.Z.Z.Z.Z.Z.Z.Z.Z.Z.Z.Z.Z.Z.Z.Z.",
"Z.Z.Z.Z.Z.Z.Z.( 8 4 > n @ } 8.-.8.1.k ; e e e z ] e.e.8.i.i.V.j.k.v.i.% e.v.v.-.Z.Z.Z.Z.Z.Z.Z.Z.Z.Z.Z.Z.Z.Z.Z.Z.Z.Z.Z.Z.",
"Z.Z.Z.Z.Z.Z.Z.= t W N 6 = * t.i.e.= * 0 r i i V 8 - m o.c.M.C.C.j.c.j.Z.e.2.Z.Z.Z.Z.Z.Z.Z.Z.Z.Z.Z.Z.Z.Z.Z.Z.Z.Z.Z.Z.Z.Z.",
"Z.Z.Z.Z.Z.Z.Z.Z. ., G i i ' j.k.' L f - * 0 M w 7 Y s.v.c.c.c.V.k.u.Z.Z.Z.Z.Z.Z.Z.Z.Z.Z.Z.Z.Z.Z.Z.Z.Z.Z.Z.Z.Z.Z.Z.Z.Z.Z.",
"Z.Z.Z.Z.Z.Z.Z.Z.Z.Z.e G  .i.s.9.p i i d *.8.7.t.k.c.v.k.j.8. .7.Z.Z.Z.Z.Z.Z.Z.Z.Z.Z.Z.Z.Z.Z.Z.Z.Z.Z.Z.Z.Z.Z.Z.Z.Z.Z.Z.Z.",
"Z.Z.Z.Z.Z.Z.Z.Z.Z.Z.7.e.8.] p i i z 0.j.=.l 0.k.u.;. .Z.Z.Z.Z.Z.Z.Z.Z.Z.Z.Z.Z.Z.Z.Z.Z.Z.Z.Z.Z.Z.Z.Z.Z.Z.Z.Z.Z.Z.Z.Z.Z.Z.",
"Z.Z.Z.Z.Z.Z.Z.Z. .9.0.0.9.0.e.e.0.9.[ @ X   Z.Z.Z.Z.Z.Z.Z.Z.Z.Z.Z.Z.Z.Z.Z.Z.Z.Z.Z.Z.Z.Z.Z.Z.Z.Z.Z.Z.Z.Z.Z.Z.Z.Z.Z.Z.Z.Z.",
"Z.Z.Z.Z.Z.Z.z } ] ' ' %.e 4 = @ + . . X @.Z.-.g.Z.Z.Z.Z.Z.Z.Z.Z.Z.Z.Z.Z.Z.Z.Z.Z.Z.Z.Z.Z.Z.Z.Z.Z.Z.Z.Z.Z.Z.Z.Z.Z.Z.Z.Z.Z.",
"Z.Z.Z.Z.Z.Z.Z.Z.Z.Z.Z.Z.' * % + . . J Z.-.w.d.Z.Z.Z.Z.Z.Z.Z.Z.Z.Z.Z.Z.Z.Z.Z.Z.Z.Z.Z.Z.Z.Z.Z.Z.Z.Z.Z.Z.Z.Z.Z.Z.Z.Z.Z.Z.Z.",
"Z.Z.Z.Z.] c ] } @.%.;.7.0.t.e.' @ } } y.b.j.Z.Z.Z.Z.Z.Z.Z.Z.Z.Z.Z.Z.Z.Z.Z.Z.Z.Z.Z.Z.Z.Z.Z.Z.Z.Z.Z.Z.Z.Z.Z.Z.Z.Z.Z.Z.Z.Z.",
"Z.Z.Z.Z.Z.Z.Z.7.7.9.u.i.u.s.j.s.z.N.n.s.Z.Z.Z.Z.Z.Z.Z.Z.Z.Z.Z.Z.Z.Z.Z.Z.Z.Z.Z.Z.Z.Z.Z.Z.Z.Z.Z.Z.Z.Z.Z.Z.Z.Z.Z.Z.Z.Z.Z.Z.",
"Z.Z.Z.Z.Z.Z.Z.Z.Z.$.h.m.B.b.x.l.u.e.Z.Z.Z.Z.Z.Z.Z.Z.Z.Z.Z.Z.Z.Z.Z.Z.Z.Z.Z.Z.Z.Z.Z.Z.Z.Z.Z.Z.Z.Z.Z.Z.Z.Z.Z.Z.Z.Z.Z.Z.Z.Z.",
"Z.Z.Z.Z.Z.Z.Z.Z. .u.t.t.t.i.t.0.Z.Z.Z.Z.Z.Z.Z.Z.Z.Z.Z.Z.Z.Z.Z.Z.Z.Z.Z.Z.Z.Z.Z.Z.Z.Z.Z.Z.Z.Z.Z.Z.Z.Z.Z.Z.Z.Z.Z.Z.Z.Z.Z.Z.",
"Z.Z.Z.Z.Z.Z.Z.9.u.u.u.t.e.8.Z.Z.Z.Z.Z.Z.Z.Z.Z.Z.Z.Z.Z.Z.Z.Z.Z.Z.Z.Z.Z.Z.Z.Z.Z.Z.Z.Z.Z.Z.Z.Z.Z.Z.Z.Z.Z.Z.Z.Z.Z.Z.Z.Z.Z.Z.",
"Z.Z.Z.Z.Z.8.e.u.u.t.9.Z.Z.Z.Z.Z.Z.Z.Z.Z.Z.Z.Z.Z.Z.Z.Z.Z.Z.Z.Z.Z.Z.Z.Z.Z.Z.Z.Z.Z.Z.Z.Z.Z.Z.Z.Z.Z.Z.Z.Z.Z.Z.Z.Z.Z.Z.Z.Z.Z.",
"Z.Z.Z.%.c @.-.Z.Z.Z.Z.Z.Z.Z.Z.Z.Z.Z.Z.Z.Z.Z.Z.Z.Z.Z.Z.Z.Z.Z.Z.Z.Z.Z.Z.Z.Z.Z.Z.Z.Z.Z.Z.Z.Z.Z.Z.Z.Z.Z.Z.Z.Z.Z.Z.Z.Z.Z.Z.Z.",
"Z.Z.Z.Z.Z.Z.Z.Z.Z.Z.Z.Z.Z.Z.Z.Z.Z.Z.Z.Z.Z.Z.Z.Z.Z.Z.Z.Z.Z.Z.Z.Z.Z.Z.Z.Z.Z.Z.Z.Z.Z.Z.Z.Z.Z.Z.Z.Z.Z.Z.Z.Z.Z.Z.Z.Z.Z.Z.Z.Z.",
"Z.Z.Z.Z.Z.Z.Z.Z.Z.Z.Z.Z.Z.Z.Z.Z.Z.Z.Z.Z.Z.Z.Z.Z.Z.Z.Z.Z.Z.Z.Z.Z.Z.Z.Z.Z.Z.Z.Z.Z.Z.Z.Z.Z.Z.Z.Z.Z.Z.Z.Z.Z.Z.Z.Z.Z.Z.Z.Z.Z.",
"Z.Z.Z.Z.Z.Z.Z.Z.Z.Z.Z.Z.Z.Z.Z.Z.Z.Z.Z.Z.Z.Z.Z.Z.Z.Z.Z.Z.Z.Z.Z.Z.Z.Z.Z.Z.Z.Z.Z.Z.Z.Z.Z.Z.Z.Z.Z.Z.Z.Z.Z.Z.Z.Z.Z.Z.Z.Z.Z.Z.",
"Z.Z.Z.Z.Z.Z.Z.Z.Z.Z.Z.Z.Z.Z.Z.Z.Z.Z.Z.Z.Z.Z.Z.Z.Z.Z.Z.Z.Z.Z.Z.Z.Z.Z.Z.Z.Z.Z.Z.Z.Z.Z.Z.Z.Z.Z.Z.Z.Z.Z.Z.Z.Z.Z.Z.Z.Z.Z.Z.Z."
};
