/* XPM */
static char *pngegg1674675153[] = {
/* columns rows colors chars-per-pixel */
"60 60 140 2 ",
"   c None",
".  c #020203",
"X  c #04060C",
"o  c #07080B",
"O  c #0C0C0D",
"+  c #030512",
"@  c #070911",
"#  c #0B0D12",
"$  c #050A19",
"%  c #0A0E1A",
"&  c #0E1014",
"*  c #0D111D",
"=  c #131314",
"-  c #13151C",
";  c #16181D",
":  c #1B1B1B",
">  c #010322",
",  c #040824",
"<  c #0A0D24",
"1  c #070C2C",
"2  c #090E2C",
"3  c #0E1124",
"4  c #141622",
"5  c #171923",
"6  c #1B1D24",
"7  c #1B1D2A",
"8  c #0A0F36",
"9  c #080D3D",
"0  c #131535",
"q  c #1A1C34",
"w  c #1F2437",
"e  c #1C203D",
"r  c #222223",
"t  c #23252B",
"y  c #27282B",
"u  c #2B2B2C",
"i  c #222532",
"p  c #222C34",
"a  c #2B2C33",
"s  c #24273C",
"d  c #262938",
"f  c #2F3032",
"g  c #333333",
"h  c #313C3E",
"j  c #3B3B3B",
"k  c #0D1147",
"l  c #101643",
"z  c #12174B",
"x  c #13184C",
"c  c #0D1256",
"v  c #151955",
"b  c #191E54",
"n  c #1F2347",
"m  c #10255D",
"M  c #1A215C",
"N  c #222741",
"B  c #282E4A",
"V  c #373B47",
"C  c #383A4C",
"Z  c #212452",
"A  c #242850",
"S  c #2C325A",
"D  c #373C50",
"F  c #373E58",
"G  c #111765",
"H  c #181E69",
"J  c #1F256A",
"K  c #1C2373",
"L  c #242C62",
"P  c #273F63",
"I  c #283F63",
"U  c #2A336D",
"Y  c #333C6D",
"T  c #232C76",
"R  c #242A7C",
"E  c #2B3375",
"W  c #3A4063",
"Q  c #39436B",
"!  c #444444",
"~  c #4C4C4C",
"^  c #4D4E50",
"/  c #46485C",
"(  c gray33",
")  c #575758",
"_  c #57585F",
"`  c #5B5B5B",
"'  c #464D62",
"]  c #535760",
"[  c #5D5D60",
"{  c #4E7273",
"}  c #636363",
"|  c #6C6C6C",
" . c #636474",
".. c #6E6F72",
"X. c #6F7173",
"o. c gray45",
"O. c #7B7B7B",
"+. c #192286",
"@. c #2B378C",
"#. c #323D80",
"$. c #323F89",
"%. c #364185",
"&. c #465ACF",
"*. c #73838C",
"=. c #6787EB",
"-. c #3ED8E3",
";. c #4ADFE4",
":. c #848484",
">. c #8A8A8B",
",. c #8E8E90",
"<. c #949494",
"1. c #9B9B9B",
"2. c #9CB2B8",
"3. c #9EB8BA",
"4. c #A3A3A3",
"5. c #A7ACAE",
"6. c #ACACAC",
"7. c #AFBBBB",
"8. c #B4B4B4",
"9. c #BABBBB",
"0. c #8EABCA",
"q. c #B0C7C7",
"w. c #BFC0C0",
"e. c #BFC9CA",
"r. c #A2D7E9",
"t. c #BCE5E6",
"y. c #C3C3C3",
"u. c #CCCCCC",
"i. c #C5D0D0",
"p. c #CCD7D7",
"a. c #C7DFDF",
"s. c #D3D3D3",
"d. c #DBDBDB",
"f. c #CDE5E5",
"g. c #C4EDED",
"h. c #D1EEEE",
"j. c #CBF4F5",
"k. c #DFF9F9",
"l. c #E3E5E5",
"z. c #E1F6F6",
/* pixels */
"                                                                                                                        ",
"                                                                                                                        ",
"                                                                                                                        ",
"                                                                                                                        ",
"                                                      .         .                                                       ",
"                                                    .             .                                                     ",
"                                                  r :             : :                                                   ",
"                                                  O..             . :.                                                  ",
"                                                1.(                 ( <.                                                ",
"                                              ` :.&                 = :.`                                               ",
"                                              y.}                     | y.                                              ",
"                                            ~ 8.`                     ( 8.~                                             ",
"                                            y.| j                     j | y.                                            ",
"                                          } y.| =                     = | y.}                                           ",
"                                          u.9.}         =     =         } 9.u.                                          ",
"                                        j s.4.}         ~     ~         } 4.s.j                                         ",
"                                        | s.>.`         >.= O >.        ` >.s.|                                         ",
"                                        w.y.:.j         4.u u 4.        g >.y.w.                                        ",
"                                      >.d.} :.7       . 4.{ { 6..       7 >.[ d.>.                                      ",
"                                      s.d.4.~ -       . 4.;.;.4..       - ~ 4.d.s.                                      ",
"                                    ` d.u.4.| 9       | *.-.-.*.|       9 | 6.y.d.`                                     ",
"                                    d.l.w.1.| 2       >.P 5.5.P >.      1 | 1.y.l.d.                                    ",
"                                  g l.l.y.>.} 8     . 1.m p.u.J <..     8 } >.y.l.d.g                                   ",
"                                  6.6.* y q ; k .   . 4./ u.i./ 4.o   . k ; q y ; 6.8.                                  ",
"                                    % z 7 H b < X   = 4.1.& O 4.4.=   X 3 v J 6 z %                                     ",
"                                  u.w./ >.:.! G 1   g 1.u.    y.1.j   1 G ! :.>./ y.u.                                  ",
"                                9.s.d.s.9.O.! 4 < . [ 1.4.    4.<.} . < 4 V O.9.s.d.s.8.                                ",
"                                s.y.u.8.4.o.j q # X | 4.|     } 4.| X O q j X.4.8.u.y.s.                                ",
"                              O k.l.u.9.4.[ O E f o | 1.}     } 1.| o g E O [ 1.9.y.l.z.O                               ",
"                              ! s.f.z.9.:.( = L g o ..<.o.    o.<.| o g L = ( >.9.k.l.s.!                               ",
"                              ,.s.l.w.y.0.) r d f o | 1.1.    1.1.| o f s r _ 0.y.w.f.d.>.                              ",
"                              y.s.s.w.6.>.j f f y O } <.9.    9.<.} O u f g j >.6.w.s.s.y.                              ",
"                              u.d.` ,.4.>.~ a ! = = | :.8.    9.:.| = = ! a ~ >.4.<.[ d.u.                              ",
"                            u d.u.x 6.1.6.!     . : } :.8.    8.:.} : .     ! 6.1.6.z u.s.u                             ",
"                            o.d.C ; 4.8...&.      O | :.6.    6.:.| O       &.X.8.6.; C d.o.                            ",
"                            9.u.7 6 ~ 1.=.j ;       = :.6.    4.O.:       = j =.1.! 6 7 u.9.                            ",
"                        t.  u.6.e n f X._ g u     D E u <.    <.u E D     u g _ X.g n e 6.s.  t.                        ",
"                      q.f   4.:.b t : r.: g g = d V W t ` : : [ y Y V s = g g : r.; y v :.4.  f q.                      ",
"                    4.2.  . a <.0 u : 2.. g u g ; %.Q E O O O O E Q %.; g f g . 2.: y 0 ,.u .   3.4.                    ",
"                    g.: . O X. .= 7 r :.O y u g = s C Q 6 . . 6 W V s = g u y O *.r 7 =  ...O . : g.                    ",
"                  9.7.  X # u.i ; 0 : ` 6 O u u ~ ; %.F 7 . . t F %.= ~ u u O 6 ` : 0 : i u.# .   7.9.                  ",
"                  f.g . X ^ 4.t a = p g i + g f j j S Y B . . B Y S j j f g + i g p = u t 4.^ X . g f.                  ",
"                4.h.. + X <.f t S = *.= w o t f j | 7 #.U . . U E t | j u u O w = *.= S y a <.X + . h.4.                ",
"                8.p.o X $ 1.t u j 6.<.- M * & g j ! r @.T . . T @.r ! j f & * M ; ,.8.j u t 4.$ X o p.8.                ",
"              1.i.w.! @ * 4.u <.u.9.o.@ l $ . g u j ` N K # # K N ` ! u g . $ l # o.8.u.<.u 4.* @ ! w.i.1.              ",
"              6.a.y.4.* - 4.y y.y.6.,.o , $ > g . : ~ ; +.% % +.; ~ : . g > $ , X <.6.y.y.t 4.- * 4.y.a.6.              ",
"            O.9.g.y.6.& 6 1.! w.j = ( } + $ @ u .   j o k . . k o j   . u + $ + } ( = j w.! 1.; = 6.y.g.9.O.            ",
"            4.8.j.8.1.. = 1.>.) t ; # } = $ $ r O   : O         O :   O r $ $ = [ # ; t ` >.1.= . 1.8.j.8.4.            ",
"            6.6.g.9.:.  r 1.4.Z y 5 c $ } X $ & :   . r         r .   : & # X ` , c 5 y Z 4.1.r   :.8.j.4.6.            ",
"          >.8.6.t.8.O.  u 1.! . A b 4 < f ) % O u     f         f     u O % ( g - < b A . ! 1.u   O.8.t.8.8.>.          ",
"          6.9.8.h 1.X.  j <.    1 J 4 x 4 ) : O f     u         u     f O : ` 3 z 4 J <     <.j   ..1.h 8.9.6.          ",
"          8.9.g   O.}   ^ j     . i 7 H o . ` g O     O         O     O g ` . o H 7 i X     j ~   } O.  g 8.8.          ",
"          8.>.    g `   `         = R ;     : (                         ( :     ; R =         `   ` g     >.8.          ",
"        j 6.        !   u             X       :                         :       X             u   ~         6.j         ",
"        ( g         u                                                                             u         g (         ",
"        j           .                                                                             .           j         ",
"        .                                                                                                     .         ",
"                                                                                                                        ",
"                                                                                                                        ",
"                                                                                                                        "
};
